<svg width="2717" height="2848" viewBox="0 0 2717 2848" fill="none" xmlns="http://www.w3.org/2000/svg">
<g opacity="0.2">
<path opacity="0.2" d="M1107.12 2847.3C1718.56 2847.3 2214.23 2739.65 2214.23 2606.85C2214.23 2474.06 1718.56 2366.4 1107.12 2366.4C495.679 2366.4 0.00927734 2474.06 0.00927734 2606.85C0.00927734 2739.65 495.679 2847.3 1107.12 2847.3Z" fill="#000072"/>
</g>
<path d="M1703 2586.17C1672 2646.41 1394.88 2652.17 1328.57 2569.45C1327.56 2568.32 1326.62 2567.12 1325.77 2565.86C1325.77 2565.86 1181.6 2686.98 996.769 2631.48C996.769 2631.48 878.079 2723.48 562.669 2621.78C424.149 2577.09 320.589 2523.08 251.279 2453.02C180.909 2382.02 145.669 2294.45 144.669 2183.35C144.489 2153.06 146.494 2122.79 150.669 2092.78C152.089 2082.23 153.989 2071.47 156.469 2060.5C185.959 1927.61 289.619 1762.5 432.629 1612.5C529.689 1510.58 644.949 1415.68 767.389 1342.5C976.819 1217.5 1207.39 1156.23 1404.48 1233.04C1604.83 1311.11 1680.32 1542.59 1683.8 1756.92C1683.9 1761.67 1683.96 1766.36 1683.96 1771.06C1684.11 1819.14 1680.56 1867.17 1673.35 1914.7C1673.35 1914.7 1665.85 2158.91 1684 2240.27C1693.23 2281.58 1706 2354.27 1712.33 2423.96C1718.5 2491.48 1718.5 2556.1 1703 2586.17Z" fill="white"/>
<path d="M1703.05 2586.16C1672.05 2646.4 1394.92 2652.16 1328.61 2569.43C1339.75 2522.06 1335.68 2473.69 1335.68 2473.69L1429.48 2364.49C1642.7 2345.98 1710.48 2421.83 1712.33 2423.94C1718.5 2491.47 1718.5 2556.09 1703.05 2586.16Z" fill="#515B72"/>
<path d="M1257.91 2526.83C1257.91 2526.83 1152.29 1968.04 1404.49 1980.83C1627 1992.15 1520.73 2360.66 1257.91 2526.83Z" fill="#FFABBC"/>
<g opacity="0.2">
<path opacity="0.2" d="M1703.07 2586.18C1672.07 2646.43 1394.94 2652.18 1328.64 2569.46C1327.62 2568.33 1326.69 2567.13 1325.84 2565.87C1325.84 2565.87 1181.67 2686.99 996.84 2631.5C996.84 2631.5 878.139 2723.5 562.74 2621.79C424.21 2577.11 320.659 2523.09 251.339 2453.04C180.969 2382.04 145.739 2294.47 144.729 2183.37C146.789 2174.77 149.059 2166.28 151.539 2157.78C156.019 2237.97 218.639 2309.78 296.079 2331.18C373.519 2352.58 460.66 2325.85 517.58 2269.18C574.5 2212.51 601.58 2129.13 595.71 2049C623.3 2062.45 650.71 2076.32 678 2090.09C649.78 2065.93 615.6 2048.84 579 2042.35C665.88 1966.86 778.5 1921.5 893.5 1915.69C860.59 1995.27 844.63 2080.83 846.64 2166.91C881.19 2179.73 916.429 2190.44 952.719 2197.56C1102.38 2226.94 1263.49 2192.28 1387.82 2103.98C1460.46 2052.38 1519.97 1982.86 1561.17 1903.83C1585.96 1856.25 1544.87 1801.44 1492.27 1812.31C1395.47 1832.31 1290.07 1843.31 1179.72 1843.31C1003.05 1843.31 838.94 1815.19 702.84 1767.13C719.35 1762.07 734.49 1754.26 747.57 1740.13C791.78 1692.49 747.57 1509.49 747.57 1424.77C747.57 1399.24 755.849 1370.44 767.349 1342.59H767.409C976.829 1217.59 1207.41 1156.32 1404.49 1233.13C1604.84 1311.2 1680.33 1542.67 1683.81 1757.01C1679.81 1758.54 1675.64 1760.01 1671.58 1761.54C1675.69 1764.71 1679.86 1767.87 1683.97 1771.14C1684.12 1819.23 1680.58 1867.25 1673.37 1914.79C1673.37 1914.79 1671.15 1987.11 1672.05 2066.18C1669.47 2043.66 1666.66 2020.93 1663.61 1997.98C1613.81 2090.14 1563.99 2182.29 1514.16 2274.45C1488.58 2321.77 1462.94 2369.24 1442.16 2418.88C1425.16 2459.45 1413.52 2511.46 1444.16 2543.01C1461.78 2561.26 1491.37 2566.48 1514.22 2555.51C1537.07 2544.54 1551.35 2518.06 1548.14 2492.95C1549.91 2505.38 1554.79 2517.15 1562.35 2527.17C1569.9 2537.19 1579.87 2545.13 1591.33 2550.24C1602.79 2555.36 1615.35 2557.49 1627.86 2556.43C1640.36 2555.37 1652.39 2551.15 1662.82 2544.17C1684.66 2529.56 1697.32 2504.17 1702.17 2478.34C1707.02 2452.51 1704.97 2426.01 1702.91 2399.84C1700.01 2363.44 1697.11 2327.1 1694.05 2290.54C1701.05 2329.54 1708.13 2377.47 1712.35 2424C1718.52 2491.49 1718.52 2556.11 1703.07 2586.18Z" fill="#000072"/>
</g>
<path d="M528.649 1519.49C602.399 1453.34 683.159 1392.78 767.349 1342.56C755.849 1370.41 747.569 1399.21 747.569 1424.74C747.569 1509.46 791.779 1692.46 747.569 1740.1C734.489 1754.18 719.349 1761.99 702.839 1767.1C663.589 1779.23 616.539 1775.96 571.219 1804.61C506.759 1845.23 519.999 1897.45 476.219 1914.75C426.469 1934.48 367.709 1894.81 323.609 1934.43C279.509 1974.05 301.029 2035.13 251.279 2072.43C225.279 2091.84 187.089 2078.08 156.439 2060.51C187.819 1919.14 303.089 1741.31 460.339 1584.05C476.006 1568.28 492.096 1552.81 508.609 1537.63C515.249 1531.57 521.899 1525.5 528.649 1519.49Z" fill="#515B72"/>
<g opacity="0.2">
<path opacity="0.2" d="M747.57 1424.74C747.57 1509.46 791.78 1692.46 747.57 1740.1C734.49 1754.18 719.35 1761.99 702.84 1767.1C591 1727.54 498.11 1674.57 432.64 1612.59C441.72 1603.04 450.97 1593.54 460.39 1584.1C476.11 1568.44 492.2 1552.97 508.66 1537.68C515.25 1531.62 521.9 1525.55 528.66 1519.54C602.46 1453.54 683.22 1392.93 767.36 1342.61C755.85 1370.41 747.57 1399.21 747.57 1424.74Z" fill="#000072"/>
</g>
<path d="M767.41 1342.5V1342.56H767.35C767.35 1342.55 767.356 1342.53 767.367 1342.52C767.378 1342.51 767.394 1342.5 767.41 1342.5V1342.5Z" fill="#515B72"/>
<path d="M828.239 2690.72C759.969 2690.72 670.419 2678.72 556.239 2641.85C410.239 2594.74 305.569 2537.85 236.319 2467.85C143.189 2373.85 108.319 2250.28 129.759 2089.97C131.309 2078.46 133.369 2066.97 135.899 2055.83C160.899 1943.18 237.249 1806.83 350.899 1672.02C465.999 1535.31 610.119 1411.91 756.569 1324.41C869.469 1257.02 980.459 1212.27 1086.48 1191.41C1205.19 1168.06 1314.75 1175.41 1412.13 1213.41C1664.5 1311.74 1735.32 1646.58 1694.4 1916.63C1693.86 1935.63 1687.89 2160.71 1704.6 2235.63C1713.84 2276.96 1726.91 2350.57 1733.35 2422.01C1741.25 2508.45 1737.48 2565.3 1721.81 2595.76C1703.39 2631.6 1641.36 2644.99 1592.57 2649.9C1513.66 2657.85 1382.11 2648.78 1323.05 2594.23C1289.05 2617.94 1205.12 2667.23 1095.99 2667.23C1063.61 2667.22 1031.38 2662.88 1000.15 2654.33C979.589 2666.28 925.529 2690.72 828.239 2690.72ZM1218.67 1220.81C1084.17 1220.81 933.139 1268.16 778.199 1360.65C490.689 1532.33 226.639 1841.75 177.069 2065.06C174.799 2075.06 172.959 2085.33 171.569 2095.59C151.729 2244.07 181.819 2352.92 266.299 2438.16C330.679 2503.22 429.749 2556.71 569.189 2601.68C867.269 2697.85 982.909 2615.51 984.039 2614.68C986.701 2612.7 989.786 2611.36 993.054 2610.76C996.321 2610.17 999.681 2610.35 1002.87 2611.27C1174.1 2662.68 1310.87 2550.82 1312.27 2549.68C1314.51 2547.81 1317.13 2546.42 1319.94 2545.6C1322.75 2544.79 1325.7 2544.57 1328.6 2544.95C1331.5 2545.34 1334.29 2546.33 1336.79 2547.85C1339.29 2549.37 1341.44 2551.39 1343.12 2553.79C1343.46 2554.3 1343.83 2554.79 1344.22 2555.25C1344.52 2555.57 1344.8 2555.91 1345.08 2556.25C1380.48 2600.4 1496.58 2617.25 1588.34 2607.97C1650.07 2601.74 1679.54 2585.75 1684.28 2576.52C1690.88 2563.69 1700.57 2527.04 1691.28 2425.87C1685.02 2356.43 1672.28 2284.97 1663.37 2244.87C1644.86 2161.82 1651.91 1924.16 1652.22 1914.08C1652.25 1913.23 1652.32 1912.39 1652.45 1911.54C1691.32 1657.36 1627.9 1342.78 1396.77 1252.73C1342 1231.38 1282.18 1220.81 1218.67 1220.81Z" fill="#000072"/>
<path d="M1271.91 1934.41C1271.91 1934.41 1240.1 2123.26 1271.91 2241.95C1284.78 2289.95 1301.34 2334.05 1314.32 2376.89C1333.52 2439.89 1345.02 2500.17 1325.82 2565.89C1325.82 2565.89 1181.65 2687.01 996.819 2631.51C996.819 2631.51 944.129 2584.3 899.819 2440.29C885.419 2393.39 871.869 2336.29 861.319 2267.1C832.689 2079.63 903.539 1885.91 903.539 1885.91" fill="white"/>
<path d="M1096 2667.28C1060.34 2667.26 1024.88 2662.01 990.749 2651.68C987.786 2650.79 985.054 2649.26 982.749 2647.19C980.419 2645.1 925.169 2594.36 879.659 2446.45C863.409 2393.55 850.219 2334.27 840.449 2270.24C811.379 2079.66 880.779 1886.75 883.749 1878.63C885.67 1873.38 889.599 1869.1 894.674 1866.74C899.749 1864.38 905.553 1864.13 910.809 1866.05C916.066 1867.97 920.345 1871.9 922.704 1876.98C925.063 1882.05 925.31 1887.86 923.389 1893.11C922.699 1895 854.769 2084.22 882.169 2263.88C891.629 2325.88 904.359 2383.12 919.999 2434.05C955.619 2549.83 996.749 2600.42 1008 2612.76C1159.26 2655.5 1281.76 2572.64 1307.33 2553.5C1322.12 2496.94 1312.76 2444.22 1294.12 2383.04C1289.12 2366.63 1283.72 2350.24 1277.96 2332.89C1268.96 2305.59 1259.55 2277.37 1251.52 2247.42C1218.89 2125.69 1249.76 1938.8 1251.09 1930.9C1251.51 1928.14 1252.48 1925.48 1253.93 1923.09C1255.39 1920.7 1257.31 1918.62 1259.58 1916.98C1261.84 1915.34 1264.41 1914.17 1267.14 1913.53C1269.87 1912.89 1272.69 1912.8 1275.45 1913.27C1278.21 1913.73 1280.85 1914.74 1283.22 1916.23C1285.58 1917.73 1287.63 1919.68 1289.23 1921.97C1290.84 1924.27 1291.97 1926.85 1292.57 1929.59C1293.16 1932.33 1293.21 1935.15 1292.7 1937.9C1292.39 1939.74 1262.05 2123.67 1292.28 2236.48C1299.99 2265.24 1309.15 2292.87 1318.02 2319.6C1323.86 2337.21 1329.38 2353.86 1334.5 2370.76C1353.13 2431.93 1367.44 2498.64 1346.06 2571.76C1344.89 2575.76 1342.57 2579.32 1339.38 2582C1334.34 2586.25 1235.89 2667.28 1096 2667.28Z" fill="#000072"/>
<path d="M1325.82 2565.85C1325.82 2565.85 1181.65 2686.97 996.819 2631.47C996.819 2631.47 944.129 2584.26 899.819 2440.25C1045.37 2323.14 1314.24 2376.73 1314.24 2376.73L1314.35 2376.89C1333.52 2439.91 1345 2500.17 1325.82 2565.85Z" fill="#515B72"/>
<g opacity="0.6">
<path opacity="0.6" d="M1007.71 2384.37C1085.49 2364.6 1166.09 2358.3 1246 2365.75C1261 2367.15 1276.41 2369.2 1289.25 2377.02C1310.88 2390.18 1320.42 2416.73 1323.62 2441.85C1326.82 2466.97 1325.33 2492.85 1332.11 2517.2C1326.44 2473.98 1315.03 2430.11 1276.29 2410.1C1237.55 2390.09 1161.13 2398.92 1117.76 2403.33C1074.39 2407.74 1030.23 2419.33 1001.99 2426.48C1003 2412.48 1004.05 2398.48 1007.71 2384.37Z" fill="white"/>
</g>
<g opacity="0.61">
<path opacity="0.61" d="M1422.36 2370.26C1517.99 2344.8 1624.36 2363.12 1705.36 2419.91C1708.43 2454.19 1706.21 2488.72 1698.8 2522.32C1690.95 2490.95 1694.33 2459.78 1668.8 2439.96C1612.35 2396.14 1489.71 2387.91 1408.12 2380.02C1413.52 2377.19 1418.88 2374.35 1422.36 2370.26Z" fill="white"/>
</g>
<path d="M1096 2667.28C1060.34 2667.26 1024.88 2662.01 990.749 2651.68C987.786 2650.79 985.054 2649.26 982.749 2647.19C980.419 2645.1 925.169 2594.36 879.659 2446.45C878.419 2442.42 878.417 2438.1 879.654 2434.07C880.891 2430.03 883.311 2426.46 886.599 2423.81C1038.08 2301.92 1306.99 2353.81 1318.37 2356.04C1323.83 2357.13 1328.65 2360.34 1331.76 2364.96C1332.96 2366.75 1333.89 2368.69 1334.53 2370.74C1353.17 2431.94 1367.53 2498.65 1346.1 2571.74C1344.93 2575.74 1342.61 2579.3 1339.42 2581.98C1334.34 2586.25 1235.89 2667.28 1096 2667.28ZM1008 2612.76C1158.65 2655.3 1281.66 2572.56 1307.34 2553.47C1321.12 2500.74 1313.91 2451.35 1297.77 2395.32C1246.22 2387.21 1045.09 2362.58 924.399 2448.08C958.939 2553.91 997.179 2600.91 1008 2612.76Z" fill="#000072"/>
<path d="M1161.28 2623.71C1161.52 2623.22 1161.72 2622.71 1161.88 2622.18C1162.12 2621.59 1162.33 2620.79 1162.56 2620.1C1163.03 2618.69 1163.43 2617.16 1163.85 2615.65C1164.68 2612.65 1165.42 2609.46 1166.09 2606.29C1167.39 2599.92 1168.53 2593.39 1169.23 2586.77C1170.77 2573.37 1171.32 2559.86 1170.9 2546.37C1170.23 2532.79 1169.18 2519.04 1166.66 2505.44C1165.73 2498.56 1163.94 2491.87 1162.56 2485.03C1160.98 2478.26 1158.97 2471.58 1157.18 2464.79L1157.07 2464.34C1156.66 2462.79 1156.85 2461.14 1157.6 2459.72C1158.35 2458.29 1159.61 2457.2 1161.12 2456.66C1162.63 2456.12 1164.3 2456.16 1165.78 2456.79C1167.26 2457.41 1168.46 2458.56 1169.13 2460.02C1172.13 2466.59 1175.4 2473.13 1178.26 2479.84C1180.9 2486.63 1183.97 2493.33 1186.19 2500.32C1191.29 2514.13 1194.97 2528.46 1198.19 2543.01C1201.22 2557.75 1203.18 2572.68 1204.05 2587.69C1204.54 2595.27 1204.56 2602.93 1204.33 2610.69C1204.19 2614.57 1203.98 2618.46 1203.6 2622.43C1203.42 2624.43 1203.24 2626.43 1202.95 2628.43C1202.8 2629.48 1202.71 2630.43 1202.52 2631.56C1202.33 2632.69 1202.22 2633.56 1201.85 2635.2L1198.85 2648.4C1197.98 2652.18 1196.22 2655.68 1193.7 2658.63C1191.18 2661.57 1187.99 2663.86 1184.4 2665.3C1180.81 2666.74 1176.92 2667.29 1173.07 2666.91C1169.22 2666.52 1165.52 2665.21 1162.28 2663.09C1159.05 2660.96 1156.37 2658.08 1154.49 2654.7C1152.61 2651.32 1151.57 2647.53 1151.47 2643.66C1151.37 2639.79 1152.2 2635.96 1153.9 2632.48C1155.6 2629 1158.12 2625.99 1161.24 2623.69L1161.28 2623.71Z" fill="#000072"/>
<g opacity="0.2">
<path opacity="0.2" d="M907.399 1882.45C898.949 1949.79 890.499 2017.78 896.769 2085.36C903.039 2152.94 925.339 2221.02 971.329 2270.94C993.329 2294.8 1020.61 2314.17 1051.33 2324.52C1129.16 2350.73 1223.61 2308.66 1256.19 2233.28C1270.69 2278.22 1285.19 2323.15 1299.7 2368.07C1232.03 2356.83 1163.01 2356.27 1095.17 2366.4C1080.58 2368.59 1065.68 2371.4 1053.06 2379.07C1032.24 2391.7 1020.81 2415.72 1015.99 2439.59C1008.91 2474.59 1014.55 2513.35 1036.99 2541.09C1059.43 2568.83 1100.33 2582.39 1132.92 2567.81C1165.51 2553.23 1182.16 2508.09 1162.27 2478.44C1183.02 2511.63 1233.11 2517.95 1266.27 2497.18C1299.43 2476.41 1315.96 2435.37 1315.7 2396.23C1324.98 2423.83 1334.33 2451.74 1337.02 2480.74C1339.71 2509.74 1335.15 2540.36 1318.62 2564.34C1301.17 2589.66 1272.55 2604.85 1243.94 2616.15C1151.37 2652.41 1049.54 2657.71 953.699 2631.25C925.769 2623.46 897.369 2612.16 878.579 2590.09C860.449 2568.79 853.629 2540.31 848.739 2512.78C825.999 2384.5 832.899 2252.91 845.239 2123.16C852.999 2041.69 863.739 1957.7 907.399 1882.45Z" fill="#000072"/>
</g>
<path d="M1332 2471.7C1327.55 2471.71 1323.22 2470.31 1319.61 2467.7C1316.01 2465.09 1313.32 2461.42 1311.93 2457.19C1310.54 2452.97 1310.53 2448.41 1311.88 2444.17C1313.24 2439.94 1315.9 2436.24 1319.48 2433.6C1574.28 2246.13 1652.02 1913.41 1652.78 1910.07C1654.02 1904.62 1657.37 1899.87 1662.1 1896.89C1666.84 1893.9 1672.56 1892.92 1678.02 1894.15C1683.48 1895.39 1688.22 1898.74 1691.21 1903.48C1694.19 1908.21 1695.18 1913.94 1693.94 1919.39C1690.71 1933.65 1611.84 2270.89 1344.49 2467.59C1340.87 2470.27 1336.5 2471.71 1332 2471.7V2471.7Z" fill="#000072"/>
<path d="M1539.89 2652.45C1457.53 2652.45 1354.42 2635.36 1312.15 2582.64C1310.15 2580.15 1308.75 2577.23 1308.04 2574.11C1307.33 2570.99 1307.34 2567.76 1308.07 2564.64C1318.26 2521.28 1314.69 2475.92 1314.66 2475.47C1314.42 2472.69 1314.74 2469.88 1315.6 2467.22C1316.46 2464.56 1317.84 2462.1 1319.66 2459.97L1413.45 2350.77C1417.04 2346.59 1422.13 2343.98 1427.63 2343.5C1646.49 2324.5 1720.48 2401.26 1728.19 2410.08C1731.13 2413.44 1732.92 2417.64 1733.32 2422.08C1741.23 2508.55 1737.46 2565.4 1721.79 2595.86C1703.37 2631.7 1641.34 2645.09 1592.55 2650C1576.78 2651.54 1558.88 2652.45 1539.89 2652.45ZM1351.52 2563.17C1392.97 2602.17 1501.52 2616.71 1588.34 2607.96C1650.07 2601.73 1679.54 2585.74 1684.28 2576.51C1690.7 2564.01 1700.05 2528.96 1692.01 2433.77C1674.78 2419.35 1604.95 2372.23 1439.83 2384.77L1357.23 2480.94C1357.84 2496.32 1358.07 2528.91 1351.52 2563.17V2563.17Z" fill="#000072"/>
<path d="M1521.23 2614.1C1522.16 2612.24 1523.47 2609.1 1524.5 2606.34C1525.53 2603.58 1526.6 2600.55 1527.6 2597.6C1529.6 2591.68 1531.21 2585.6 1532.71 2579.47C1535.66 2567.13 1537.56 2554.55 1538.38 2541.88C1538.98 2535.52 1538.81 2529.17 1538.91 2522.76C1538.46 2516.44 1538.49 2509.97 1537.47 2503.66C1536.25 2490.85 1532.92 2478.42 1529.2 2465.99L1529.02 2465.37C1528.34 2463.14 1528.52 2460.74 1529.55 2458.64C1530.57 2456.54 1532.35 2454.92 1534.53 2454.08C1536.71 2453.25 1539.13 2453.28 1541.29 2454.16C1543.45 2455.04 1545.19 2456.71 1546.17 2458.82C1552.17 2471.66 1557.91 2484.96 1561.37 2498.94C1563.52 2505.85 1564.59 2512.94 1566.11 2520.04C1567.11 2527.17 1568.29 2534.35 1568.69 2541.56C1569.87 2556.05 1569.81 2570.6 1568.53 2585.07C1567.86 2592.33 1566.97 2599.59 1565.72 2606.85C1565.07 2610.48 1564.41 2614.12 1563.57 2617.78C1562.73 2621.44 1561.96 2624.86 1560.57 2629.37L1560.43 2629.81C1558.77 2635.18 1555.05 2639.68 1550.08 2642.3C1545.11 2644.93 1539.31 2645.48 1533.93 2643.82C1528.56 2642.16 1524.07 2638.44 1521.44 2633.47C1518.82 2628.5 1518.27 2622.69 1519.93 2617.32C1520.28 2616.22 1520.71 2615.14 1521.23 2614.1V2614.1Z" fill="#000072"/>
<path d="M996.799 2631.48C992.884 2634.29 988.759 2636.8 984.459 2638.97C982.769 2639.82 980.919 2640.77 978.859 2641.72C970.849 2645.54 962.606 2648.85 954.179 2651.63C953.019 2652 951.799 2652.42 950.589 2652.79C948.899 2653.32 947.209 2653.9 945.419 2654.43C926.455 2660.01 907.052 2663.96 887.419 2666.25C884.729 2666.56 881.989 2666.88 879.139 2667.14C876.919 2667.41 874.659 2667.62 872.329 2667.78C864.629 2668.46 856.559 2668.99 848.019 2669.3C845.329 2669.41 842.639 2669.52 839.839 2669.57C834.089 2669.67 828.179 2669.67 822.059 2669.62C820.059 2669.62 817.999 2669.57 815.999 2669.52C814.519 2669.52 812.999 2669.46 811.559 2669.41C808.719 2669.36 805.809 2669.25 802.859 2669.1C791.619 2668.62 779.859 2667.83 767.459 2666.61C765.249 2666.4 763.029 2666.19 760.759 2665.93C759.229 2665.77 757.649 2665.61 756.069 2665.4C752.689 2665.03 749.259 2664.61 745.839 2664.19C735.499 2662.86 724.789 2661.28 713.709 2659.44C710.649 2658.97 707.639 2658.44 704.529 2657.86C703.789 2657.7 703.049 2657.59 702.319 2657.44C698.619 2656.8 694.819 2656.06 691.029 2655.33C647.63 2646.73 604.786 2635.53 562.729 2621.78C424.209 2577.09 320.649 2523.08 251.339 2453.02L305.999 2333.59L421.999 2080.33C493.159 2051.21 550.719 2051.33 596.399 2065.77C703.169 2099.48 745.319 2211.47 745.319 2211.47L748.319 2209.84C773.959 2196.54 831.319 2186.68 886.109 2204.4C920.669 2215.59 954.269 2237.79 978.169 2277.04C1041.43 2381.02 996.799 2631.48 996.799 2631.48Z" fill="white"/>
<path d="M828.309 2690.77C803.424 2690.71 778.562 2689.25 753.839 2686.41C753.429 2686.41 753.019 2686.31 752.619 2686.24C692.189 2679.36 626.129 2664.43 556.219 2641.84C410.219 2594.74 305.559 2537.84 236.309 2467.84C232.374 2463.87 230.179 2458.49 230.209 2452.89C230.239 2447.29 232.491 2441.94 236.469 2438C240.448 2434.07 245.826 2431.87 251.422 2431.9C257.019 2431.93 262.374 2434.19 266.309 2438.16C330.679 2503.16 429.749 2556.7 569.189 2601.67C636.829 2623.52 700.489 2637.9 758.399 2644.41L759.559 2644.57C794.489 2648.46 827.629 2649.51 858.079 2647.69C925.329 2643.69 963.309 2626.54 977.519 2618.69C984.519 2573.59 1012.04 2373.31 960.109 2288.02C941.249 2257.02 914.109 2235.68 879.579 2224.49C831.289 2208.87 779.409 2217.49 757.999 2228.58L755.459 2229.96C752.808 2231.42 749.875 2232.29 746.858 2232.52C743.84 2232.75 740.81 2232.32 737.972 2231.27C735.133 2230.22 732.553 2228.58 730.406 2226.45C728.26 2224.31 726.596 2221.75 725.529 2218.91C725.209 2218.05 690.199 2128.27 607.309 2092.34C556.069 2070.13 496.399 2072.66 429.969 2099.87C427.405 2100.92 424.658 2101.46 421.887 2101.45C419.115 2101.44 416.373 2100.88 413.816 2099.81C411.26 2098.74 408.94 2097.18 406.987 2095.21C405.035 2093.24 403.49 2090.91 402.439 2088.34C401.389 2085.78 400.854 2083.03 400.865 2080.26C400.875 2077.49 401.432 2074.75 402.503 2072.19C403.573 2069.63 405.137 2067.31 407.105 2065.36C409.072 2063.41 411.405 2061.86 413.969 2060.81C491.499 2029.06 562.339 2026.69 624.509 2053.81C698.319 2085.96 739.129 2150.91 755.899 2183.91C791.469 2171.97 844.399 2168.75 892.569 2184.32C935.878 2198.09 972.696 2227.15 996.149 2266.07C1062.84 2375.6 1019.46 2624.64 1017.58 2635.18C1016.66 2640.34 1013.87 2644.97 1009.73 2648.18C1007.86 2649.63 962.789 2683.73 860.599 2689.86C850.099 2690.48 839.336 2690.78 828.309 2690.77Z" fill="#000072"/>
<path d="M996.799 2631.47C996.799 2631.47 956.19 2662.96 859.33 2668.77C830.21 2670.51 795.98 2669.93 756.2 2665.44C756.18 2665.42 756.156 2665.41 756.13 2665.4C756.104 2665.39 756.077 2665.39 756.049 2665.39C681.509 2647.91 598.319 2586.18 606.809 2431.91C615.659 2270.91 745.28 2211.51 745.28 2211.51L748.28 2209.88C773.92 2196.58 831.279 2186.72 886.069 2204.44C920.619 2215.62 954.219 2237.83 978.069 2277.08C1041.43 2381 996.799 2631.47 996.799 2631.47Z" fill="#515B72"/>
<g opacity="0.2">
<path opacity="0.2" d="M996.799 2631.48C992.884 2634.29 988.759 2636.8 984.459 2638.97C982.769 2639.82 980.919 2640.77 978.859 2641.72C970.849 2645.54 962.606 2648.85 954.179 2651.63C953.019 2652 951.799 2652.42 950.589 2652.79C948.899 2653.32 947.209 2653.9 945.419 2654.43C926.455 2660.01 907.052 2663.96 887.419 2666.25C884.729 2666.56 881.989 2666.88 879.139 2667.14C876.919 2667.41 874.659 2667.62 872.329 2667.78C864.629 2668.46 856.559 2668.99 848.019 2669.3C845.329 2669.41 842.639 2669.52 839.839 2669.57C834.089 2669.67 828.179 2669.67 822.059 2669.62C820.059 2669.62 817.999 2669.57 815.999 2669.52C814.519 2669.52 812.999 2669.46 811.559 2669.41C808.719 2669.36 805.809 2669.25 802.859 2669.1C791.619 2668.62 779.859 2667.83 767.459 2666.61C765.249 2666.4 763.029 2666.19 760.759 2665.93C759.229 2665.77 757.649 2665.61 756.069 2665.4C752.689 2665.03 749.259 2664.61 745.839 2664.19C735.499 2662.86 724.789 2661.28 713.709 2659.44C710.649 2658.97 707.639 2658.44 704.529 2657.86C703.789 2657.7 703.049 2657.59 702.319 2657.44C698.619 2656.8 694.819 2656.06 691.029 2655.33C647.63 2646.73 604.786 2635.53 562.729 2621.78C424.209 2577.09 320.649 2523.08 251.339 2453.02L305.999 2333.59C380.859 2350.26 463.049 2323.41 517.539 2269.13C570.539 2216.38 597.619 2140.57 596.349 2065.77C703.119 2099.48 745.269 2211.47 745.269 2211.47L748.269 2209.84C755.499 2206.09 765.209 2202.61 776.709 2199.97C721.479 2219.49 672.789 2257.47 641.349 2306.97C620.189 2340.31 606.579 2381.83 618.869 2419.33C630.869 2455.84 664.139 2480.42 695.519 2502.58C688.628 2462.62 693.016 2421.52 708.189 2383.91C703.709 2429.48 728.499 2475.38 766.189 2501.33C803.879 2527.28 852.759 2534.46 897.809 2526.07C927.349 2520.53 956.469 2508.14 977.149 2486.3C997.029 2465.41 1007.21 2438.14 1010.75 2409.3C1017.37 2516.01 996.799 2631.48 996.799 2631.48Z" fill="#000072"/>
</g>
<g opacity="0.6">
<path opacity="0.6" d="M613.879 2469.8C628.769 2373.8 692.369 2286.65 779.259 2243.19C725.059 2301.92 694.379 2381.77 695.259 2461.68C713.857 2398.06 748.331 2340.22 795.439 2293.58C816.969 2272.32 842.759 2252.84 872.839 2249.58C904.209 2246.19 935.389 2261.47 957.839 2283.64C980.289 2305.81 995.309 2334.29 1008.84 2362.8C1015.61 2288.24 958.229 2216.01 885.919 2196.63C813.609 2177.25 733.179 2206.18 681.919 2260.7C630.659 2315.22 606.669 2391.82 613.879 2469.8Z" fill="white"/>
</g>
<path d="M828.309 2690.77C803.424 2690.71 778.562 2689.25 753.839 2686.41C752.733 2686.29 751.639 2686.08 750.569 2685.77C696.919 2673.04 575.179 2622.77 585.739 2430.7C594.929 2263.49 723.609 2198.4 735.739 2192.62L738.229 2191.26C771.939 2173.78 835.549 2165.88 892.539 2184.31C935.848 2198.08 972.666 2227.14 996.119 2266.06C1062.81 2375.59 1019.43 2624.63 1017.55 2635.17C1016.63 2640.33 1013.84 2644.96 1009.7 2648.17C1007.83 2649.62 962.759 2683.72 860.569 2689.85C850.089 2690.47 839.336 2690.78 828.309 2690.77ZM759.999 2644.63C794.789 2648.48 827.799 2649.52 858.129 2647.7C925.699 2643.7 963.519 2626.54 977.559 2618.7C984.559 2573.7 1012.11 2373.31 960.159 2287.98C941.299 2256.98 914.159 2235.64 879.629 2224.44C831.329 2208.83 779.459 2217.44 758.059 2228.54L755.449 2229.95C755.009 2230.19 754.569 2230.42 754.119 2230.62C749.359 2232.84 635.939 2287.3 627.929 2433C619.389 2587.34 706.529 2631.85 759.999 2644.63Z" fill="#000072"/>
<path d="M859.329 2689.91C858.548 2689.92 857.766 2689.87 856.989 2689.78C773.679 2680.47 676.179 2612.27 675.539 2450.71C675.259 2378.66 700.619 2310.31 746.949 2258.26C786.619 2213.68 839.029 2185.13 884.089 2183.44C886.952 2183.15 889.843 2183.46 892.579 2184.35C935.884 2198.12 972.698 2227.18 996.149 2266.1C1062.84 2375.63 1019.46 2624.67 1017.58 2635.21C1016.66 2640.37 1013.87 2645 1009.73 2648.21C1007.86 2649.66 962.789 2683.76 860.599 2689.89C860.179 2689.91 859.749 2689.91 859.329 2689.91ZM883.229 2225.73C815.729 2230.22 717.229 2320.01 717.749 2450.54C718.269 2583.17 794.249 2639.46 859.919 2647.63C926.029 2643.4 963.439 2626.52 977.519 2618.71C984.519 2573.61 1012.04 2373.33 960.109 2288.04C941.919 2258.14 916.069 2237.19 883.229 2225.69V2225.73Z" fill="#000072"/>
<path d="M632.92 2728.28C632.86 2737.41 632.49 2746.74 631.7 2756.28C631.7 2756.28 584.7 2688.5 521.45 2686.23C458.2 2683.96 415.26 2808.31 251.31 2656.91C251.31 2656.91 182.57 2664.5 120.31 2648.36C64.8197 2634.01 14.4397 2600.83 21.8797 2526.87C28.4197 2462.15 91.8797 2424.27 140.88 2404.43C159.583 2396.79 178.885 2390.71 198.59 2386.24C198.59 2386.24 236.04 2444.74 275.13 2475.24C275.13 2475.24 130.38 2504.24 121.31 2542.08C113 2576.99 238.6 2575.91 258.75 2575.51C260.49 2575.51 261.44 2575.51 261.44 2575.51L261.49 2575.46C263.55 2572.4 333.18 2470.22 442.32 2480.98C546.61 2491.16 633.92 2581.91 632.92 2728.28Z" fill="white"/>
<path d="M631.709 2777.39C628.306 2777.39 624.952 2776.57 621.936 2774.99C618.92 2773.41 616.33 2771.13 614.389 2768.33V2768.33C613.969 2767.74 572.459 2709.17 520.699 2707.33C508.779 2706.73 495.299 2714.85 479.699 2724.06C432.459 2751.89 368.089 2789.82 243.969 2678.67C209.399 2681.13 92.8794 2684.6 34.3394 2626.62C7.92944 2600.49 -3.33056 2566.2 0.849445 2524.7C12.9994 2403.81 186.999 2367.01 194.349 2365.5C198.526 2364.65 202.863 2365.08 206.79 2366.74C210.717 2368.4 214.05 2371.2 216.349 2374.79C216.699 2375.35 252.349 2430.68 288.119 2458.59C291.298 2461.08 293.697 2464.43 295.032 2468.24C296.366 2472.05 296.581 2476.16 295.649 2480.09C294.718 2484.02 292.68 2487.6 289.777 2490.4C286.873 2493.2 283.227 2495.12 279.269 2495.91C219.929 2507.8 160.709 2528.97 145.139 2543.11C161.139 2550.21 205.409 2555.11 250.679 2554.57C271.939 2527.36 342.109 2449.82 444.419 2459.92C558.909 2471.15 667.239 2577.14 652.759 2757.92C652.333 2763.2 649.937 2768.13 646.047 2771.73C642.157 2775.33 637.058 2777.33 631.759 2777.34L631.709 2777.39ZM251.299 2635.75C256.611 2635.75 261.729 2637.75 265.629 2641.35C371.269 2738.91 415.489 2712.91 458.239 2687.69C477.789 2676.18 497.979 2664.39 522.239 2665.14C558.239 2666.43 588.999 2684.89 611.239 2703.67C602.999 2576.17 521.209 2509.91 440.269 2501.91C343.889 2492.32 281.609 2583.28 279.009 2587.16C278.247 2588.29 277.38 2589.35 276.419 2590.31C272.6 2594.13 267.475 2596.35 262.079 2596.53C223.849 2597.68 132.299 2597.13 107.659 2566.89C104.255 2562.83 101.856 2558.02 100.655 2552.86C99.4548 2547.7 99.487 2542.32 100.749 2537.17C106.599 2512.77 135.749 2493.41 195.149 2474.33C208.079 2470.18 220.799 2466.6 232.029 2463.67C216.63 2446.82 202.369 2428.95 189.339 2410.2C152.169 2420.43 50.2794 2455.07 42.8394 2528.91C39.9594 2557.49 46.8394 2579.63 63.9594 2596.58C108.279 2640.58 212.569 2639.84 248.959 2635.86C249.737 2635.78 250.518 2635.74 251.299 2635.75V2635.75Z" fill="#000072"/>
<path d="M631.709 2756.28C631.709 2756.28 584.709 2688.49 521.459 2686.28C458.209 2684.07 415.269 2808.35 251.309 2656.89C247.939 2591.32 261.439 2575.5 261.439 2575.5L261.499 2575.45C263.549 2572.39 333.189 2470.21 442.329 2480.97C553.109 2491.78 644.739 2593.54 631.709 2756.28Z" fill="#515B72"/>
<g opacity="0.6">
<path opacity="0.6" d="M259.41 2615.77C284.41 2580.59 317.95 2550.68 357.84 2534.14C397.73 2517.6 444.26 2515.3 484 2532.2C513.85 2544.9 538.55 2567.51 558.91 2592.76C594.225 2636.68 617.797 2688.85 627.41 2744.37C630.52 2683 619.07 2619.66 586.5 2567.55C553.93 2515.44 498.59 2476 437.37 2470.73C394.17 2467.2 351.231 2480.12 317.16 2506.91C283.59 2533.6 260.74 2573.38 259.41 2615.77Z" fill="white"/>
</g>
<path d="M631.71 2777.39C628.306 2777.39 624.952 2776.57 621.936 2774.99C618.92 2773.41 616.331 2771.13 614.39 2768.33V2768.33C613.97 2767.74 572.46 2709.17 520.7 2707.33C508.78 2706.73 495.3 2714.85 479.7 2724.06C431.59 2752.41 365.7 2791.22 237.02 2672.35C232.974 2668.62 230.552 2663.44 230.27 2657.94C226.99 2594.21 238.59 2570.59 244.61 2562.77C252.5 2551.4 327.42 2448.35 444.43 2459.93C558.92 2471.16 667.25 2577.15 652.77 2757.93C652.343 2763.21 649.947 2768.14 646.058 2771.74C642.168 2775.34 637.068 2777.34 631.77 2777.35L631.71 2777.39ZM272 2647.18C373 2737.86 416.32 2712.37 458.2 2687.69C477.75 2676.18 497.94 2664.39 522.2 2665.14C558.2 2666.43 588.96 2684.89 611.2 2703.67C603 2576.17 521.21 2509.91 440.27 2501.91C343.89 2492.32 281.61 2583.28 279.01 2587.16C278.85 2587.4 278.68 2587.63 278.52 2587.86C277.48 2589.91 270.77 2604.91 272 2647.18ZM277.48 2589.12C277.25 2589.39 277.02 2589.65 276.78 2589.9C277.23 2589.47 277.73 2588.91 277.52 2589.12H277.48ZM278.32 2588.07C278.06 2588.43 277.78 2588.78 277.49 2589.07C277.818 2588.78 278.11 2588.44 278.36 2588.07H278.32Z" fill="#000072"/>
<path d="M1022.23 241.194C952.699 342.894 771.229 341.194 771.229 341.194C761.229 272.674 766.069 217.544 779.359 173.394C803.679 92.3138 856.36 48.0538 897.26 24.9538C900.94 22.84 905.033 21.544 909.26 21.1538C926.08 19.6238 942.26 32.6538 942.38 51.1538C942.65 88.7138 959.479 125.954 981.469 156.394C1016.53 204.914 1022.23 241.194 1022.23 241.194Z" fill="#F9E3D2"/>
<path d="M1593.48 341.204C1593.48 341.204 1483.28 342.204 1401.78 294.524C1378.67 281.014 1357.89 263.614 1342.54 241.194C1342.54 241.194 1348.23 204.954 1383.26 156.364C1405.2 125.924 1422.03 88.6838 1422.26 51.1238C1422.32 44.2486 1424.72 37.5983 1429.06 32.2675C1433.4 26.9366 1439.43 23.2427 1446.15 21.7938C1453.38 20.1541 1460.97 21.2852 1467.41 24.9638C1503.86 45.5338 1549.6 82.8839 1576.34 148.134C1587.63 175.514 1595.55 207.794 1597.92 245.834C1599.86 274.314 1598.65 305.974 1593.48 341.204Z" fill="#F9E3D2"/>
<path d="M772.229 362.314H771.079C766.053 362.268 761.209 360.43 757.417 357.13C753.626 353.83 751.138 349.286 750.399 344.314C719.769 134.784 822.809 42.7838 886.999 6.58384C894.796 2.20792 903.598 -0.0608197 912.538 0.00123982C921.479 0.0632993 930.249 2.45401 937.984 6.93774C945.719 11.4215 952.152 17.8434 956.649 25.5707C961.146 33.2979 963.552 42.0636 963.629 51.0038C963.819 79.9238 976.269 113.004 998.629 144.004C1036.16 196.004 1042.8 236.164 1043.06 237.844C1043.89 243.155 1042.67 248.583 1039.64 253.024C966.859 359.604 789.839 362.314 772.229 362.314ZM912.089 42.1338C910.545 42.145 909.031 42.5623 907.699 43.3438C843.269 79.7038 771.899 156.964 789.699 319.454C833.869 316.804 946.569 303.454 999.339 236.624C995.739 224.424 986.389 199.294 964.339 168.724C944.889 141.724 921.639 99.4838 921.339 51.2838C921.346 49.6823 920.92 48.1086 920.107 46.7287C919.294 45.3489 918.123 44.214 916.719 43.4438C915.315 42.615 913.72 42.1637 912.089 42.1338V42.1338Z" fill="#39005E"/>
<path d="M1592.53 362.314C1574.95 362.314 1397.92 359.604 1325.12 253.074C1322.1 248.638 1320.87 243.218 1321.7 237.914C1321.97 236.234 1328.6 196.124 1366.12 144.074C1388.54 112.984 1400.99 79.9338 1401.18 51.0738C1401.26 42.1336 1403.66 33.3679 1408.16 25.6407C1412.66 17.9134 1419.09 11.4915 1426.82 7.00775C1434.56 2.52402 1443.33 0.133307 1452.27 0.0712471C1461.21 0.00918766 1470.01 2.27793 1477.81 6.65384C1542 42.7838 1645 134.784 1614.37 344.264C1613.63 349.236 1611.14 353.78 1607.35 357.08C1603.56 360.38 1598.72 362.218 1593.69 362.264L1592.53 362.314ZM1365.38 236.624C1418.14 303.464 1530.83 316.804 1575.01 319.454C1592.87 156.964 1521.5 79.7038 1457.07 43.3438C1455.67 42.5798 1454.1 42.1887 1452.51 42.2084C1450.92 42.2281 1449.36 42.6578 1447.99 43.4561C1446.61 44.2544 1445.46 45.3942 1444.66 46.7655C1443.85 48.1367 1443.41 49.693 1443.38 51.2838C1443.06 99.4738 1419.8 141.754 1400.38 168.724C1378.33 199.294 1369 224.424 1365.38 236.624Z" fill="#39005E"/>
<g opacity="0.2">
<g opacity="0.2">
<path opacity="0.2" d="M1598 245.834C1588.19 256.611 1576.5 265.512 1563.5 272.104C1537.39 285.504 1507.85 290.674 1478.57 293.464C1453.09 295.944 1427.3 296.734 1401.82 294.524C1378.71 281.014 1357.93 263.614 1342.58 241.194C1342.58 241.194 1348.27 204.954 1383.3 156.364C1405.24 125.924 1422.07 88.6839 1422.3 51.1239C1422.36 44.2486 1424.76 37.5983 1429.1 32.2675C1433.44 26.9366 1439.47 23.2427 1446.19 21.7939C1452.47 40.6125 1455.22 60.4265 1454.32 80.2439C1453.53 96.7039 1450.25 113.534 1454.95 129.304C1461.44 151.354 1483.01 166.654 1505.7 170.604C1531.02 174.984 1557.92 165.914 1576.38 148.134C1587.67 175.514 1595.59 207.794 1598 245.834Z" fill="#000072"/>
</g>
<g opacity="0.2">
<path opacity="0.2" d="M1022.23 241.194C952.699 342.894 771.229 341.194 771.229 341.194C761.229 272.674 766.069 217.544 779.359 173.394C785.789 182.204 793.809 189.394 803.939 193.594C835.279 206.364 871.299 182.204 885.759 151.594C900.219 120.984 899.76 85.8638 903.59 52.2638C904.766 41.7709 906.67 31.3725 909.289 21.1438C926.109 19.6138 942.289 32.6438 942.409 51.1438C942.679 88.7038 959.509 125.944 981.499 156.384C1016.53 204.914 1022.23 241.194 1022.23 241.194Z" fill="#000072"/>
</g>
</g>
<path d="M772.229 362.314H771.079C766.053 362.268 761.209 360.43 757.417 357.13C753.626 353.83 751.138 349.286 750.399 344.314C719.769 134.784 822.809 42.7838 886.999 6.58384C894.796 2.20792 903.598 -0.0608197 912.538 0.00123982C921.479 0.0632993 930.249 2.45401 937.984 6.93774C945.719 11.4215 952.152 17.8434 956.649 25.5707C961.146 33.2979 963.552 42.0636 963.629 51.0038C963.819 79.9238 976.269 113.004 998.629 144.004C1036.16 196.004 1042.8 236.164 1043.06 237.844C1043.89 243.155 1042.67 248.583 1039.64 253.024C966.859 359.604 789.839 362.314 772.229 362.314ZM912.089 42.1338C910.545 42.145 909.031 42.5623 907.699 43.3438C843.269 79.7038 771.899 156.964 789.699 319.454C833.869 316.804 946.569 303.454 999.339 236.624C995.739 224.424 986.389 199.294 964.339 168.724C944.889 141.724 921.639 99.4838 921.339 51.2838C921.346 49.6823 920.92 48.1086 920.107 46.7287C919.294 45.3489 918.123 44.214 916.719 43.4438C915.315 42.615 913.72 42.1637 912.089 42.1338V42.1338Z" fill="#000072"/>
<path d="M1592.53 362.314C1574.95 362.314 1397.92 359.604 1325.12 253.074C1322.1 248.638 1320.87 243.218 1321.7 237.914C1321.97 236.234 1328.6 196.124 1366.12 144.074C1388.54 112.984 1400.99 79.9338 1401.18 51.0738C1401.26 42.1336 1403.66 33.3679 1408.16 25.6407C1412.66 17.9134 1419.09 11.4915 1426.82 7.00775C1434.56 2.52402 1443.33 0.133307 1452.27 0.0712471C1461.21 0.00918766 1470.01 2.27793 1477.81 6.65384C1542 42.7838 1645 134.784 1614.37 344.264C1613.63 349.236 1611.14 353.78 1607.35 357.08C1603.56 360.38 1598.72 362.218 1593.69 362.264L1592.53 362.314ZM1365.38 236.624C1418.14 303.464 1530.83 316.804 1575.01 319.454C1592.87 156.964 1521.5 79.7038 1457.07 43.3438C1455.67 42.5798 1454.1 42.1887 1452.51 42.2084C1450.92 42.2281 1449.36 42.6578 1447.99 43.4561C1446.61 44.2544 1445.46 45.3942 1444.66 46.7655C1443.85 48.1367 1443.41 49.693 1443.38 51.2838C1443.06 99.4738 1419.8 141.754 1400.38 168.724C1378.33 199.294 1369 224.424 1365.38 236.624Z" fill="#000072"/>
<path d="M2131.12 631.184C2125.8 638.628 2119.19 645.062 2111.61 650.184C2048.73 693.494 1912.31 670.394 1870 631.184C1870 631.184 1927.66 760.054 1927.66 858.384C1927.66 956.564 2008.85 1037.9 2032.66 1179.96C2032.66 1180.17 2032.66 1180.33 2032.76 1180.54C2033.19 1182.97 2033.56 1185.45 2033.93 1187.98C2035.03 1195.26 2036.04 1202.98 2036.83 1210.98C2052.44 1363.91 2004.38 1643.33 1412.19 1665.49C1124.35 1676.25 904.999 1636.74 748.999 1560.83C746.629 1559.67 744.249 1558.51 741.879 1557.29C558.909 1465.91 465.319 1323.45 452.499 1153.43C428.769 838.024 567.819 644.744 567.819 644.744C567.819 644.744 289.709 743.074 191.379 654.914C178.769 643.574 173.499 628.594 174.709 611.074C176.879 579.474 200.189 539.654 239.119 498.924C346.259 386.724 571.939 266.974 801.779 288.654C801.779 288.654 816.919 279.264 844.719 265.924C946.899 216.924 1220.2 114.994 1543.47 231.214C1555.07 235.374 1566.68 239.804 1578.39 244.554C1578.39 244.554 1792.03 217.444 1971.76 332.754C2151.49 448.064 2178.6 563.344 2131.12 631.184Z" fill="white"/>
<path d="M1732.68 376.824C1732.68 376.824 1807.29 458.204 1837.81 536.204C1837.81 536.204 1996.4 612.504 2039.19 563.334C2081.98 514.164 1839.5 361.554 1732.68 376.824Z" fill="#FFABBC"/>
<path d="M1007.83 1056.77C1007.83 1056.77 717.059 1167.02 710.259 1424.77C708.879 1476.04 721.259 1519.93 741.849 1557.33C558.909 1465.91 465.329 1323.43 452.509 1153.41C428.769 838.014 567.829 644.734 567.829 644.734C567.829 644.734 289.719 743.064 191.389 654.914C93.0593 566.764 442.329 254.734 801.779 288.654C801.779 288.654 816.919 279.264 844.719 265.924C844.719 265.924 1164.66 275.094 1256.24 604.004C1347.82 932.914 1007.83 1056.77 1007.83 1056.77Z" fill="#515B72"/>
<g opacity="0.6">
<path opacity="0.6" d="M2131.12 631.184C2125.8 638.628 2119.19 645.062 2111.61 650.184C2169.26 537.684 2054.32 445.514 1967.96 387.594C1857.96 313.794 1718.34 300.184 1585.96 305.404C1348.1 195.304 1055.6 207.754 827.179 339.004C584.889 317.004 330.519 424.574 177.859 617.584C176.799 615.424 175.749 613.264 174.739 611.044C176.909 579.444 200.219 539.624 239.149 498.894C346.289 386.694 571.969 266.944 801.809 288.624C801.809 288.624 816.949 279.234 844.749 265.894C946.929 216.894 1220.23 114.964 1543.5 231.184C1555.1 235.344 1566.71 239.774 1578.42 244.524C1578.42 244.524 1792.06 217.414 1971.79 332.724C2151.52 448.034 2178.6 563.344 2131.12 631.184Z" fill="white"/>
</g>
<path d="M640.709 442.914C640.709 442.914 605.109 524.304 586.449 573.474C586.449 573.474 345.679 666.734 293.119 617.564C240.559 568.394 494.889 436.164 640.709 442.914Z" fill="#FFABBC"/>
<path d="M1320.36 1688.33C1082.96 1688.33 887.959 1651.92 739.739 1579.79C737.219 1578.56 734.739 1577.34 732.259 1576.08C549.419 1484.71 445.349 1339.08 431.469 1155C414.099 924.224 481.009 758.374 521.689 681.004C432.829 705.654 256.819 741.914 177.299 670.624C161.859 656.764 139.689 624.984 164.729 567.784C195.359 497.784 284.169 417.144 396.519 357.224C525.739 288.304 667.639 256.404 796.899 267.034C803.999 262.914 817.149 255.754 835.589 246.914C940.509 196.644 1220.16 92.5838 1550.59 211.374C1560.85 215.054 1571.17 218.964 1581.33 223.024C1617.51 219.414 1813.23 206.024 1983.14 315.024C2118.85 402.024 2159.52 482.024 2169.74 533.764C2177.74 574.094 2170.32 611.974 2148.4 643.304C2129.07 670.904 2093.81 688.154 2046.4 693.194C2002 697.914 1951 691.064 1910.65 676.914C1927.72 724.914 1948.77 796.644 1948.77 858.374C1948.77 903.844 1968.77 946.994 1991.77 996.964C2015.06 1047.32 2041.45 1104.4 2053.56 1177.06C2053.99 1179.53 2054.39 1182.2 2054.79 1184.93C2056.02 1193.01 2057.04 1201.12 2057.79 1208.93C2069.12 1319.87 2040.24 1418.64 1974.28 1494.48C1872.2 1611.85 1683.34 1676.48 1412.95 1686.6C1381.43 1687.76 1350.57 1688.33 1320.36 1688.33ZM567.819 623.624C571.707 623.617 575.52 624.683 578.84 626.706C582.16 628.728 584.856 631.627 586.633 635.085C588.41 638.542 589.198 642.423 588.909 646.299C588.621 650.176 587.268 653.897 584.999 657.054C583.669 658.904 450.769 848.584 473.589 1151.83C486.289 1320.28 582.329 1453.96 751.329 1538.41C753.749 1539.65 756.019 1540.76 758.329 1541.86C919.059 1620.08 1138.85 1654.56 1411.52 1644.39C1669.79 1634.73 1848.52 1574.96 1942.59 1466.74C2001.53 1398.97 2026.22 1313.64 2015.95 1213.11C2015.25 1205.99 2014.32 1198.63 2013.18 1191.11C2012.82 1188.64 2012.48 1186.36 2012.09 1184.11C2000.89 1116.91 1975.77 1062.57 1953.6 1014.63C1929.45 962.404 1906.6 913.084 1906.6 858.334C1906.6 765.754 1851.34 640.994 1850.78 639.744C1848.79 635.302 1848.4 630.31 1849.67 625.613C1850.94 620.915 1853.79 616.801 1857.75 613.968C1861.71 611.134 1866.52 609.755 1871.38 610.064C1876.23 610.373 1880.83 612.351 1884.4 615.664C1908.26 637.914 1978.85 657.914 2042 651.194C2076.38 647.544 2101.9 636.134 2113.85 619.074C2129.03 597.384 2134.05 570.704 2128.36 541.904C2116.16 480.134 2056.51 412.164 1960.36 350.524C1789.53 240.914 1583.1 265.234 1581 265.484C1577.42 265.947 1573.77 265.471 1570.43 264.104C1559.19 259.554 1547.71 255.164 1536.3 251.104C1220.88 137.654 953.999 236.984 853.839 284.914C827.619 297.504 813.029 306.474 812.839 306.574C808.927 308.996 804.33 310.07 799.749 309.634C676.749 298.034 540.619 328.144 416.329 394.434C313.529 449.264 229.929 523.934 203.329 584.674C192.329 609.744 193.059 628.084 205.419 639.174C278.419 704.634 486.659 650.994 560.729 624.804C563.008 624.01 565.406 623.611 567.819 623.624V623.624Z" fill="#000072"/>
<path d="M1412.23 1665.48C1124.36 1676.24 904.999 1636.73 748.999 1560.82C723.939 1519.25 710.279 1473.51 710.279 1424.72C710.279 1194.35 1014.65 984.034 1390.2 955.014C1689.04 931.914 1942.88 1030.61 2033.98 1188.01C2056 1333.77 2035.54 1642.16 1412.23 1665.48Z" fill="#FFABBC"/>
<g opacity="0.61">
<path opacity="0.61" d="M735.819 1540.43C693.909 1452.43 710.819 1344.18 761.819 1261.07C812.819 1177.96 893.689 1117.07 979.52 1070.82C1213.65 944.604 1499 917.004 1753 996.014C1827.87 1019.29 1901.83 1052.65 1956.8 1108.55C2011.77 1164.45 2044.94 1246.35 2027.03 1322.69C2056.43 1230.29 1958.03 1147.62 1873.28 1096.17C1665.7 970.174 1275.97 991.384 1027.08 1116.51C828.309 1216.46 732.229 1357.55 735.819 1540.43Z" fill="white"/>
</g>
<path d="M1320.37 1688.33C1082.97 1688.33 887.959 1651.92 739.739 1579.79C736.076 1578.01 733.009 1575.2 730.909 1571.71C703.199 1525.71 689.159 1476.3 689.159 1424.71C689.159 1306.15 763.159 1189.71 897.389 1096.99C1028.84 1006.17 1203.27 948.284 1388.55 933.994C1687.85 910.894 1954.55 1008.68 2052.22 1177.42C2053.54 1179.71 2054.43 1182.22 2054.82 1184.83C2067.23 1266.83 2064.31 1385.98 1979.97 1487.83C1879.28 1609.41 1688.53 1676.28 1413.02 1686.58C1381.45 1687.75 1350.57 1688.33 1320.37 1688.33ZM763.919 1544.59C924.169 1620.89 1142 1654.46 1411.44 1644.39C1674.44 1634.55 1854.78 1572.82 1947.44 1460.89C2020.44 1372.68 2024.08 1268.43 2013.66 1195.11C1922.24 1042.23 1673.12 954.254 1391.78 976.054C1027.61 1004.19 731.339 1205.46 731.339 1424.72C731.359 1466.53 742.309 1506.83 763.919 1544.59Z" fill="#000072"/>
<path d="M346.229 653.124C306.859 653.124 289.159 642.784 278.699 633.004C264.699 619.914 261.219 601.634 269.139 582.864C300.169 509.314 515.999 416.014 641.699 421.914C645.118 422.075 648.445 423.065 651.396 424.797C654.347 426.53 656.832 428.955 658.638 431.861C660.444 434.768 661.515 438.07 661.761 441.483C662.007 444.897 661.42 448.318 660.049 451.454C659.689 452.264 624.429 532.934 606.179 581.044C605.132 583.812 603.513 586.327 601.428 588.428C599.343 590.528 596.839 592.166 594.079 593.234C551.722 609.237 508.552 623.003 464.749 634.474C411.519 648.114 373.619 653.124 346.229 653.124ZM307.229 601.874L307.539 602.184C333.319 626.294 461.97 597.924 570.15 557.184C581.65 527.624 597.329 490.424 608.329 464.764C509.579 472.814 371.459 532.124 321.269 581.914C309.179 593.914 307.459 600.334 307.219 601.914L307.229 601.874Z" fill="#000072"/>
<path d="M1990.29 600.804C1927.73 600.804 1849 565.004 1828.66 555.214C1823.85 552.911 1820.1 548.864 1818.16 543.894C1789.47 470.574 1717.84 391.894 1717.16 391.074C1714.56 388.246 1712.78 384.762 1712.02 380.998C1711.25 377.234 1711.53 373.333 1712.82 369.715C1714.11 366.098 1716.36 362.9 1719.34 360.468C1722.31 358.036 1725.89 356.461 1729.69 355.914C1824.88 342.304 2017.39 447.914 2057.02 520.774C2072.81 549.774 2062.6 568.554 2055.11 577.164C2040.07 594.464 2016.61 600.804 1990.29 600.804ZM1854.23 520.594C1912.65 547.364 2001.77 573.524 2023.11 549.664C2023.18 546.774 2019.51 535.894 2001.34 517.544C1952.75 468.484 1851.45 413.754 1779.61 400.064C1803.33 430.354 1835 475.224 1854.23 520.594Z" fill="#000072"/>
<g opacity="0.2">
<path opacity="0.2" d="M456.379 971.404C456.669 968.964 456.919 966.474 457.229 964.064C453.963 1010.17 454.084 1056.45 457.589 1102.53C470.409 1272.53 563.999 1414.97 746.939 1506.39C749.309 1507.61 751.689 1508.77 754.059 1509.93C910.059 1585.84 1129.44 1625.35 1417.31 1614.59C1885.43 1597.07 2013.51 1418.81 2038.93 1269.34C2039.55 1249.87 2038.86 1230.37 2036.86 1210.98C2036.07 1202.98 2035.06 1195.26 2033.96 1187.98C2033.59 1185.45 2033.22 1182.98 2032.79 1180.54C2032.79 1180.33 2032.79 1180.17 2032.69 1179.96C1984.16 1274.81 1902.08 1348.13 1809.02 1395.61C1704.78 1448.78 1587.3 1471.61 1470.56 1478.43C1266.17 1490.22 1061.79 1455.05 873.099 1375.62C789.479 1340.33 707.189 1294.54 651.269 1223.11C561.119 1107.85 555.789 946.484 584.809 803.054C608.439 686.214 651.809 574.054 680.579 458.574C689.289 423.674 653.449 394.164 620.989 409.664C587.239 425.764 554.369 444.084 520.989 461.064C463.069 490.554 401.349 516.604 336.409 518.504C303.279 519.454 269.049 512.964 239.079 498.934C178.629 562.234 155.889 623.114 191.339 654.934C289.669 743.084 567.779 644.754 567.779 644.754C567.779 644.754 481.159 765.364 456.379 971.404Z" fill="#000072"/>
</g>
<path d="M1308.57 1104.78C1313.36 1084.5 1300.8 1064.18 1280.52 1059.4C1260.24 1054.61 1239.92 1067.17 1235.13 1087.45C1230.35 1107.73 1242.91 1128.05 1263.19 1132.84C1283.47 1137.63 1303.79 1125.06 1308.57 1104.78Z" fill="#000072"/>
<path d="M1592.44 1117.77C1610.2 1116.73 1623.59 1098.79 1622.35 1077.7C1621.11 1056.61 1605.71 1040.36 1587.96 1041.4C1570.21 1042.44 1556.82 1060.38 1558.06 1081.47C1559.3 1102.56 1574.69 1118.81 1592.44 1117.77Z" fill="#000072"/>
<path d="M1359.59 1387.66C1350.84 1387.65 1342.1 1387.12 1333.41 1386.05C1323.68 1384.89 1314.04 1383.11 1304.53 1380.73C1259.08 1369.44 1220.45 1347.19 1189.71 1314.59C1155.09 1277.83 1143.44 1240.83 1142.96 1239.27C1141.31 1233.92 1141.86 1228.14 1144.48 1223.2C1147.1 1218.25 1151.58 1214.55 1156.93 1212.9C1162.28 1211.26 1168.06 1211.81 1173.01 1214.43C1177.95 1217.05 1181.65 1221.52 1183.3 1226.87C1183.37 1227.07 1192.89 1256.41 1220.43 1285.65C1245.51 1312.25 1277.24 1330.47 1314.71 1339.77C1322.52 1341.73 1330.44 1343.19 1338.43 1344.15C1424.08 1354.51 1470.08 1298.7 1471.99 1296.32C1475.46 1291.93 1480.54 1289.1 1486.1 1288.46C1491.66 1287.81 1497.24 1289.4 1501.63 1292.87C1506.02 1296.34 1508.85 1301.42 1509.5 1306.98C1510.15 1312.54 1508.56 1318.12 1505.09 1322.51C1502.81 1325.39 1452.62 1387.66 1359.59 1387.66Z" fill="#000072"/>
<path d="M1255.1 1234.4C1241.5 1234.48 1227.72 1234.23 1214.96 1235.03C1202.2 1235.83 1189.96 1237.37 1179.35 1240.69C1168.74 1244.01 1159.79 1248.69 1152.17 1255.85C1144.29 1262.85 1137.93 1272.78 1131.17 1284.49L1130.78 1285.17C1129.57 1287.26 1127.72 1288.9 1125.5 1289.84C1123.28 1290.79 1120.81 1290.98 1118.47 1290.4C1116.13 1289.83 1114.04 1288.5 1112.51 1286.64C1110.99 1284.77 1110.11 1282.45 1110.01 1280.04C1109.68 1271.81 1110.69 1263.59 1113.01 1255.68C1115.41 1247.23 1119.33 1239.29 1124.58 1232.25C1135.12 1217.4 1152 1207.37 1168.58 1202.98C1185.33 1198.47 1201.96 1198.75 1217.42 1201.45C1232.96 1204.45 1247.29 1209.45 1260.74 1218.22C1262.32 1219.25 1263.53 1220.76 1264.18 1222.53C1264.84 1224.3 1264.91 1226.23 1264.38 1228.05C1263.86 1229.86 1262.76 1231.45 1261.26 1232.6C1259.76 1233.74 1257.94 1234.37 1256.05 1234.39L1255.1 1234.4Z" fill="#000072"/>
<path d="M1362.48 1610.09C1253.97 1499.31 1257.93 1393.09 1257.93 1393.09C1126.21 1524.18 1007.83 1557.3 1007.83 1557.3C1053.78 1422.47 1146.36 1340.65 1205.07 1300.14C1227.7 1324.14 1261.2 1348.25 1309.62 1360.27C1318.29 1362.45 1327.08 1364.07 1335.95 1365.13C1379.94 1471.56 1362.48 1610.09 1362.48 1610.09Z" fill="#98C45E"/>
<path d="M1362.48 1631.19C1359.67 1631.19 1356.89 1630.63 1354.3 1629.54C1351.72 1628.46 1349.37 1626.86 1347.41 1624.85C1276.41 1552.42 1250.93 1481.54 1241.81 1437.41C1120.73 1546.66 1018.17 1576.3 1013.52 1577.61C1009.82 1578.65 1005.9 1578.66 1002.2 1577.63C998.495 1576.6 995.141 1574.59 992.5 1571.79C989.859 1569 988.031 1565.54 987.213 1561.79C986.395 1558.03 986.618 1554.12 987.859 1550.48C1036.74 1407.02 1137.42 1321.16 1193.09 1282.75C1197.24 1279.89 1202.28 1278.6 1207.29 1279.13C1212.3 1279.66 1216.96 1281.97 1220.42 1285.64C1245.51 1312.25 1277.24 1330.47 1314.71 1339.78C1322.52 1341.73 1330.44 1343.19 1338.43 1344.15C1342.15 1344.6 1345.69 1346.03 1348.68 1348.29C1351.67 1350.56 1354 1353.58 1355.43 1357.04C1401.03 1467.39 1384.14 1606.84 1383.43 1612.72C1382.93 1616.66 1381.34 1620.38 1378.82 1623.45C1376.31 1626.52 1372.98 1628.82 1369.22 1630.08C1367.05 1630.82 1364.77 1631.2 1362.48 1631.19V1631.19ZM1257.93 1371.96C1260.77 1371.96 1263.57 1372.53 1266.19 1373.65C1268.8 1374.76 1271.16 1376.38 1273.13 1378.42C1275.09 1380.47 1276.63 1382.89 1277.64 1385.54C1278.65 1388.19 1279.12 1391.02 1279.01 1393.85C1279.01 1394.62 1277.82 1470.07 1344.59 1557.38C1345.52 1512.05 1342.36 1443.52 1320.72 1384.17C1315.35 1383.23 1309.94 1382.08 1304.54 1380.74C1265.39 1371.01 1231.31 1353.16 1202.98 1327.58C1156.91 1361.83 1089.37 1424.33 1045.55 1519.58C1090.28 1498.73 1164.39 1456.34 1243.04 1378.07C1247 1374.15 1252.35 1371.95 1257.93 1371.96V1371.96Z" fill="#000072"/>
<g opacity="0.2">
<path opacity="0.2" d="M2046.91 548.914C1982.41 443.794 1860.91 376.134 1737.63 376.634C1759.06 409.874 1782.63 444.964 1819.08 460.314C1837.81 468.204 1858.39 470.124 1878.41 473.594C1932.93 483.094 1985.3 504.764 2046.91 548.914Z" fill="#39005E"/>
</g>
<path d="M1143.32 844.546C1147.41 768.833 1104.78 704.976 1048.12 701.917C991.454 698.858 942.205 757.756 938.117 833.468C934.03 909.181 976.653 973.039 1033.32 976.098C1089.98 979.156 1139.23 920.259 1143.32 844.546Z" fill="#000072"/>
<path d="M1113.94 806.372C1115.56 776.36 1102.46 751.253 1084.67 750.293C1066.89 749.332 1051.16 772.883 1049.54 802.895C1047.92 832.907 1061.02 858.014 1078.81 858.974C1096.59 859.934 1112.32 836.384 1113.94 806.372Z" fill="white"/>
<g opacity="0.35">
<path opacity="0.35" d="M1009.9 929.616C1018.59 925.463 1018.15 906.453 1008.92 887.156C999.689 867.859 985.167 855.583 976.483 859.737C967.799 863.89 968.24 882.9 977.469 902.196C986.698 921.493 1001.22 933.769 1009.9 929.616Z" fill="white"/>
</g>
<path d="M1675.18 941.674C1731.85 938.615 1774.47 874.758 1770.38 799.045C1766.29 723.332 1717.05 664.434 1660.38 667.493C1603.72 670.552 1561.09 734.409 1565.18 810.122C1569.27 885.835 1618.52 944.733 1675.18 941.674Z" fill="#000072"/>
<path d="M1629.69 824.546C1647.48 823.585 1660.58 798.478 1658.96 768.466C1657.34 738.455 1641.61 714.904 1623.82 715.864C1606.04 716.824 1592.93 741.931 1594.55 771.943C1596.17 801.955 1611.91 825.506 1629.69 824.546Z" fill="white"/>
<g opacity="0.35">
<path opacity="0.35" d="M1730.88 867.592C1740.11 848.295 1740.55 829.285 1731.86 825.132C1723.18 820.979 1708.66 833.255 1699.43 852.551C1690.2 871.848 1689.76 890.858 1698.44 895.011C1707.13 899.165 1721.65 886.888 1730.88 867.592Z" fill="white"/>
</g>
<g opacity="0.2">
<path opacity="0.2" d="M632.919 2728.28C632.859 2737.41 632.489 2746.74 631.699 2756.28C631.699 2756.28 584.699 2688.5 521.449 2686.23C458.199 2683.96 415.259 2808.31 251.309 2656.91C251.309 2656.91 182.569 2664.5 120.309 2648.36C97.9058 2623.84 82.8917 2593.48 76.9992 2560.79C72.5692 2535.9 74.5792 2507.62 91.8292 2489.1C101.589 2478.55 115.089 2472.43 126.959 2464.31C138.829 2456.19 149.959 2444.31 150.279 2429.97C150.489 2420.53 146.279 2412.35 140.889 2404.38C159.592 2396.74 178.895 2390.66 198.599 2386.19C198.599 2386.19 236.049 2444.69 275.139 2475.19C275.139 2475.19 130.389 2504.19 121.319 2542.03C112.999 2576.99 238.599 2575.91 258.749 2575.51C263.229 2592.97 277.319 2607.8 293.829 2615.82C313.979 2625.68 337.139 2627.16 359.559 2627.1C381.979 2627.04 404.709 2625.57 426.659 2630.22C402.129 2608.91 389.099 2575.14 392.999 2542.91C410.569 2575.09 446.599 2592.29 481.409 2603.91C516.219 2615.53 553.259 2624.27 581.849 2647.27C607.439 2667.91 622.679 2696.74 632.919 2728.28Z" fill="#000072"/>
</g>
<path d="M2293.71 381.854C2268.8 341.192 2257.98 293.461 2262.91 246.034C2275.21 126.244 2382.28 39.1138 2502.07 51.4138C2621.86 63.7138 2709 170.784 2696.68 290.564C2684.36 410.344 2577.31 497.484 2457.53 485.184C2425.32 481.919 2394.26 471.494 2366.6 454.674L2265.71 477.304L2293.71 381.854Z" fill="white"/>
<g opacity="0.5">
<path opacity="0.5" d="M2497.78 93.1238C2385.89 81.6438 2285.11 156.924 2262.29 264.534C2262.25 256.766 2262.62 249.002 2263.4 241.274C2275.7 121.494 2382.77 34.3538 2502.55 46.6538C2622.33 58.9538 2709.47 166.024 2697.17 285.804C2696.37 293.567 2695.16 301.281 2693.53 308.914C2693.11 198.914 2609.71 104.624 2497.78 93.1238Z" fill="white"/>
</g>
<path d="M2480.24 505.534C2472 505.533 2463.77 505.109 2455.57 504.264C2423.16 501.011 2391.79 491.057 2363.43 475.034L2269.9 496.034C2266.64 496.764 2263.25 496.632 2260.07 495.65C2256.88 494.669 2254 492.872 2251.72 490.438C2249.44 488.004 2247.83 485.017 2247.06 481.772C2246.28 478.526 2246.37 475.135 2247.31 471.934L2272.97 384.434C2251.69 346.545 2241.23 303.538 2242.72 260.108C2244.22 216.678 2257.62 174.494 2281.46 138.162C2305.3 101.829 2338.67 72.7437 2377.91 54.081C2417.15 35.4183 2460.77 27.8955 2504 32.3339C2634.12 45.6939 2729.1 162.424 2715.74 292.524C2709.74 350.856 2682.36 404.901 2638.87 444.234C2595.38 483.567 2538.86 505.401 2480.22 505.524L2480.24 505.534ZM2366.6 435.534C2370.13 435.528 2373.59 436.493 2376.6 438.324C2405.28 455.733 2437.9 465.601 2471.42 467.011C2504.94 468.422 2538.28 461.327 2568.32 446.389C2598.36 431.451 2624.14 409.154 2643.24 381.574C2662.35 353.995 2674.17 322.03 2677.6 288.654C2688.81 179.574 2609.18 81.7339 2500.11 70.5339C2463.27 66.7514 2426.1 73.3356 2392.8 89.5444C2359.5 105.753 2331.38 130.942 2311.63 162.271C2291.88 193.601 2281.27 229.825 2281 266.861C2280.73 303.896 2290.81 340.271 2310.11 371.884C2311.5 374.17 2312.39 376.721 2312.74 379.373C2313.08 382.025 2312.87 384.719 2312.11 387.284L2293.27 451.504L2362.41 436.004C2363.78 435.676 2365.19 435.505 2366.6 435.494V435.534Z" fill="#000072"/>
<g opacity="0.3">
<path opacity="0.3" d="M2292.48 379.754C2322.93 405.605 2359.11 423.832 2398.01 432.926C2436.9 442.021 2477.41 441.722 2516.17 432.054C2606.77 409.504 2673.53 340.514 2697.54 256.774C2698.12 268.043 2697.83 279.339 2696.68 290.564C2684.38 410.354 2577.31 497.484 2457.53 485.184C2425.33 481.92 2394.26 471.496 2366.61 454.674L2265.71 477.304L2293.71 381.854C2293.28 381.164 2292.9 380.454 2292.48 379.754Z" fill="#000072"/>
</g>
<path d="M2410.08 207.074C2428.95 188.204 2459.54 191.594 2478.41 210.454L2481.35 213.394L2484.28 210.454C2503.15 191.594 2533.74 188.204 2552.61 207.074C2557.1 211.56 2560.66 216.886 2563.08 222.748C2565.51 228.61 2566.76 234.894 2566.76 241.239C2566.76 247.584 2565.51 253.867 2563.08 259.729C2560.66 265.591 2557.1 270.918 2552.61 275.404L2549.67 278.344L2490.35 337.664C2487.96 340.048 2484.72 341.387 2481.35 341.387C2477.97 341.387 2474.74 340.048 2472.35 337.664L2413 278.344L2410.06 275.404C2405.57 270.916 2402.02 265.589 2399.59 259.726C2397.16 253.863 2395.91 247.58 2395.92 241.235C2395.92 234.889 2397.17 228.607 2399.6 222.745C2402.03 216.884 2405.59 211.559 2410.08 207.074V207.074Z" fill="#FF0068"/>
</svg>
