<svg width="225" height="66" viewBox="0 0 225 66" fill="none" xmlns="http://www.w3.org/2000/svg">
<path d="M63.1336 61.7077C62.4302 63.0598 56.1428 63.1891 54.6384 61.3324C54.6155 61.3069 54.5942 61.28 54.5748 61.2518C54.5748 61.2518 51.3039 63.9705 47.1104 62.7247C47.1104 62.7247 44.4175 64.7898 37.2613 62.507C34.1185 61.5039 31.7689 60.2915 30.1964 58.719C28.5998 57.1253 27.8003 55.1596 27.7776 52.6659C27.7735 51.9859 27.819 51.3064 27.9137 50.6329C27.9459 50.3961 27.9891 50.1546 28.0453 49.9083C28.7144 46.9254 31.0663 43.2193 34.3109 39.8524C36.5131 37.5647 39.1281 35.4345 41.9061 33.7919C46.6577 30.9861 51.889 29.6108 56.3606 31.3349C60.9063 33.0873 62.619 38.2832 62.698 43.0941C62.7002 43.2007 62.7016 43.306 62.7016 43.4115C62.705 44.4907 62.6245 45.5686 62.4609 46.6357C62.4609 46.6357 62.2907 52.1173 62.7025 53.9435C62.9119 54.8708 63.2016 56.5024 63.3453 58.0667C63.4852 59.5822 63.4852 61.0327 63.1336 61.7077Z" fill="white"/>
<path d="M47.111 62.7247C47.0222 62.7878 46.9286 62.844 46.8311 62.8929C46.7927 62.9119 46.7508 62.9333 46.704 62.9546C46.5223 63.0403 46.3353 63.1146 46.1441 63.177C46.1177 63.1853 46.0901 63.1948 46.0626 63.2031C46.0243 63.215 45.9859 63.228 45.9453 63.2399C45.515 63.365 45.0748 63.4537 44.6294 63.5052C44.5684 63.5121 44.5062 63.5193 44.4415 63.5252C44.3912 63.5312 44.3399 63.5359 44.287 63.5395C44.1123 63.5548 43.9292 63.5667 43.7355 63.5737C43.6744 63.5761 43.6134 63.5786 43.5499 63.5797C43.4194 63.582 43.2853 63.582 43.1465 63.5808C43.1011 63.5808 43.0544 63.5797 43.009 63.5786C42.9754 63.5786 42.9409 63.5772 42.9082 63.5761C42.8438 63.575 42.7778 63.5725 42.7109 63.5692C42.4558 63.5584 42.189 63.5407 41.9077 63.5133C41.8575 63.5086 41.8072 63.5038 41.7557 63.498C41.721 63.4944 41.6851 63.4908 41.6493 63.4861C41.5726 63.4778 41.4948 63.4684 41.4172 63.459C41.1826 63.429 40.9396 63.3935 40.6882 63.3523C40.6188 63.3418 40.5505 63.3299 40.4799 63.3169C40.4631 63.3133 40.4463 63.3108 40.4298 63.3074C40.3458 63.2931 40.2596 63.2765 40.1736 63.2601C39.1889 63.0669 38.2169 62.8155 37.2627 62.507C34.1199 61.5039 31.7703 60.2916 30.1978 58.719L34.0698 50.3535C35.6843 49.6998 36.9902 49.7025 38.0266 50.0266C40.4491 50.7833 41.4054 53.2971 41.4054 53.2971L41.4734 53.2605C42.0552 52.9619 43.3566 52.7406 44.5997 53.1384C45.3838 53.3895 46.1461 53.8878 46.6884 54.7689C48.1236 57.1028 47.111 62.7247 47.111 62.7247Z" fill="white"/>
<path d="M53.0369 60.3758C53.0369 60.3758 50.6406 47.833 56.3626 48.1201C61.411 48.3742 58.9999 56.6459 53.0369 60.3758Z" fill="#FFABBC"/>
<path d="M53.353 47.0781C53.353 47.0781 52.6313 51.3171 53.353 53.9813C53.645 55.0587 54.0207 56.0486 54.3152 57.0102C54.7509 58.4243 55.0118 59.7774 54.5762 61.2525C54.5762 61.2525 51.3052 63.9712 47.1117 62.7255C47.1117 62.7255 45.9162 61.6658 44.9109 58.4333C44.5842 57.3805 44.2768 56.0989 44.0374 54.5458C43.3878 50.3378 44.9953 45.9895 44.9953 45.9895" fill="white"/>
<path d="M36.4898 37.7649C38.163 36.2801 39.9953 34.9207 41.9055 33.7935C41.6446 34.4186 41.4567 35.065 41.4567 35.6381C41.4567 37.5397 42.4598 41.6474 41.4567 42.7168C41.1599 43.0328 40.8164 43.2081 40.4418 43.3228C39.5513 43.5951 38.4838 43.5217 37.4556 44.1648C35.9931 45.0765 36.2935 46.2487 35.3002 46.637C34.1715 47.0799 32.8383 46.1894 31.8377 47.0787C30.8372 47.9681 31.3254 49.3391 30.1967 50.1763C29.6068 50.612 28.7403 50.3032 28.0449 49.9088C28.7569 46.7355 31.3722 42.7439 34.9399 39.214C35.2954 38.86 35.6604 38.5126 36.0351 38.1721C36.1857 38.036 36.3366 37.8998 36.4898 37.7649Z" fill="#515B72"/>
<path d="M63.135 61.7077C62.4316 63.0598 56.144 63.1891 54.6395 61.3321C54.8923 60.2689 54.8 59.1831 54.8 59.1831L56.9281 56.732C61.7657 56.3165 63.3036 58.0191 63.3455 58.0664C63.4855 59.5822 63.4855 61.0327 63.135 61.7077Z" fill="#515B72"/>
<path d="M54.5762 61.2518C54.5762 61.2518 51.3053 63.9705 47.1118 62.7247C47.1118 62.7247 45.9163 61.665 44.911 58.4325C48.2133 55.8038 54.3135 57.0067 54.3135 57.0067L54.316 57.0103C54.7509 58.4249 55.0114 59.7775 54.5762 61.2518Z" fill="#515B72"/>
<path d="M47.1113 62.7247C47.1113 62.7247 46.1899 63.4315 43.9924 63.562C43.3317 63.601 42.555 63.588 41.6525 63.4872C41.6521 63.4868 41.6515 63.4864 41.6509 63.4863C41.6503 63.4861 41.6497 63.486 41.6491 63.4861C39.9579 63.0937 38.0705 61.7081 38.2631 58.2453C38.4639 54.6315 41.4047 53.2982 41.4047 53.2982L41.4728 53.2616C42.0545 52.963 43.3559 52.7417 44.599 53.1395C45.3829 53.3904 46.1453 53.8889 46.6864 54.77C48.1239 57.1026 47.1113 62.7247 47.1113 62.7247Z" fill="#515B72"/>
<path d="M38.828 65.5262C38.828 65.5262 37.7617 64.0046 36.3266 63.955C34.8916 63.9054 33.9174 66.695 30.1974 63.2953C30.1209 61.8235 30.4272 61.4684 30.4272 61.4684L30.4286 61.4673C30.4751 61.3986 32.0551 59.105 34.5313 59.3465C37.0447 59.5892 39.1237 61.8733 38.828 65.5262Z" fill="#515B72"/>
<g opacity="0.06">
<path d="M41.4571 35.6381C41.4571 37.5397 42.4602 41.6474 41.4571 42.7167C41.1604 43.0328 40.8169 43.2081 40.4423 43.3228C37.9048 42.4348 35.7973 41.2458 34.3119 39.8546C34.5179 39.6402 34.7277 39.427 34.9415 39.2151C35.2981 38.8636 35.6632 38.5163 36.0366 38.1731C36.1862 38.0371 36.337 37.9009 36.4904 37.766C38.1648 36.2845 39.9971 34.924 41.9061 33.7945C41.645 34.4186 41.4571 35.065 41.4571 35.6381Z" fill="#000072"/>
<path d="M63.1359 61.7081C62.4325 63.0605 56.1449 63.1895 54.6407 61.3328C54.6176 61.3074 54.5964 61.2805 54.5771 61.2522C54.5771 61.2522 51.3061 63.9709 47.1127 62.7253C47.1127 62.7253 44.4195 64.7904 37.2636 62.5074C34.1206 61.5045 31.7712 60.2919 30.1985 58.7196C28.6019 57.1259 27.8026 55.1603 27.7797 52.6665C27.8264 52.4734 27.8779 52.2829 27.9342 52.0921C28.0358 53.8921 29.4566 55.5039 31.2135 55.9843C32.9705 56.4646 34.9476 55.8646 36.239 54.5926C37.5304 53.3206 38.1448 51.449 38.0117 49.6504C38.6376 49.9523 39.2595 50.2636 39.8787 50.5727C39.2384 50.0304 38.4629 49.6468 37.6325 49.5011C39.6037 47.8066 42.1589 46.7885 44.768 46.6581C44.0214 48.4442 43.6593 50.3647 43.7049 52.297C44.4887 52.5848 45.2883 52.8252 46.1116 52.985C49.5072 53.6445 53.1625 52.8665 55.9833 50.8845C57.6314 49.7262 58.9816 48.1658 59.9164 46.3919C60.4788 45.3239 59.5466 44.0936 58.3531 44.3376C56.1569 44.7865 53.7656 45.0334 51.2619 45.0334C47.2535 45.0334 43.5302 44.4022 40.4423 43.3234C40.8169 43.2099 41.1604 43.0346 41.4571 42.7174C42.4602 41.6481 41.4571 37.5404 41.4571 35.6387C41.4571 35.0657 41.645 34.4192 41.9059 33.7941H41.9073C46.6587 30.9883 51.8901 29.613 56.3616 31.3371C60.9072 33.0895 62.6199 38.2851 62.6989 43.0963C62.6081 43.1306 62.5135 43.1636 62.4214 43.198C62.5146 43.2691 62.6093 43.3401 62.7025 43.4135C62.706 44.4928 62.6256 45.5707 62.462 46.6379C62.462 46.6379 62.4116 48.2612 62.4321 50.036C62.3735 49.5305 62.3097 49.0202 62.2406 48.5052C61.1107 50.5737 59.9804 52.6422 58.8498 54.7109C58.2694 55.773 57.6877 56.8386 57.2162 57.9528C56.8305 58.8635 56.5664 60.0309 57.2616 60.7391C57.6614 61.1487 58.3327 61.2659 58.8512 61.0196C59.3696 60.7734 59.6936 60.179 59.6208 59.6154C59.6608 59.8943 59.7717 60.1585 59.9431 60.3834C60.1145 60.6083 60.3407 60.7865 60.6007 60.9014C60.8606 61.0162 61.1458 61.064 61.4294 61.0401C61.7131 61.0163 61.986 60.9217 62.2226 60.7651C62.7182 60.4372 63.0054 59.8672 63.1154 59.2875C63.2255 58.7077 63.179 58.1128 63.1322 57.5254C63.0664 56.7084 63.0006 55.8927 62.9312 55.072C63.09 55.9475 63.2507 57.0233 63.3464 58.0677C63.4864 59.5826 63.4864 61.0331 63.1359 61.7081Z" fill="#000072"/>
<path d="M47.1117 62.7249C47.0229 62.788 46.9293 62.8442 46.8318 62.893C46.7934 62.9121 46.7514 62.9334 46.7047 62.9548C46.523 63.0405 46.3359 63.1148 46.1448 63.1772C46.1184 63.1855 46.0908 63.1949 46.0633 63.2032C46.025 63.2151 45.9866 63.2281 45.946 63.24C45.5157 63.3651 45.0755 63.4539 44.6301 63.5054C44.5691 63.5123 44.5069 63.5195 44.4422 63.5253C44.3919 63.5314 44.3406 63.5361 44.2877 63.5397C44.113 63.555 43.9299 63.5669 43.7362 63.5738C43.6751 63.5763 43.6141 63.5788 43.5506 63.5799C43.4201 63.5821 43.286 63.5821 43.1472 63.581C43.1018 63.581 43.0551 63.5799 43.0097 63.5788C42.9761 63.5788 42.9416 63.5774 42.9089 63.5763C42.8445 63.5752 42.7785 63.5727 42.7116 63.5693C42.4565 63.5586 42.1897 63.5408 41.9084 63.5134C41.8582 63.5087 41.8079 63.504 41.7564 63.4982C41.7217 63.4946 41.6858 63.491 41.65 63.4863C41.5733 63.478 41.4955 63.4685 41.4179 63.4591C41.1833 63.4292 40.9403 63.3937 40.6889 63.3525C40.6195 63.3419 40.5512 63.3301 40.4806 63.317C40.4638 63.3134 40.447 63.311 40.4305 63.3076C40.3465 63.2932 40.2603 63.2766 40.1743 63.2602C39.1896 63.0671 38.2176 62.8156 37.2634 62.5072C34.1206 61.504 31.771 60.2917 30.1985 58.7191L31.4386 56.0384C33.1371 56.4126 35.0018 55.8099 36.2381 54.5915C37.4406 53.4074 38.055 51.7058 38.0262 50.0268C40.4486 50.7835 41.4049 53.2972 41.4049 53.2972L41.473 53.2606C41.637 53.1765 41.8573 53.0984 42.1183 53.0391C40.8652 53.4773 39.7605 54.3298 39.0472 55.4409C38.5671 56.1892 38.2583 57.1212 38.5371 57.9629C38.8094 58.7824 39.5642 59.3342 40.2762 59.8316C40.1198 58.9345 40.2194 58.0121 40.5636 57.1679C40.462 58.1908 41.0244 59.221 41.8796 59.8035C42.7347 60.386 43.8437 60.5472 44.8658 60.3588C45.536 60.2345 46.1967 59.9564 46.6659 59.4661C47.117 58.9972 47.3479 58.3851 47.4282 57.7378C47.5784 60.133 47.1117 62.7249 47.1117 62.7249Z" fill="#000072"/>
<path d="M45.0834 45.912C44.8917 47.4235 44.7 48.9496 44.8422 50.4665C44.9845 51.9835 45.4904 53.5116 46.5339 54.6321C47.033 55.1677 47.652 55.6025 48.3489 55.8348C50.1148 56.4231 52.2577 55.4788 52.9969 53.7868C53.3259 54.7954 53.6549 55.8039 53.984 56.8123C52.4487 56.56 50.8829 56.5473 49.3436 56.7748C49.0126 56.824 48.6745 56.8871 48.3882 57.0592C47.9158 57.3427 47.6565 57.8819 47.5471 58.4177C47.3865 59.2033 47.5145 60.0733 48.0236 60.696C48.5327 61.3186 49.4607 61.623 50.2001 61.2957C50.9395 60.9685 51.3173 59.9553 50.866 59.2897C51.3368 60.0347 52.4732 60.1766 53.2256 59.7104C53.9779 59.2442 54.353 58.323 54.3471 57.4444C54.5576 58.0639 54.7697 58.6904 54.8308 59.3413C54.8918 59.9923 54.7884 60.6796 54.4133 61.2179C54.0174 61.7862 53.3681 62.1272 52.7189 62.3808C50.6186 63.1947 48.3083 63.3136 46.1339 62.7197C45.5002 62.5449 44.8558 62.2912 44.4295 61.7958C44.0182 61.3177 43.8634 60.6785 43.7525 60.0605C43.2366 57.1811 43.3931 54.2274 43.6731 51.315C43.8492 49.4863 44.0928 47.601 45.0834 45.912Z" fill="#000072"/>
<path d="M38.8559 64.8977C38.8545 65.1026 38.8461 65.3121 38.8282 65.5262C38.8282 65.5262 37.7619 64.0048 36.3268 63.9538C34.8918 63.9029 33.9175 66.6941 30.1978 63.2957C30.1978 63.2957 28.6382 63.4661 27.2256 63.1038C26.7173 62.5533 26.3767 61.8719 26.243 61.1382C26.1425 60.5795 26.1881 59.9447 26.5794 59.529C26.8009 59.2922 27.1072 59.1548 27.3765 58.9726C27.6458 58.7903 27.8983 58.5236 27.9056 58.2018C27.9103 57.9899 27.8148 57.8062 27.6925 57.6273C28.1169 57.4558 28.5548 57.3193 29.0019 57.2191C29.0019 57.2191 29.8516 58.5322 30.7385 59.2168C30.7385 59.2168 27.4543 59.8677 27.2485 60.7171C27.0598 61.5018 29.9094 61.4776 30.3666 61.4686C30.4682 61.8605 30.7879 62.1934 31.1625 62.3734C31.6197 62.5947 32.1451 62.6279 32.6538 62.6266C33.1625 62.6252 33.6782 62.5922 34.1762 62.6966C33.6196 62.2183 33.324 61.4603 33.4125 60.7368C33.8111 61.4592 34.6286 61.8452 35.4184 62.1061C36.2082 62.3669 37.0485 62.5631 37.6972 63.0793C38.2778 63.5426 38.6236 64.1897 38.8559 64.8977Z" fill="#000072"/>
</g>
<path d="M30.1916 63.2965V62.8019L30.7134 61.1633L32.0549 59.955C31.0465 60.5711 30.4578 61.426 30.4295 61.4675L30.4284 61.4686H30.3674C29.9102 61.4776 27.0606 61.5018 27.2491 60.7182C27.4549 59.8689 30.739 59.2179 30.739 59.2179C29.8521 58.5333 29.0024 57.2202 29.0024 57.2202C28.5554 57.3204 28.1174 57.457 27.6931 57.6285C26.5814 58.0738 25.1416 58.9241 24.9932 60.3768C24.8244 62.037 25.9674 62.7817 27.2264 63.1038C28.5839 63.452 30.0771 63.3082 30.1916 63.2965Z" fill="white"/>
<path d="M32.3394 59.7941H35.6368L37.9716 61.5023C37.1754 60.237 35.9201 59.4808 34.5323 59.3468C33.6889 59.2645 32.9496 59.4763 32.3394 59.7941Z" fill="white"/>
<path d="M38.558 62.7837C38.642 63.1723 38.729 63.5789 38.803 63.9331C38.7533 63.5259 38.6704 63.1423 38.558 62.7837Z" fill="white"/>
<g opacity="0.6">
<path d="M47.3586 57.1782C49.1233 56.7344 50.9519 56.593 52.765 56.7603C53.1053 56.7917 53.4549 56.8377 53.7463 57.0133C54.237 57.3087 54.4534 57.9046 54.5261 58.4685C54.5987 59.0323 54.5648 59.6132 54.7187 60.1598C54.59 59.1897 54.3312 58.2049 53.4522 57.7558C52.5733 57.3066 50.8394 57.5048 49.8554 57.6038C48.8714 57.7028 47.8695 57.963 47.2288 58.1235C47.2517 57.8092 47.2755 57.495 47.3586 57.1782Z" fill="white"/>
<path d="M56.7663 56.8615C58.936 56.29 61.3493 56.7013 63.1871 57.976C63.2567 58.7452 63.2065 59.5205 63.0383 60.2747C62.8602 59.5706 62.9368 58.8709 62.3576 58.426C61.0769 57.4424 58.2944 57.2577 56.4432 57.0806C56.5657 57.0171 56.6873 56.9533 56.7663 56.8615Z" fill="white"/>
<path d="M38.4232 59.0958C38.761 56.941 40.204 54.9848 42.1754 54.0093C40.9457 55.3275 40.2496 57.1199 40.2696 58.9136C40.6915 57.4855 41.4737 56.187 42.5425 55.1403C43.031 54.6631 43.6161 54.2259 44.2986 54.1527C45.0103 54.0766 45.7177 54.4196 46.2271 54.9172C46.7365 55.4149 47.0772 56.0541 47.3842 56.6941C47.5378 55.0205 46.2359 53.3992 44.5954 52.9642C42.9548 52.5292 41.1299 53.1785 39.9669 54.4023C38.8039 55.6261 38.2596 57.3455 38.4232 59.0958Z" fill="white"/>
<path d="M30.3809 62.3723C30.9481 61.5827 31.709 60.9113 32.6141 60.54C33.5191 60.1688 34.5748 60.1171 35.4764 60.4965C36.1537 60.7815 36.7141 61.2891 37.176 61.8558C37.9773 62.8415 38.5121 64.0125 38.7302 65.2589C38.8007 63.8814 38.541 62.4596 37.802 61.2899C37.063 60.1203 35.8075 59.235 34.4185 59.1167C33.4384 59.0373 32.4641 59.3274 31.6911 59.9288C30.9295 60.5279 30.411 61.4208 30.3809 62.3723Z" fill="white"/>
</g>
<path fill-rule="evenodd" clip-rule="evenodd" d="M41.5995 63.9578C42.1604 64.0216 42.7245 64.0542 43.2891 64.0557C43.3829 64.0557 43.4759 64.0548 43.568 64.0529C43.7149 64.0499 43.8597 64.0444 44.0023 64.0364C44.0059 64.0363 44.0095 64.0363 44.0131 64.0362C44.016 64.0362 44.0188 64.0361 44.0217 64.0359C45.7652 63.9325 46.7759 63.4739 47.188 63.239C47.8963 63.4306 48.6276 63.528 49.3625 63.5284C49.8748 63.5284 50.3626 63.481 50.8209 63.4012C50.8354 63.4129 50.8506 63.4239 50.8664 63.4342C50.9398 63.4819 51.0237 63.5113 51.1111 63.52C51.1985 63.5286 51.2867 63.5162 51.3682 63.4839C51.4497 63.4515 51.5221 63.4001 51.5792 63.3341C51.6109 63.2973 51.6374 63.2567 51.6581 63.2133C53.5682 62.6881 54.8005 61.6843 54.8853 61.6138C54.9576 61.5536 55.0104 61.4736 55.0369 61.3839C55.5231 59.7433 55.1973 58.2459 54.7744 56.8722C54.7599 56.8262 54.7387 56.7825 54.7115 56.7425C54.6409 56.6387 54.5318 56.5667 54.4077 56.5422C54.2188 56.5056 50.8994 55.8718 47.7858 56.6075C47.66 55.816 47.4443 55.0869 47.0971 54.5227C46.6169 53.7343 45.8899 53.1263 45.0305 52.788C44.9375 52.7514 44.843 52.7179 44.747 52.6878L44.7464 52.6875C43.6534 52.3379 42.4532 52.4105 41.6461 52.6782C41.2655 51.9374 40.3396 50.4798 38.6652 49.7583C37.2547 49.1496 35.6474 49.2027 33.8884 49.9154C33.8302 49.939 33.7773 49.9737 33.7326 50.0175C33.688 50.0613 33.6525 50.1134 33.6282 50.1708C33.6039 50.2282 33.5913 50.2897 33.5911 50.3519C33.5908 50.4141 33.603 50.4758 33.6268 50.5334C33.6506 50.5909 33.6857 50.6433 33.73 50.6875C33.7743 50.7316 33.8269 50.7667 33.8849 50.7908C33.9429 50.8148 34.0051 50.8273 34.068 50.8275C34.1309 50.8278 34.1932 50.8158 34.2514 50.7922C35.7586 50.1814 37.1124 50.1246 38.275 50.6231C39.6641 51.2189 40.4605 52.474 40.7848 53.0972C39.9058 53.6388 37.9546 55.175 37.7856 58.2181C37.6688 60.319 38.2648 61.664 39.0476 62.5241C38.7979 62.4614 38.5452 62.3938 38.2896 62.3213L38.6083 62.9589L38.6389 63.3985C39.6663 63.6639 40.648 63.85 41.5718 63.954C41.5738 63.9543 41.5758 63.9547 41.5778 63.9551C41.5813 63.9558 41.5848 63.9564 41.5884 63.9569C41.5895 63.9571 41.5907 63.9572 41.5918 63.9574L41.5934 63.9575C41.5954 63.9577 41.5974 63.9578 41.5995 63.9578ZM47.6531 62.3787C48.8372 62.6588 49.939 62.6087 50.8905 62.4105L50.8932 62.4008L50.8963 62.3898C50.8982 62.383 50.9 62.3763 50.9019 62.3695C50.9208 62.3022 50.9376 62.2306 50.9528 62.1594C50.9823 62.0164 51.0081 61.8699 51.024 61.7213C51.0589 61.4203 51.0715 61.1172 51.0619 60.8144C51.0467 60.5096 51.0229 60.201 50.9657 59.8957C50.9515 59.7922 50.9286 59.6905 50.9056 59.5885C50.8943 59.5384 50.883 59.4882 50.8727 59.4376C50.8495 59.3396 50.8224 59.2424 50.7951 59.1449C50.7801 59.0912 50.765 59.0374 50.7506 58.9833L50.7481 58.9732C50.7389 58.9383 50.7432 58.9012 50.7602 58.8693C50.7772 58.8374 50.8057 58.8129 50.84 58.8007C50.8744 58.7886 50.9121 58.7896 50.9457 58.8035C50.9793 58.8175 51.0065 58.8434 51.0217 58.8762C51.0466 58.9302 51.0724 58.9841 51.0982 59.0381L51.0983 59.0384C51.143 59.1319 51.1878 59.2257 51.2289 59.3211C51.2483 59.3706 51.2688 59.42 51.2894 59.4694C51.332 59.572 51.3748 59.6749 51.4088 59.7808C51.5245 60.0908 51.608 60.4124 51.6811 60.739C51.7498 61.0697 51.7942 61.4049 51.814 61.7419C51.823 61.8796 51.825 62.0185 51.8227 62.1588C53.0217 61.7602 53.866 61.1882 54.1575 60.9738C54.4701 59.7902 54.3066 58.6816 53.9404 57.4239C53.0762 57.2894 50.3592 56.9525 47.8946 57.5598C47.9036 57.6795 47.911 57.7996 47.917 57.9198C47.9543 58.6715 47.936 59.4292 47.8931 60.1165C47.833 61.0783 47.7247 61.9022 47.6531 62.3787ZM42.4494 53.4571C42.1322 53.5095 41.8684 53.5918 41.6939 53.6812L41.6362 53.7122C41.6224 53.7197 41.6082 53.7266 41.5938 53.7327C41.375 53.837 38.9201 55.0782 38.7428 58.2697C38.5607 61.5261 40.2965 62.6043 41.5131 62.9603C40.5485 62.1109 39.8312 60.7271 39.823 58.6672C39.8166 57.05 40.392 55.5158 41.4432 54.3474C41.7508 54.0054 42.0923 53.7053 42.4494 53.4571ZM44.5351 53.617V53.6173C43.0037 53.718 40.7689 55.7335 40.7807 58.6634C40.7924 61.6362 42.5114 62.9004 43.9999 63.0866C45.5036 62.993 46.3545 62.6126 46.6744 62.4378C46.7217 62.1362 46.8104 61.5254 46.8804 60.7659C46.9572 59.932 47.0115 58.9187 46.964 57.9383C46.9095 56.8144 46.7212 55.7337 46.2794 55.0159C46.1462 54.7992 45.9948 54.6034 45.8258 54.429C45.4712 54.0633 45.0391 53.7917 44.5351 53.617Z" fill="#000072"/>
<path d="M31.351 60.2913L32.0513 59.7491L32.2109 59.7254C31.5677 59.3044 31.0116 58.8585 30.5382 58.3855C30.4489 58.2962 30.3274 58.2457 30.2005 58.245C30.0735 58.2443 29.9515 58.2936 29.8612 58.3819C29.7709 58.4703 29.7198 58.5905 29.7192 58.7161C29.7185 58.8417 29.7683 58.9624 29.8576 59.0517C30.2928 59.487 30.7897 59.8997 31.351 60.2913Z" fill="#000072"/>
<path d="M38.8286 66C38.7513 66 38.6752 65.9815 38.6068 65.9461C38.5384 65.9107 38.4796 65.8594 38.4356 65.7966C38.4261 65.7834 37.4843 64.4687 36.3099 64.4274C36.0395 64.4139 35.7336 64.5962 35.3797 64.8029C34.3079 65.4276 32.8474 66.279 30.0314 63.7841C29.247 63.8393 26.6034 63.9172 25.2752 62.6157C24.676 62.0292 24.4205 61.2595 24.5154 60.328C24.791 57.6145 28.7388 56.7885 28.9056 56.7546C29.0003 56.7354 29.0987 56.745 29.1878 56.7823C29.2769 56.8195 29.3525 56.8825 29.4047 56.9631C29.4127 56.9757 30.2215 58.2176 31.0331 58.8441C31.1052 58.8999 31.1596 58.9751 31.1899 59.0606C31.2202 59.1461 31.225 59.2384 31.2039 59.3266C31.1828 59.4147 31.1365 59.4951 31.0707 59.558C31.0048 59.621 30.9221 59.6639 30.8323 59.6818C29.4859 59.9487 28.1423 60.4239 27.7891 60.7413C28.1521 60.9006 29.1565 61.0106 30.1836 60.9985C30.666 60.3877 32.258 58.6472 34.5792 58.874C37.1768 59.126 39.6347 61.5051 39.3061 65.563C39.2965 65.6815 39.2421 65.7921 39.1539 65.8728C39.0656 65.9536 38.9499 65.9986 38.8297 65.9989L38.8286 66ZM30.1977 62.8207C30.3182 62.8206 30.4343 62.8655 30.5228 62.9464C32.9196 65.1362 33.9229 64.5526 34.8928 63.9865C35.3364 63.7282 35.7944 63.4635 36.3449 63.4804C37.1616 63.5093 37.8595 63.9237 38.3641 64.3452C38.1772 61.4833 36.3215 59.996 34.4851 59.8165C32.2984 59.6012 30.8854 61.6429 30.8264 61.73C30.8091 61.7554 30.7894 61.779 30.7676 61.8007C30.6809 61.8864 30.5647 61.9363 30.4422 61.9403C29.5749 61.9662 27.4978 61.9538 26.9387 61.275C26.8615 61.1838 26.807 61.0759 26.7798 60.96C26.7526 60.8441 26.7533 60.7235 26.7819 60.6079C26.9147 60.0602 27.576 59.6257 28.9237 59.1974C29.2171 59.1043 29.5057 59.0239 29.7605 58.9581C29.4111 58.5797 29.0875 58.1788 28.7919 57.7579C27.9486 57.9876 25.6369 58.7651 25.4681 60.4225C25.4027 61.064 25.5588 61.561 25.9472 61.9415C26.9528 62.9291 29.3189 62.9125 30.1446 62.8232C30.1622 62.8213 30.1799 62.8205 30.1977 62.8207Z" fill="#000072"/>
<path d="M38.8286 66C38.7513 66 38.6752 65.9815 38.6068 65.9461C38.5384 65.9107 38.4796 65.8594 38.4356 65.7966C38.4261 65.7834 37.4843 64.4687 36.3099 64.4274C36.0395 64.4139 35.7336 64.5962 35.3797 64.8029C34.2882 65.4393 32.7932 66.3104 29.8737 63.6422C29.7819 63.5583 29.7269 63.4422 29.7205 63.3188C29.6461 61.8883 29.9093 61.3581 30.0459 61.1826C30.2249 60.9273 31.9247 58.6143 34.5795 58.8742C37.1771 59.1263 39.6349 61.5053 39.3064 65.5632C39.2967 65.6817 39.2423 65.7923 39.1541 65.8731C39.0658 65.9538 38.9501 65.9988 38.8299 65.9991L38.8286 66ZM30.6673 63.0773C32.9588 65.1127 33.9417 64.5405 34.8919 63.9865C35.3355 63.7282 35.7935 63.4636 36.3439 63.4804C37.1607 63.5093 37.8586 63.9237 38.3632 64.3452C38.1772 61.4833 36.3215 59.996 34.4851 59.8165C32.2984 59.6012 30.8854 61.6429 30.8264 61.73C30.8227 61.7354 30.8189 61.7406 30.8152 61.7457C30.7916 61.7917 30.6394 62.1284 30.6673 63.0773ZM30.7916 61.774C30.7864 61.7801 30.7812 61.7859 30.7758 61.7915C30.786 61.7819 30.7973 61.7693 30.7926 61.774H30.7916ZM30.8107 61.7504C30.8048 61.7585 30.7985 61.7664 30.7919 61.7729C30.7993 61.7662 30.806 61.7587 30.8116 61.7504H30.8107Z" fill="#000072"/>
<path fill-rule="evenodd" clip-rule="evenodd" d="M38.5977 63.3878C40.4967 63.8818 42.0469 64.0546 43.2875 64.0546C45.4949 64.0546 46.7214 63.506 47.1879 63.2377C47.8964 63.4296 48.6277 63.527 49.3623 63.5273C51.8376 63.5273 53.7414 62.4215 54.5133 61.8892C55.585 62.869 57.7097 63.1955 59.4337 63.1955C59.8645 63.1955 60.2707 63.1751 60.6284 63.1405C61.7354 63.0303 63.1428 62.7298 63.5607 61.9253C63.6574 61.7393 63.7342 61.5093 63.791 61.2341C63.9436 60.4978 63.9536 59.4367 63.823 58.023C63.6769 56.4195 63.3803 54.7672 63.1707 53.8395C62.7916 52.1578 62.927 47.1056 62.9393 46.6791C63.8677 40.6175 62.2609 33.1016 56.535 30.8944C54.3256 30.0415 51.8399 29.8765 49.1465 30.4006C46.7411 30.8688 44.2229 31.8733 41.6614 33.386C38.3387 35.35 35.0689 38.1199 32.4574 41.1885C29.8789 44.2145 28.1466 47.275 27.5794 49.8036C27.522 50.0537 27.4753 50.3116 27.4401 50.5699C26.9537 54.1683 27.7448 56.942 29.8578 59.0519C30.3108 59.5049 30.8305 59.9334 31.4203 60.3393L32.2424 59.7467C31.5858 59.3195 31.0192 58.8666 30.538 58.3855C28.6213 56.4722 27.9386 54.0289 28.3887 50.6961C28.4203 50.4658 28.462 50.2353 28.5135 50.0108C29.6382 44.9983 35.629 38.053 42.1522 34.1994C45.6675 32.1234 49.0941 31.0605 52.1457 31.0605C53.5867 31.0605 54.9439 31.2978 56.1865 31.777C61.429 33.7977 62.8685 40.8554 61.9882 46.5599C61.8689 47.0488 60.1669 53.689 55.0366 57.8207C54.9594 57.4982 54.869 57.1823 54.7737 56.8726C54.6576 56.4933 54.5323 56.1196 54.3998 55.7243C54.1986 55.1243 53.9907 54.5041 53.8158 53.8586C53.1299 51.3264 53.8183 47.1978 53.8253 47.1565C53.8369 47.0948 53.8359 47.0313 53.8224 46.9699C53.8089 46.9085 53.7832 46.8504 53.7467 46.7989C53.7103 46.7475 53.6639 46.7037 53.6102 46.6701C53.5565 46.6366 53.4966 46.6139 53.434 46.6035C53.3714 46.5931 53.3073 46.5951 53.2454 46.6094C53.1836 46.6237 53.1253 46.6501 53.0738 46.6869C53.0224 46.7238 52.9789 46.7704 52.9458 46.824C52.9128 46.8777 52.8908 46.9373 52.8813 46.9994C52.8511 47.1767 52.1507 51.3717 52.891 54.1041C53.0638 54.7416 53.2647 55.3441 53.4591 55.9273L53.4909 56.0226C53.603 56.3566 53.709 56.6747 53.8085 56.9908C53.9777 57.0021 54.1354 57.0126 54.2746 57.0219L54.6327 58.1353C54.5666 58.185 54.5001 58.2343 54.4329 58.2832C54.3516 58.3423 54.2913 58.4253 54.2606 58.5204C54.2298 58.6155 54.2302 58.7178 54.2617 58.8126C54.2833 58.8776 54.3187 58.9368 54.3651 58.9864C54.3574 59.0031 54.3507 59.0202 54.345 59.0378C54.3255 59.0975 54.3182 59.1605 54.3236 59.223L54.3237 59.2242C54.3264 59.2602 54.3863 60.061 54.2377 60.9136C53.9003 61.1747 50.9248 63.3629 47.2496 62.2712C47.1772 62.2504 47.101 62.2465 47.0269 62.2598C46.9527 62.2731 46.8827 62.3032 46.8223 62.3477C46.7978 62.3656 44.3899 64.0618 38.2447 62.3084L38.5977 63.3878ZM62.7097 61.491C62.7937 61.3291 62.8998 60.9988 62.9396 60.3381C62.9687 59.8533 62.9619 59.1907 62.8843 58.2864C62.492 57.9619 60.9073 56.9058 57.1635 57.1871L55.2894 59.3458C55.3033 59.691 55.3085 60.4225 55.1599 61.1915C55.5146 61.5217 56.0859 61.7738 56.7656 61.9492C57.4534 62.1266 58.2521 62.2255 59.0499 62.2474C59.0618 62.2191 59.0738 62.1889 59.0845 62.1605C59.1079 62.0986 59.1321 62.0306 59.1548 61.9644C59.2002 61.8315 59.2367 61.695 59.2708 61.5574C59.3378 61.2803 59.3808 60.998 59.3994 60.7137C59.4095 60.6079 59.41 60.5023 59.4105 60.3962V60.3959C59.4107 60.3588 59.4109 60.3217 59.4114 60.2845C59.4082 60.2398 59.4061 60.1947 59.4039 60.1495C59.3993 60.0514 59.3946 59.9527 59.3788 59.8558C59.3511 59.5682 59.2755 59.2892 59.1911 59.0102L59.1871 58.9963C59.1715 58.9462 59.1758 58.8922 59.1991 58.8452C59.2223 58.7981 59.2627 58.7615 59.3121 58.7429C59.3616 58.7242 59.4164 58.7248 59.4654 58.7445C59.5144 58.7643 59.554 58.8017 59.5762 58.8493C59.7123 59.1375 59.8425 59.436 59.921 59.7498C59.9558 59.8605 59.9782 59.9732 60.0006 60.0865C60.0096 60.1321 60.0187 60.1778 60.0286 60.2234C60.0327 60.2523 60.0369 60.2812 60.0411 60.3102C60.0603 60.4417 60.0797 60.5738 60.0871 60.7065C60.1138 61.0315 60.1126 61.3583 60.0835 61.6831C60.0683 61.8461 60.0481 62.009 60.0197 62.172C60.0176 62.1838 60.0155 62.1955 60.0133 62.2073C60.0115 62.217 60.0098 62.2267 60.008 62.2363C60.1858 62.2272 60.3612 62.214 60.5329 62.1969C61.9335 62.0571 62.6021 61.6981 62.7097 61.491ZM62.2352 54.0469C62.3923 54.7463 62.6019 55.8709 62.7542 57.0689C61.9089 56.6262 60.4376 56.1473 58.0661 56.1967C59.9736 53.9739 61.2029 51.5472 61.9485 49.7073C61.9599 51.3054 62.0247 53.1123 62.2352 54.0469Z" fill="#000072"/>
<path d="M43.4132 52.9791C43.7091 53.0327 44.0727 53.0994 44.3803 53.1561C44.2066 49.5669 45.4323 46.189 45.4463 46.1512C45.4899 46.0332 45.4843 45.9029 45.4307 45.789C45.3772 45.6751 45.2801 45.5869 45.1609 45.5438C45.0416 45.5007 44.9099 45.5062 44.7948 45.5592C44.6797 45.6121 44.5905 45.7082 44.5469 45.8261C44.4882 45.9851 43.2835 49.2975 43.4132 52.9791Z" fill="#000072"/>
<path d="M45.3591 9.82921C44.2124 12.3542 40.1539 13.021 40.1539 13.021C39.6573 11.5405 39.5455 10.2993 39.6661 9.26876C39.8857 7.37652 40.8853 6.1906 41.7064 5.51961C41.7801 5.45845 41.8663 5.41382 41.9591 5.38876C42.3286 5.28953 42.7418 5.51564 42.8183 5.92538C42.9741 6.75716 43.4984 7.51756 44.1108 8.10715C45.0872 9.04689 45.3591 9.82921 45.3591 9.82921Z" fill="#F9E3D2"/>
<path d="M58.5125 9.82898C58.5125 9.82898 56.056 10.279 54.0462 9.53817C53.4763 9.32833 52.9429 9.02319 52.5108 8.58565C52.5108 8.58565 52.4933 7.76 53.0816 6.54659C53.45 5.78646 53.6772 4.89538 53.5326 4.06165C53.5064 3.90898 53.5335 3.75221 53.6091 3.61715C53.6848 3.48208 53.8047 3.37678 53.949 3.31856C54.1039 3.25412 54.2778 3.24974 54.4363 3.30631C55.3322 3.6209 56.5024 4.2715 57.3597 5.6145C57.721 6.17778 58.0266 6.86279 58.2312 7.69707C58.3881 8.32103 58.4874 9.02774 58.5125 9.82898Z" fill="#F9E3D2"/>
<g opacity="0.2">
<path d="M58.233 7.69697C58.057 7.97402 57.8315 8.21679 57.5675 8.41341C57.038 8.8119 56.3991 9.04122 55.7565 9.21676C55.1975 9.37067 54.6248 9.48831 54.0471 9.53823C53.4772 9.32839 52.9439 9.02325 52.5117 8.58572C52.5117 8.58572 52.4942 7.76006 53.0825 6.54666C53.4509 5.78652 53.6782 4.89545 53.5335 4.06172C53.5074 3.90905 53.5344 3.75228 53.6101 3.61722C53.6858 3.48216 53.8056 3.37685 53.9499 3.31863C54.1651 3.71153 54.3057 4.14018 54.3646 4.5831C54.4126 4.95114 54.4065 5.33705 54.5743 5.66848C54.8072 6.13221 55.3498 6.38772 55.8722 6.38721C56.455 6.38603 57.0194 6.08048 57.3606 5.61457C57.7219 6.17785 58.0275 6.86286 58.233 7.69697Z" fill="#000072"/>
<path d="M45.3592 9.82942C44.2124 12.3544 40.1539 13.0212 40.1539 13.0212C39.6573 11.5407 39.5455 10.2995 39.6661 9.26897C39.8448 9.43936 40.0526 9.56765 40.2955 9.62145C41.0462 9.78293 41.754 9.10738 41.9548 8.37251C42.1555 7.63765 42.0052 6.8607 41.9567 6.10081C41.9411 5.86358 41.9421 5.62562 41.9598 5.38864C42.3292 5.28942 42.7425 5.51552 42.8189 5.92526C42.9748 6.75705 43.4991 7.51744 44.1115 8.10703C45.0872 9.0471 45.3592 9.82942 45.3592 9.82942Z" fill="#000072"/>
</g>
<path d="M71.6333 14.1329C71.5443 14.3184 71.4225 14.4865 71.2737 14.6293C70.0432 15.8322 66.9069 15.8496 65.8064 15.1454C65.8064 15.1454 67.6069 17.7757 67.9989 19.9533C68.3903 22.1275 70.5263 23.614 71.624 26.6677C71.6249 26.6723 71.6255 26.6759 71.6286 26.6801C71.6478 26.7323 71.666 26.7858 71.6843 26.8404C71.7379 26.9973 71.7912 27.1644 71.8407 27.3385C72.7988 30.6647 72.8403 37.0389 59.7138 39.8259C53.3335 41.1802 48.2812 41.1558 44.4974 40.0796C44.4399 40.0631 44.3822 40.0466 44.3244 40.0288C39.8771 38.7146 37.2207 35.9226 36.2568 32.2072C34.4698 25.3143 36.8022 20.4948 36.8022 20.4948C36.8022 20.4948 30.9882 23.7507 28.4425 22.1797C28.1159 21.9774 27.9385 21.6661 27.8957 21.2734C27.8181 20.5652 28.1795 19.593 28.8859 18.5401C30.8294 15.6399 35.3881 12.1129 40.6034 11.7018C40.6034 11.7018 40.9038 11.4352 41.471 11.032C43.5558 9.55063 49.2482 6.23363 56.9253 7.55392C57.2008 7.60106 57.4775 7.65415 57.7577 7.71394C57.7577 7.71394 62.4171 6.28519 66.8875 8.1419C71.3579 9.99861 72.4224 12.4464 71.6333 14.1329Z" fill="white"/>
<path d="M48.2491 27.9266C48.2491 27.9266 42.2034 31.4935 43.0788 37.2244C43.2523 38.3645 43.7033 39.2879 44.3115 40.0359C39.8672 38.7214 37.2124 35.9307 36.249 32.2174C34.4628 25.3289 36.7941 20.5123 36.7941 20.5123C36.7941 20.5123 30.9833 23.7663 28.439 22.1964C25.8948 20.6264 32.4412 12.367 40.5931 11.7248C40.5931 11.7248 40.8933 11.4583 41.4602 11.0554C41.4602 11.0554 48.6323 10.0185 51.9853 16.9432C55.3383 23.8678 48.2491 27.9266 48.2491 27.9266Z" fill="#515B72"/>
<path d="M37.621 15.7379C37.621 15.7379 37.151 17.6785 36.9306 18.8398C36.9306 18.8398 31.9295 21.8388 30.5605 20.9536C29.1916 20.0685 34.34 16.1539 37.621 15.7379Z" fill="#FFABBC"/>
<path d="M61.7255 10.0401C61.7255 10.0401 63.715 11.553 64.707 13.1621C64.707 13.1621 68.5502 14.2369 69.3091 12.9821C70.0679 11.7272 64.0484 9.28768 61.7255 10.0401Z" fill="#FFABBC"/>
<path d="M59.7121 39.8218C53.331 41.1764 48.2783 41.152 44.4944 40.0757C43.7694 39.2523 43.2823 38.2923 43.0877 37.2117C42.1693 32.1099 48.123 26.2718 56.388 24.1729C62.9647 22.5025 69.0228 23.7041 71.6833 26.8367C72.7558 29.9794 73.5287 36.8884 59.7121 39.8218Z" fill="#FFABBC"/>
<g opacity="0.06">
<path d="M35.6114 28.16C35.6082 28.1048 35.6038 28.0487 35.6011 27.9941C35.7121 29.028 35.8993 30.0526 36.1613 31.0599C37.1252 34.7757 39.7819 37.5678 44.2293 38.8832C44.287 38.9011 44.3448 38.9175 44.4023 38.934C48.1865 40.0105 53.2402 40.0348 59.622 38.68C69.9996 36.4765 72.1473 32.0312 72.1187 28.6219C72.0549 28.188 71.9617 27.7588 71.8398 27.3372C71.7903 27.1631 71.7369 26.996 71.6834 26.839C71.665 26.7844 71.6469 26.7311 71.6276 26.6788C71.6268 26.6741 71.6261 26.6706 71.6231 26.6663C70.9181 28.9554 69.3786 30.8978 67.491 32.3104C65.3766 33.8924 62.8457 34.8537 60.2675 35.4575C55.7529 36.5112 51.0515 36.5248 46.5235 35.4974C44.5165 35.04 42.4974 34.3449 40.9646 32.9796C38.4931 30.7762 37.7307 27.2225 37.8065 23.9329C37.868 21.2533 38.3887 18.6007 38.5704 15.9312C38.6256 15.1244 37.7081 14.6098 37.0454 15.079C36.3564 15.5665 35.6958 16.0998 35.0186 16.6053C33.8435 17.4832 32.5699 18.2995 31.1281 18.5935C30.3925 18.743 29.6027 18.732 28.8779 18.5375C27.7812 20.174 27.5164 21.6107 28.4344 22.178C30.9804 23.7492 36.7952 20.4926 36.7952 20.4926C36.7952 20.4926 35.3429 23.5001 35.6114 28.16Z" fill="#000072"/>
<path d="M69.4243 12.6333C67.5656 10.555 64.5842 9.52754 61.8349 10.0167C62.4457 10.6699 63.1116 11.3557 63.9863 11.5544C64.4358 11.6565 64.9028 11.6192 65.3634 11.6184C66.618 11.6174 67.8732 11.8943 69.4243 12.6333Z" fill="#39005E"/>
</g>
<g opacity="0.61">
<path d="M71.637 14.1344C71.548 14.3199 71.4262 14.4881 71.2774 14.6309C72.1154 11.9156 69.1828 10.3199 67.0246 9.37196C64.2754 8.16397 61.1053 8.40397 58.1717 9.03296C52.4244 7.51681 45.9463 8.92688 41.3719 12.7197C35.877 13.172 30.6291 16.541 27.9917 21.4079C27.9594 21.3642 27.9274 21.3205 27.896 21.2752C27.8184 20.5669 28.1799 19.5945 28.8863 18.5414C30.83 15.6409 35.3891 12.1134 40.6049 11.7022C40.6049 11.7022 40.9053 11.4356 41.4725 11.0323C43.5575 9.55074 49.2504 6.23327 56.9282 7.55374C57.2037 7.6009 57.4805 7.65399 57.7607 7.71379C57.7607 7.71379 62.4205 6.28484 66.8913 8.14181C71.3621 9.99878 72.4262 12.4477 71.637 14.1344Z" fill="white"/>
<path d="M44.1232 39.6841C42.837 37.8975 42.7828 35.4344 43.5896 33.3958C44.3964 31.3572 45.9584 29.695 47.6895 28.3378C52.4114 24.6342 58.6695 22.9163 64.6531 23.6813C66.4168 23.9065 68.2004 24.3586 69.65 25.3835C71.0997 26.4085 72.1664 28.0938 72.0711 29.8541C72.3588 27.6936 69.8332 26.2441 67.7367 25.4332C62.6018 23.4475 53.9887 25.4286 48.9331 29.1653C44.8956 32.1499 43.3139 35.6474 44.1232 39.6841Z" fill="white"/>
</g>
<path d="M58.3651 38.768C55.5025 36.7359 55.1675 34.3687 55.1675 34.3687C52.7511 37.7818 50.2419 38.974 50.2419 38.974C50.7296 35.8106 52.4691 33.6402 53.6176 32.5156C54.2181 32.9593 55.0617 33.3632 56.1899 33.4417C56.3919 33.4562 56.5946 33.458 56.7968 33.4472C58.2025 35.6331 58.3651 38.768 58.3651 38.768Z" fill="#98C45E"/>
<path fill-rule="evenodd" clip-rule="evenodd" d="M31.8957 21.5431C31.0173 21.6958 30.5811 21.5354 30.3088 21.3594C29.9442 21.1239 29.7937 20.7326 29.8956 20.2863C30.2948 18.5375 34.7386 15.6349 37.5668 15.2782C37.6437 15.2685 37.7219 15.2775 37.7946 15.3044C37.8674 15.3314 37.9325 15.3754 37.9844 15.4328C38.0362 15.4901 38.0733 15.5591 38.0924 15.6337C38.1115 15.7083 38.112 15.7864 38.094 15.8611C38.0892 15.8804 37.624 17.8033 37.4086 18.9394C37.3962 19.0047 37.3701 19.0667 37.332 19.1213C37.2938 19.1759 37.2445 19.2218 37.1872 19.2562C36.3059 19.7747 35.3975 20.2469 34.4659 20.6707C33.3326 21.1791 32.5069 21.437 31.8957 21.5431ZM30.8213 20.5596L30.8294 20.5652C31.5007 20.9991 34.2582 19.8722 36.5095 18.5507C36.6483 17.8516 36.8499 16.9671 36.993 16.3563C34.8217 16.9174 31.9763 18.7661 31.055 20.0632C30.833 20.3757 30.8202 20.5246 30.8212 20.5605L30.8213 20.5596Z" fill="#000072"/>
<path fill-rule="evenodd" clip-rule="evenodd" d="M64.5823 13.6281C65.0751 13.766 66.9745 14.2534 68.3704 14.0109C68.9576 13.9089 69.4558 13.6775 69.7224 13.2362C69.8552 13.0165 70.0082 12.5611 69.5403 11.9802C68.3656 10.5205 63.6492 8.92844 61.5795 9.59883C61.4969 9.62569 61.4233 9.67443 61.3667 9.73981C61.31 9.80518 61.2725 9.88471 61.2582 9.96981C61.2438 10.0549 61.2532 10.1424 61.2853 10.2227C61.3173 10.3031 61.3709 10.3734 61.4401 10.4259L61.441 10.4266L61.4429 10.4282L61.4495 10.4333C61.5959 10.5477 63.4043 11.9607 64.3029 13.4181C64.3659 13.5206 64.4658 13.5957 64.5823 13.6281ZM68.8988 12.7513C68.5178 13.3624 66.425 13.1286 65.0148 12.7624C64.4049 11.8323 63.5194 10.9616 62.8694 10.3829C64.5269 10.4075 67.0053 11.2266 68.285 12.1245C68.7636 12.4604 68.8889 12.687 68.8988 12.7513Z" fill="#000072"/>
<path fill-rule="evenodd" clip-rule="evenodd" d="M47.2333 41.1206C46.2236 40.9864 45.2686 40.7916 44.3699 40.536C44.3087 40.5185 44.2485 40.5011 44.1882 40.4828C39.7443 39.1685 36.8418 36.3474 35.7983 32.3253C34.4908 27.2827 35.3226 23.3511 35.9218 21.4802C34.0374 22.3705 30.2547 23.8558 28.1962 22.5855C27.7965 22.3385 27.1751 21.7208 27.5058 20.3572C27.9102 18.6885 29.5703 16.5586 31.8383 14.7963C34.4468 12.7693 37.4858 11.5129 40.4123 11.2471C40.5543 11.1284 40.8192 10.9189 41.1954 10.6516C43.336 9.13179 49.1609 5.74352 57.0072 7.09275C57.2508 7.13446 57.4966 7.18103 57.7395 7.23153C58.5324 7.01134 62.846 5.95608 67.0717 7.71085C70.4465 9.11108 71.6728 10.7248 72.1071 11.8308C72.4464 12.6928 72.4318 13.5603 72.0676 14.339C71.7464 15.025 71.0284 15.5437 69.9906 15.8391C69.0188 16.1157 67.8535 16.1618 66.8968 16.0049C67.469 17.0015 68.2246 18.5082 68.4707 19.875C68.6508 20.8752 69.2621 21.7481 69.9686 22.7569L69.9686 22.7569L69.9826 22.777C70.703 23.8017 71.5194 24.9633 72.0792 26.5252C72.0954 26.5693 72.1116 26.6165 72.128 26.6649C72.1317 26.674 72.1351 26.6831 72.1383 26.6924C72.7421 28.4599 73.1519 31.1094 71.676 33.6916C70.3182 36.0668 67.6377 37.9301 63.6852 39.2531C62.508 39.6473 61.218 39.9935 59.8167 40.291C59.118 40.4388 58.4317 40.5712 57.7577 40.6883M70.3336 25.0375C69.9662 24.4043 69.5705 23.8414 69.2014 23.3162L69.1973 23.3105C68.4518 22.2497 67.7475 21.2477 67.5296 20.0376C67.1606 17.9877 65.4303 15.4395 65.4128 15.414C65.3507 15.3233 65.3221 15.2143 65.3317 15.1054C65.3413 14.9964 65.3886 14.8943 65.4656 14.8162C65.5426 14.7381 65.6445 14.6889 65.7541 14.6769C65.8637 14.665 65.9742 14.6909 66.0669 14.7504C66.688 15.1506 68.3428 15.3198 69.725 14.9262C70.4776 14.7121 71.0015 14.3605 71.2002 13.9364C71.4524 13.3973 71.4581 12.7871 71.2163 12.1714C70.6978 10.851 69.096 9.57728 66.7049 8.58521C62.4563 6.82049 57.9473 8.15929 57.9014 8.17297C57.8233 8.1971 57.7401 8.2007 57.6601 8.18339C57.3911 8.12622 57.1175 8.07352 56.8467 8.02786C49.3566 6.73867 43.7978 9.9727 41.754 11.4223C41.2527 11.7789 40.9667 12.0254 40.9297 12.0573C40.9272 12.0595 40.9258 12.0606 40.9256 12.0608C40.8479 12.1296 40.7496 12.1712 40.6457 12.1793C37.855 12.3993 34.9376 13.5938 32.4286 15.5434C30.3535 17.156 28.7858 19.1335 28.4344 20.5815C28.2889 21.1793 28.3783 21.5825 28.6983 21.7802C30.5881 22.9466 35.0206 20.9516 36.5689 20.0845C36.6166 20.0581 36.6685 20.04 36.7224 20.0309C36.8091 20.0157 36.8984 20.0245 36.9806 20.0564C37.0627 20.0883 37.1344 20.142 37.1879 20.2117C37.2413 20.2814 37.2743 20.3642 37.2833 20.4512C37.2924 20.5381 37.277 20.6258 37.239 20.7045C37.2167 20.7506 35.0074 25.4657 36.7254 32.0919C37.5855 35.4073 39.842 37.8358 43.2834 39.1729C42.9631 38.5858 42.7421 37.9592 42.6231 37.2983C42.1505 34.6731 43.3375 31.808 45.9629 29.2346C48.5339 26.714 52.1951 24.756 56.2722 23.7213C61.7519 22.3303 67.0617 22.8798 70.3336 25.0375ZM58.9366 39.502C59.1612 39.4571 59.3873 39.4105 59.6147 39.3623C65.4437 38.1248 69.2215 36.0588 70.8428 33.2212C72.12 30.985 71.7856 28.6626 71.2609 27.0795C68.6116 24.0489 62.7024 23.0666 56.5119 24.64C48.4985 26.6749 42.6903 32.2801 43.5643 37.135C43.7313 38.0602 44.136 38.9097 44.7682 39.6618C48.4994 40.6899 53.2627 40.6355 58.9366 39.502Z" fill="#000072"/>
<path d="M62.0616 25.9968C62.1733 26.4589 61.9461 26.9081 61.5542 27C61.1622 27.0919 60.7539 26.7917 60.6422 26.3296C60.5305 25.8674 60.7577 25.4183 61.1497 25.3264C61.5417 25.2345 61.95 25.5346 62.0616 25.9968Z" fill="#000072"/>
<path d="M54.3616 26.9168C54.8332 26.9441 55.1945 27.3454 55.1685 27.813C55.1426 28.2806 54.7392 28.6375 54.2676 28.6101C53.796 28.5828 53.4348 28.1815 53.4607 27.7139C53.4867 27.2463 53.8901 26.8894 54.3616 26.9168Z" fill="#000072"/>
<path fill-rule="evenodd" clip-rule="evenodd" d="M53.9228 32.1595C54.2927 32.4328 54.6981 32.6408 55.1351 32.7821C55.4846 32.8951 55.8542 32.9654 56.2422 32.9923C56.3559 33.0005 56.4699 33.0042 56.5838 33.0035C56.6522 33.003 56.7206 33.001 56.7889 32.9974C56.7896 32.9973 56.7904 32.9973 56.7912 32.9972C58.7419 32.8936 59.5452 31.4806 59.5783 31.4205C59.6383 31.3099 59.7402 31.2275 59.8617 31.1916C59.9831 31.1557 60.1142 31.1692 60.226 31.2291C60.3377 31.289 60.4211 31.3904 60.4577 31.5109C60.4943 31.6315 60.4812 31.7614 60.4212 31.8721C60.3828 31.9429 59.5522 33.4422 57.5842 33.8502C58.7068 36.0267 58.8563 38.6439 58.8635 38.7693L58.8635 38.7696C58.8681 38.8587 58.8473 38.9472 58.8035 39.0249C58.7596 39.1027 58.6945 39.1665 58.6157 39.2091C58.5702 39.2339 58.5209 39.251 58.4697 39.2598C58.4071 39.2707 58.3428 39.269 58.2807 39.255C58.2186 39.2409 58.16 39.2147 58.1082 39.1778C56.2353 37.8493 55.3842 36.3787 55.0048 35.4369C52.7387 38.3254 50.5685 39.3792 50.4699 39.4263C50.3915 39.4636 50.3042 39.4789 50.2174 39.4705C50.1307 39.4622 50.0478 39.4305 49.9777 39.3789C49.9077 39.3273 49.8531 39.2578 49.8199 39.1778C49.7866 39.0978 49.776 39.0104 49.7892 38.925C50.2538 35.9109 51.8292 33.7584 52.9355 32.5757C52.6259 32.2925 52.3997 32.0169 52.2483 31.8073C52.1176 31.9869 52.0229 32.2159 51.9265 32.4799L51.9206 32.4965C51.9019 32.5474 51.8671 32.5908 51.8213 32.6203C51.7755 32.6498 51.7213 32.6637 51.6667 32.66C51.6122 32.6563 51.5603 32.6351 51.5188 32.5996C51.4773 32.5642 51.4485 32.5164 51.4367 32.4634C51.3964 32.2825 51.3862 32.0963 51.4065 31.9124C51.4263 31.716 51.4821 31.525 51.5713 31.3487C51.7472 30.9791 52.0839 30.6915 52.4363 30.5301C52.7921 30.3653 53.1643 30.307 53.52 30.3068C53.8787 30.313 54.2184 30.3682 54.5534 30.5102C54.5928 30.5269 54.6257 30.5557 54.6474 30.5923C54.6691 30.6289 54.6784 30.6714 54.6739 30.7136C54.6694 30.7557 54.6513 30.7953 54.6224 30.8264C54.5935 30.8575 54.5552 30.8786 54.5132 30.8864L54.4921 30.8903C54.4196 30.9034 54.3468 30.916 54.2741 30.9286C54.0429 30.9688 53.8131 31.0088 53.599 31.0599C53.3918 31.1093 53.1926 31.1665 53.0127 31.239C53.1759 31.4677 53.4735 31.8272 53.9228 32.1595ZM56.3687 33.9489C56.4302 33.9511 56.4918 33.9522 56.5533 33.9522C57.2727 35.1825 57.6164 36.6876 57.7763 37.6948C55.9553 36.0358 55.6694 34.376 55.6613 34.3291L55.6612 34.3282C55.6523 34.265 55.6306 34.2042 55.5975 34.1494C55.5644 34.0946 55.5205 34.047 55.4684 34.0094C55.4163 33.9717 55.3572 33.9449 55.2945 33.9304C55.2318 33.916 55.1669 33.9142 55.1036 33.9252C54.9791 33.9466 54.8684 34.016 54.7957 34.1182C53.3528 36.1562 51.8682 37.3821 50.9533 38.0172C51.5513 35.7383 52.8092 34.0926 53.7006 33.1556C53.7819 33.2062 53.8645 33.2544 53.9482 33.3002C54.62 33.668 55.3673 33.8823 56.1786 33.9389C56.2421 33.9433 56.3056 33.9467 56.3687 33.9489Z" fill="#000072"/>
<path d="M50.4439 22.6914C50.2333 20.9991 49.0277 19.7504 47.7512 19.9024C46.4747 20.0543 45.6106 21.5494 45.8212 23.2417C46.0318 24.934 47.2374 26.1827 48.5139 26.0307C49.7904 25.8788 50.6545 24.3837 50.4439 22.6914Z" fill="#000072"/>
<path d="M62.6983 22.7801C63.9505 22.4927 64.6469 20.9135 64.2539 19.2529C63.8609 17.5923 62.5273 16.4791 61.2751 16.7665C60.023 17.0539 59.3265 18.6331 59.7195 20.2937C60.1125 21.9543 61.4462 23.0675 62.6983 22.7801Z" fill="#000072"/>
<path d="M45.3771 8.87455C45.1657 8.55442 44.8583 8.16002 44.423 7.74091C43.8005 7.14119 43.3909 6.457 43.2713 5.81738C43.234 5.61973 43.1453 5.43497 43.0142 5.2813C42.883 5.12764 42.7139 5.01039 42.5235 4.94109C42.333 4.8718 42.1278 4.85287 41.928 4.88615C41.7283 4.91944 41.541 5.0038 41.3844 5.13092C40.2246 6.07684 38.5422 8.14687 39.3281 11.8508L40.2888 11.7804C39.5793 8.65764 40.7825 6.85233 41.9929 5.86461C42.0195 5.84214 42.0516 5.82703 42.086 5.8208C42.1225 5.81514 42.1599 5.81895 42.1945 5.83185C42.2289 5.84346 42.2596 5.86405 42.2832 5.89145C42.3068 5.91885 42.3226 5.95205 42.3288 5.98754C42.5277 7.05362 43.2148 7.89877 43.7564 8.4212C44.0858 8.73853 44.3274 9.03536 44.5004 9.2819L45.3771 8.87455Z" fill="#000072"/>
<path d="M58.6501 7.49173C57.876 4.47162 55.8571 3.29299 54.5672 2.84199C54.3758 2.77532 54.1704 2.75921 53.9711 2.79524C53.7719 2.83128 53.5857 2.91821 53.431 3.04748C53.2763 3.17675 53.1584 3.34388 53.0888 3.53241C53.0193 3.72094 53.0006 3.92436 53.0345 4.12262C53.1453 4.76238 52.9992 5.54244 52.6229 6.31776C52.4299 6.71569 52.2971 7.07752 52.2059 7.38909L52.6651 7.33432L53.2173 7.36978C53.2864 7.1747 53.3741 6.96043 53.4856 6.73074C53.8114 6.05828 54.1619 5.03193 53.9769 3.96367C53.9712 3.92833 53.9748 3.89216 53.9874 3.85867C53.9999 3.82518 54.021 3.79549 54.0485 3.77248C54.076 3.74947 54.1091 3.73391 54.1445 3.72731C54.1799 3.7207 54.2165 3.72328 54.2507 3.73478C55.5455 4.18914 57.0532 5.23175 57.6951 7.6045L58.284 7.61394L58.6501 7.49173Z" fill="#000072"/>
<path d="M49.6385 21.9596C49.555 21.2871 49.1622 20.7807 48.7611 20.8285C48.3601 20.8763 48.1028 21.4603 48.1863 22.1328C48.2699 22.8053 48.6627 23.3117 49.0637 23.2639C49.4648 23.2161 49.7221 22.6322 49.6385 21.9596Z" fill="white"/>
<path d="M61.2291 20.3584C61.6224 20.268 61.8149 19.6597 61.659 18.9998C61.5031 18.3398 61.0578 17.8782 60.6644 17.9686C60.2711 18.0591 60.0786 18.6674 60.2345 19.3273C60.3904 19.9872 60.8357 20.4489 61.2291 20.3584Z" fill="white"/>
<g opacity="0.35">
<path d="M47.802 25.0946C47.9794 24.9685 47.8937 24.5476 47.6106 24.1546C47.3274 23.7616 46.9541 23.5452 46.7767 23.6713C46.5993 23.7975 46.685 24.2183 46.9681 24.6113C47.2513 25.0043 47.6246 25.2207 47.802 25.0946Z" fill="white"/>
<path d="M63.6583 20.9098C63.7875 20.445 63.7215 20.0207 63.5109 19.9622C63.3004 19.9037 63.025 20.2331 62.8959 20.6979C62.7667 21.1628 62.8327 21.587 63.0433 21.6456C63.2538 21.7041 63.5292 21.3747 63.6583 20.9098Z" fill="white"/>
</g>
<path opacity="0.5" d="M11.5866 23.6717C16.2646 20.007 22.9315 20.5102 27.0362 24.6479C26.8153 24.3018 26.5762 23.9672 26.32 23.6457C22.3373 18.6707 15.0491 17.8179 10.0416 21.7416C5.03408 25.6652 4.20283 32.8792 8.18555 37.8542C8.44373 38.1766 8.71915 38.4851 9.01065 38.7784C5.87738 33.8793 6.90749 27.3385 11.5866 23.6717Z" fill="white"/>
<path d="M24.1778 41.485C24.5462 41.2528 24.9024 41.0019 25.2448 40.7335C26.601 39.6758 27.7193 38.3496 28.5286 36.8391L33.3133 35.136C33.4798 35.0767 33.6276 34.9753 33.7421 34.8419C33.8566 34.7085 33.9339 34.5476 33.9662 34.3753C33.9985 34.2029 33.9848 34.0249 33.9265 33.859C33.8681 33.6931 33.7671 33.545 33.6334 33.4293L29.9797 30.267C29.8463 27.9849 29.0825 25.7803 27.7716 23.8941C26.4608 22.0078 24.6532 20.5122 22.5464 19.5706C20.4395 18.629 18.1143 18.2776 15.8246 18.5548C13.5348 18.8319 11.3686 19.727 9.56226 21.1422C4.12518 25.4021 3.22036 33.2619 7.54406 38.6625C9.48291 41.0838 12.2556 42.712 15.3273 43.233C18.3991 43.754 21.5522 43.131 24.1784 41.484L24.1778 41.485ZM27.2555 35.1744C27.0977 35.2735 26.9706 35.4139 26.8882 35.5801C26.104 37.1614 24.9277 38.5188 23.4688 39.526C22.0099 40.5332 20.3158 41.1575 18.5443 41.3408C16.7728 41.524 14.9814 41.2602 13.3369 40.5739C11.6925 39.8877 10.2484 38.8013 9.13906 37.4159C5.51355 32.8881 6.27285 26.2996 10.8303 22.7288C12.3698 21.5227 14.2207 20.7677 16.1744 20.5491C18.1281 20.3304 20.1068 20.6568 21.8876 21.4913C23.6684 22.3259 25.1803 23.6355 26.2531 25.2725C27.3259 26.9094 27.9167 28.8087 27.9591 30.7563C27.9625 30.8969 27.9956 31.0353 28.0561 31.1628C28.1167 31.2903 28.2034 31.4039 28.3107 31.4964L30.9927 33.8172L27.4564 35.0772C27.3856 35.1014 27.3178 35.1334 27.2544 35.1727L27.2555 35.1744Z" fill="#000072"/>
<path d="M28.9778 30.7368C28.9271 28.2294 28.0442 25.8049 26.4653 23.8378C22.4843 18.8652 15.2001 18.0133 10.1946 21.935C5.18922 25.8568 4.35839 33.0667 8.34 38.0383C12.3216 43.01 19.6053 43.8629 24.6102 39.9414C25.9571 38.8889 27.0481 37.5506 27.8033 36.0243L32.9639 34.1862L28.9778 30.7368Z" fill="white"/>
<path d="M13.5 31.4026L11.8974 31.2762C11.7121 31.2623 11.556 31.1255 11.5177 30.9456C11.4696 30.7201 11.6152 30.4995 11.843 30.4526L12.7696 30.2618C12.9401 30.2267 13.1187 30.2434 13.2785 30.3087C13.3759 30.3478 13.4875 30.3104 13.5452 30.2249L13.9313 29.6543C14.0102 29.5384 13.9623 29.3822 13.8339 29.3205C13.4349 29.1254 12.9757 29.0654 12.5365 29.1544L12.395 28.4903C12.369 28.3685 12.2472 28.2896 12.1242 28.3149L11.6769 28.407C11.5539 28.4323 11.4745 28.5527 11.5005 28.6744L11.642 29.3385L11.6071 29.3457C10.7168 29.529 10.1625 30.4331 10.4363 31.3141C10.631 31.9398 11.2335 32.3574 11.8924 32.4095L13.4134 32.5296C13.599 32.5449 13.7548 32.6803 13.7931 32.8602C13.8412 33.0857 13.6956 33.3063 13.4678 33.3532L12.5412 33.544C12.3707 33.5791 12.1921 33.5624 12.0323 33.4971C11.9349 33.4579 11.8233 33.4954 11.7656 33.5809L11.3795 34.1514C11.3006 34.2673 11.3485 34.4236 11.4769 34.4852C11.8759 34.6804 12.3351 34.7404 12.7743 34.6514L12.9158 35.3155C12.9418 35.4373 13.0636 35.5162 13.1866 35.4908L13.6339 35.3988C13.7569 35.3734 13.8363 35.2531 13.8103 35.1314L13.6682 34.4645C14.3168 34.3179 14.8459 33.809 14.9311 33.1545C15.05 32.2404 14.3591 31.4698 13.5 31.4026Z" fill="#FF0068"/>
<path d="M18.5343 30.2641L16.4364 30.0968C16.1938 30.0785 15.9893 29.8987 15.939 29.6626C15.8759 29.3665 16.0663 29.0771 16.3644 29.0157L17.5772 28.766C17.8004 28.7201 18.0342 28.7421 18.2435 28.8279C18.3709 28.8794 18.517 28.8304 18.5924 28.7182L19.0974 27.9695C19.2005 27.8175 19.1377 27.6124 18.9696 27.5313C18.4471 27.2748 17.846 27.1957 17.2712 27.3122L17.0854 26.4403C17.0513 26.2805 16.8917 26.1768 16.7308 26.2099L16.1454 26.3305C15.9845 26.3636 15.8806 26.5215 15.9147 26.6813L16.1005 27.5532L16.0548 27.5626C14.8895 27.8025 14.1647 28.9889 14.5239 30.1455C14.7792 30.967 15.5682 31.5156 16.4307 31.5845L18.4218 31.7434C18.6648 31.7635 18.8688 31.9414 18.9191 32.1776C18.9822 32.4736 18.7919 32.7631 18.4937 32.8245L17.2809 33.0742C17.0578 33.1201 16.8239 33.0981 16.6147 33.0123C16.4872 32.9608 16.3411 33.0098 16.2657 33.122L15.7608 33.8706C15.6576 34.0227 15.7204 34.2278 15.8886 34.3089C16.411 34.5654 17.0122 34.6445 17.587 34.528L17.7728 35.3999C17.8068 35.5597 17.9664 35.6634 18.1274 35.6302L18.7127 35.5097C18.8737 35.4766 18.9775 35.3187 18.9435 35.1589L18.7569 34.2834C19.6058 34.0915 20.298 33.4238 20.409 32.5648C20.5638 31.365 19.6588 30.353 18.5343 30.2641Z" fill="#FF0068"/>
<path d="M23.017 29.4433L21.4212 29.3154C21.2367 29.3014 21.0812 29.1644 21.0429 28.9846C20.9948 28.7591 21.1395 28.5386 21.3663 28.4919L22.2887 28.302C22.4584 28.2671 22.6363 28.2839 22.7955 28.3493C22.8924 28.3886 23.0036 28.3513 23.0609 28.2658L23.4448 27.6957C23.5232 27.5799 23.4754 27.4237 23.3475 27.3619C22.95 27.1664 22.4928 27.106 22.0556 27.1946L21.9141 26.5305C21.8881 26.4087 21.7667 26.3297 21.6443 26.3549L21.1991 26.4466C21.0766 26.4718 20.9977 26.5921 21.0236 26.7138L21.1652 27.3779L21.1304 27.3851C20.2442 27.5675 19.6931 28.471 19.9666 29.352C20.1609 29.9778 20.7612 30.3958 21.4173 30.4485L22.9318 30.57C23.1166 30.5854 23.2719 30.721 23.3102 30.9008C23.3583 31.1263 23.2135 31.3468 22.9868 31.3935L22.0644 31.5834C21.8946 31.6183 21.7168 31.6015 21.5576 31.5361C21.4606 31.4968 21.3495 31.5341 21.2922 31.6196L20.9083 32.1897C20.8298 32.3055 20.8777 32.4617 21.0055 32.5235C21.403 32.719 21.8603 32.7793 22.2975 32.6908L22.439 33.3549C22.4649 33.4767 22.5863 33.5556 22.7088 33.5304L23.154 33.4388C23.2764 33.4136 23.3554 33.2933 23.3294 33.1716L23.1873 32.5047C23.833 32.3588 24.3593 31.8504 24.4435 31.1961C24.561 30.2822 23.8724 29.5112 23.017 29.4433Z" fill="#FF0068"/>
<path opacity="0.08" d="M28.9709 30.5976C28.3488 32.6051 27.2522 34.4351 25.772 35.9361C24.2918 37.4371 22.4705 38.566 20.4588 39.2294C15.7579 40.7822 10.793 39.5991 7.31865 36.555C7.61566 37.0721 7.95228 37.566 8.32551 38.0323C12.309 43.0085 19.5977 43.8609 24.6058 39.9367C25.9534 38.8836 27.045 37.5444 27.8004 36.0171L32.9646 34.1775L28.976 30.7256C28.9755 30.6828 28.9722 30.6405 28.9709 30.5976Z" fill="#000072"/>
<path d="M196.576 48.0065C195.941 48.0065 195.638 47.6621 195.668 46.9732L198.12 16.692C198.151 16.3925 198.257 16.1828 198.438 16.063C198.65 15.9133 198.892 15.8384 199.165 15.8384C199.77 15.8384 200.058 16.1229 200.028 16.692L197.575 46.9732C197.545 47.6621 197.212 48.0065 196.576 48.0065Z" fill="white"/>
<path d="M223.32 26.3964C223.502 26.0669 223.759 25.9022 224.092 25.9022C224.334 25.9022 224.546 25.992 224.728 26.1717C224.91 26.3215 225 26.5311 225 26.8007C225 26.9505 224.955 27.1152 224.864 27.2949L209.878 55.5094C209.666 55.8988 209.333 56.0935 208.879 56.0935C208.637 56.0935 208.425 56.0336 208.243 55.9138C208.062 55.794 207.971 55.6292 207.971 55.4196C207.971 55.2998 208.016 55.165 208.107 55.0152L211.876 47.9616L204.065 27.25C204.005 27.0104 203.975 26.8606 203.975 26.8007C203.975 26.5311 204.065 26.3215 204.247 26.1717C204.429 25.992 204.641 25.9022 204.883 25.9022C205.337 25.9022 205.655 26.1268 205.836 26.5761L212.966 46.1645L223.32 26.3964Z" fill="white"/>
<path d="M109.12 30.3049C109.968 30.3049 110.619 30.5445 111.073 31.0238C111.557 31.4731 111.769 32.102 111.709 32.9107L111.028 41.6716C110.937 42.8996 110.77 43.8431 110.528 44.5021C110.286 45.161 109.892 45.6851 109.347 46.0745C108.833 46.4339 108.076 46.7484 107.077 47.018C105.866 47.3774 104.503 47.662 102.99 47.8716C101.476 48.0813 100.053 48.1861 98.7209 48.1861C95.542 48.1861 92.787 47.5721 90.4559 46.3441C88.155 45.1161 86.3839 43.3639 85.1427 41.0876C83.9317 38.8112 83.3262 36.1305 83.3262 33.0455C83.3262 29.5412 84.0074 26.4861 85.3697 23.8803C86.7624 21.2745 88.7454 19.2677 91.3187 17.86C93.8921 16.4223 96.8893 15.7035 100.31 15.7035C102.52 15.7035 104.488 15.9581 106.214 16.4672C107.97 16.9465 109.393 17.5455 110.483 18.2643C111.633 18.9832 112.208 19.9117 112.208 21.0499C112.208 21.7986 111.951 22.4576 111.436 23.0267C110.922 23.5958 110.286 23.8803 109.529 23.8803C108.984 23.8803 108.409 23.7006 107.803 23.3412C106.713 22.6523 105.608 22.1431 104.488 21.8136C103.368 21.4542 102.006 21.2745 100.401 21.2745C97.2828 21.2745 94.8457 22.3228 93.0898 24.4194C91.3641 26.516 90.5013 29.3914 90.5013 33.0455C90.5013 36.1905 91.2582 38.6016 92.7719 40.2789C94.2856 41.9562 96.5714 42.7948 99.6291 42.7948C101.234 42.7948 102.899 42.5402 104.624 42.031L105.215 35.1571H101.264C99.3869 35.1571 98.4484 34.3784 98.4484 32.8209C98.4484 32.0421 98.7209 31.4281 99.2658 30.9789C99.8108 30.5296 100.507 30.3049 101.355 30.3049H109.12Z" fill="white"/>
<path d="M131.249 25.273C132.096 25.2131 132.762 25.4228 133.247 25.902C133.731 26.3813 133.928 27.0702 133.837 27.9687C133.746 28.9871 133.444 29.7359 132.929 30.2151C132.414 30.6644 131.536 30.9489 130.295 31.0687L129.069 31.2035C127.222 31.4132 125.905 31.9074 125.118 32.6861C124.361 33.4349 123.907 34.633 123.756 36.2803L123.075 44.8615C122.984 45.9098 122.59 46.7035 121.894 47.2426C121.228 47.7818 120.41 48.0513 119.442 48.0513C118.443 48.0513 117.625 47.7818 116.989 47.2426C116.384 46.7035 116.127 45.9098 116.217 44.8615L117.534 28.3731C117.625 27.3846 118.019 26.6209 118.715 26.0817C119.442 25.5426 120.274 25.273 121.213 25.273C122.121 25.273 122.847 25.5426 123.392 26.0817C123.937 26.5909 124.18 27.3098 124.119 28.2383L124.074 28.7774C124.891 27.7291 125.89 26.9204 127.071 26.3513C128.252 25.7523 129.478 25.4078 130.749 25.318L131.249 25.273Z" fill="white"/>
<path d="M145.389 25.1832C151.746 25.1832 154.925 28.0136 154.925 33.6745C154.925 34.2735 154.91 34.7378 154.88 35.0673L154.062 44.9064C154.002 45.9248 153.669 46.7035 153.063 47.2426C152.458 47.7818 151.64 48.0513 150.611 48.0513C149.642 48.0513 148.87 47.7668 148.295 47.1977C147.75 46.5987 147.523 45.8349 147.614 44.9064V44.7716C147.039 45.8499 146.236 46.6885 145.207 47.2876C144.178 47.8567 142.982 48.1412 141.619 48.1412C140.166 48.1412 138.849 47.8567 137.669 47.2876C136.488 46.7185 135.549 45.9397 134.853 44.9513C134.187 43.9629 133.854 42.8547 133.854 41.6267C133.854 39.9194 134.278 38.5716 135.125 37.5832C136.003 36.5648 137.366 35.831 139.213 35.3818C141.09 34.9025 143.602 34.6629 146.751 34.6629H148.386L148.431 34.0789C148.522 32.7909 148.25 31.8325 147.614 31.2035C146.978 30.5745 145.964 30.26 144.571 30.26C142.997 30.26 141.12 30.7392 138.94 31.6977C138.486 31.9074 138.047 32.0122 137.623 32.0122C136.957 32.0122 136.412 31.8025 135.988 31.3832C135.564 30.9339 135.353 30.3948 135.353 29.7658C135.353 29.2866 135.489 28.8223 135.761 28.3731C136.034 27.9238 136.458 27.5344 137.033 27.2049C138.123 26.5759 139.394 26.0817 140.847 25.7223C142.301 25.3629 143.814 25.1832 145.389 25.1832ZM143.527 43.4687C144.768 43.4687 145.797 43.0344 146.615 42.1658C147.462 41.2673 147.947 40.1141 148.068 38.7064L148.113 37.9426H146.887C144.556 37.9426 142.906 38.1673 141.937 38.6165C140.999 39.0359 140.529 39.7996 140.529 40.9078C140.529 41.6866 140.802 42.3156 141.347 42.7948C141.892 43.2441 142.618 43.4687 143.527 43.4687Z" fill="white"/>
<path d="M176.173 42.705C177.142 42.705 177.869 42.9146 178.353 43.3339C178.838 43.7233 179.08 44.2924 179.08 45.0412C179.08 45.9697 178.807 46.6586 178.262 47.1079C177.717 47.5571 176.885 47.7818 175.765 47.7818H161.006C160.158 47.7818 159.477 47.5272 158.962 47.018C158.478 46.5088 158.236 45.8798 158.236 45.131C158.236 44.1726 158.599 43.319 159.326 42.5702L170.724 30.7991H162.186C161.248 30.7991 160.536 30.6045 160.052 30.2151C159.568 29.7958 159.326 29.2117 159.326 28.4629C159.326 26.6359 160.415 25.7223 162.595 25.7223H176.809C177.657 25.7223 178.323 25.9769 178.807 26.4861C179.322 26.9953 179.579 27.6243 179.579 28.3731C179.579 29.3315 179.201 30.2001 178.444 30.9789L167.091 42.705H176.173Z" fill="white"/>
<path d="M185.786 48.0513C184.787 48.0513 183.969 47.7818 183.334 47.2426C182.728 46.7035 182.471 45.9098 182.562 44.8615L183.879 28.4629C183.969 27.4146 184.363 26.6209 185.059 26.0817C185.786 25.5426 186.634 25.273 187.602 25.273C188.571 25.273 189.358 25.5426 189.964 26.0817C190.569 26.6209 190.827 27.4146 190.736 28.4629L189.419 44.8615C189.328 45.9098 188.934 46.7035 188.238 47.2426C187.572 47.7818 186.755 48.0513 185.786 48.0513ZM188.147 21.6788C186.936 21.6788 185.983 21.3793 185.286 20.7803C184.59 20.1513 184.242 19.3127 184.242 18.2643C184.242 17.216 184.59 16.3924 185.286 15.7933C185.983 15.1943 186.936 14.8948 188.147 14.8948C189.328 14.8948 190.267 15.2093 190.963 15.8383C191.689 16.4373 192.053 17.246 192.053 18.2643C192.053 19.3127 191.705 20.1513 191.008 20.7803C190.312 21.3793 189.358 21.6788 188.147 21.6788Z" fill="white"/>
</svg>
