<svg width="619" height="431" viewBox="0 0 619 431" fill="none" xmlns="http://www.w3.org/2000/svg">
<g opacity="0.3">
<path opacity="0.3" d="M308.439 430.561C473.955 430.561 608.133 423.412 608.133 414.593C608.133 405.774 473.955 398.625 308.439 398.625C142.923 398.625 8.74609 405.774 8.74609 414.593C8.74609 423.412 142.923 430.561 308.439 430.561Z" fill="#000072"/>
</g>
<path d="M407.296 243.471C406.844 243.041 406.383 242.621 405.931 242.216C396.826 234.162 383.676 232.518 372.755 237.865C341.581 253.12 293.795 265.195 293.795 265.195C291.066 266.637 128.299 284.651 127.014 284.238C99.512 301.412 29.4869 366.308 106.949 406.624H328.462V406.422C330.66 372.653 324.548 348.979 318.109 333.972C352.447 323.005 384.596 303.119 403.312 290.209C419.035 279.358 421.1 256.673 407.296 243.469V243.471Z" fill="white"/>
<g opacity="0.3">
<path opacity="0.3" d="M94.7992 374.534C73.9859 349.477 88.6711 320.279 108.109 298.638C78.283 325.109 44.1563 373.943 106.952 406.626H328.463V406.424C328.75 402.005 328.892 397.761 328.913 393.685H136.383C120.389 393.685 105.019 386.838 94.7992 374.536V374.534Z" fill="#000072"/>
</g>
<g opacity="0.3">
<path opacity="0.3" d="M408.848 245.077C411.647 256.787 407.291 269.815 396.496 277.267C377.778 290.177 345.631 310.063 311.293 321.03L318.113 333.973C352.451 323.006 384.601 303.12 403.316 290.21C418.42 279.787 420.912 258.448 408.848 245.077Z" fill="#000072"/>
</g>
<path d="M407.294 243.471C406.842 243.039 406.389 242.621 405.93 242.215C396.825 234.158 383.674 232.518 372.755 237.861C367.265 240.547 361.259 243.136 355.091 245.576C354.22 249.712 353.754 253.998 353.754 258.393C353.754 278.025 362.903 295.508 377.157 306.849C387.371 300.879 396.288 295.05 403.314 290.205C419.039 279.358 421.104 256.669 407.294 243.469V243.471Z" fill="#5E5D72"/>
<g opacity="0.6">
<path opacity="0.6" d="M320.627 341.964C321.556 344.132 322.48 346.487 323.373 349.02C322.662 346.467 321.908 344.06 321.129 341.799C320.962 341.853 320.795 341.91 320.627 341.964Z" fill="white"/>
<path opacity="0.6" d="M375.269 245.855C385.963 240.066 399.341 242.152 408.446 250.206C408.898 250.611 409.359 251.031 409.81 251.461C412.498 254.032 414.576 256.965 416.077 260.096C415.066 253.997 412.18 248.139 407.296 243.47C406.844 243.041 406.383 242.62 405.932 242.215C396.826 234.162 383.676 232.517 372.755 237.864C341.581 253.12 293.795 265.194 293.795 265.194C293.795 265.194 332.444 269.034 375.267 245.855H375.269Z" fill="white"/>
</g>
<path d="M158.355 356.986C153.493 356.966 149.018 357.197 144.638 357.725C136.684 366.071 131.793 377.359 131.793 389.797C131.793 395.656 132.887 401.259 134.866 406.424H201.451C204.58 402.195 206.565 397.541 207.102 392.65C209.249 373.08 187.425 357.112 158.355 356.986Z" fill="#5E5D72"/>
<path d="M317.975 337.475C316.51 337.475 315.153 336.538 314.685 335.068C314.106 333.25 315.109 331.306 316.927 330.727C350.058 320.166 381.124 301.317 401.352 287.363C408.076 282.726 412.305 275.385 412.955 267.222C413.594 259.213 410.659 251.467 404.909 245.97C404.488 245.568 404.066 245.18 403.64 244.804C395.592 237.683 384.066 236.176 374.276 240.968C343.135 256.208 296.614 268.05 294.649 268.546C292.798 269.018 290.921 267.894 290.454 266.043C289.986 264.193 291.108 262.314 292.957 261.848C293.431 261.727 340.754 249.682 371.239 234.762C383.553 228.739 398.07 230.646 408.223 239.631C408.715 240.068 409.202 240.514 409.685 240.975C416.946 247.916 420.649 257.682 419.846 267.772C419.029 278.016 413.719 287.23 405.279 293.053C384.666 307.271 352.97 326.492 319.028 337.31C318.68 337.421 318.327 337.475 317.979 337.475H317.975Z" fill="#000072"/>
<path d="M322.5 346.034C315.633 323.502 305.717 313.407 305.717 313.407L322.5 346.034Z" fill="#686779"/>
<path d="M106.947 410.079C106.41 410.079 105.864 409.953 105.355 409.688C67.6881 390.084 65.2961 365.051 69.9227 347.504C75.2455 327.316 91.1637 309.48 103.579 298.074C114.941 287.636 130.567 276.496 136.238 276.496C136.288 276.496 136.336 276.496 136.384 276.498C138.291 276.566 139.781 278.166 139.713 280.073C139.646 281.937 138.113 283.405 136.262 283.405H136.251C130.363 284.268 82.2271 317.063 75.7491 353.104C72.1074 373.364 83.1416 390.34 108.543 403.56C110.235 404.442 110.894 406.528 110.013 408.22C109.396 409.403 108.193 410.081 106.945 410.081L106.947 410.079ZM136.138 283.402C136.156 283.402 136.175 283.402 136.195 283.402C136.176 283.402 136.158 283.402 136.138 283.402Z" fill="#000072"/>
<path d="M324.199 354.404L322.482 354.906C325.839 365.914 328.472 379.897 328.862 397.125C329.236 380.099 327.452 365.919 324.734 354.359C324.556 354.372 324.378 354.391 324.199 354.404Z" fill="white"/>
<path d="M44.3015 405.389C49.7946 404.382 55.2858 403.873 60.7789 403.454C66.272 403.032 71.7632 402.899 77.2562 402.779C88.2405 402.514 99.2248 402.655 110.211 402.797L126.688 402.914L143.166 402.921H505.664L522.141 402.917C527.634 402.921 533.125 402.751 538.618 402.673C544.111 402.593 549.603 402.716 555.096 403.027C557.841 403.203 560.589 403.449 563.334 403.838C566.08 404.217 568.827 404.667 571.573 405.391C572.254 405.571 572.662 406.269 572.482 406.952C572.362 407.411 572.003 407.746 571.573 407.861C568.827 408.585 566.08 409.034 563.334 409.414C560.589 409.803 557.841 410.049 555.096 410.225C549.603 410.536 544.111 410.658 538.618 410.579C533.125 410.501 527.634 410.33 522.141 410.334L505.664 410.33H143.164L126.686 410.338L110.209 410.453C99.2248 410.597 88.2387 410.738 77.2544 410.473C71.7613 410.351 66.2701 410.219 60.777 409.797C55.284 409.379 49.7928 408.87 44.2997 407.863C43.6184 407.737 43.1666 407.083 43.2925 406.402C43.3888 405.876 43.8035 405.485 44.2997 405.395L44.3015 405.389Z" fill="#000072"/>
<path d="M306.531 312.598C310.16 315.147 312.918 318.389 315.412 321.834C316.015 322.704 316.65 323.567 317.197 324.471C317.734 325.38 318.283 326.287 318.798 327.211C319.898 329.031 320.707 330.978 321.62 332.885C323.282 336.764 324.598 340.772 325.737 344.806C326.019 345.815 326.368 346.808 326.617 347.824L327.379 350.87C327.875 352.9 328.47 354.915 328.814 356.975L330.003 363.128C330.345 365.184 330.575 367.256 330.865 369.32C331.526 373.445 331.673 377.607 332.026 381.753L332.143 383.31C332.169 383.828 332.167 384.348 332.18 384.867L332.237 387.982L332.35 394.212C332.239 398.358 332.052 402.503 331.904 406.646C331.836 408.551 330.236 410.042 328.329 409.973C326.422 409.905 324.934 408.305 325.002 406.398L325.01 406.196C325.15 402.184 325.334 398.171 325.443 394.159L325.332 388.147L325.278 385.141C325.265 384.639 325.267 384.137 325.243 383.637L325.13 382.141C324.786 378.157 324.652 374.143 324.015 370.2C323.736 368.223 323.517 366.234 323.191 364.268L322.055 358.397C321.729 356.427 321.159 354.52 320.688 352.588C320.201 350.658 319.724 348.727 319.039 346.863C317.843 343.075 316.317 339.421 314.845 335.766C313.32 332.135 311.815 328.49 310.13 324.922C308.51 321.331 306.734 317.724 304.89 314.21L304.829 314.094C304.529 313.523 304.75 312.818 305.32 312.518C305.72 312.309 306.186 312.355 306.533 312.596L306.531 312.598Z" fill="#000072"/>
<path d="M154.23 333.239C153.395 335.161 152.645 337.177 151.979 339.182C151.312 341.192 150.734 343.223 150.244 345.256C149.75 347.289 149.394 349.335 149.127 351.357C148.876 353.382 148.796 355.385 148.844 357.324V357.346C148.892 359.262 147.376 360.854 145.458 360.9C143.542 360.947 141.95 359.43 141.903 357.514C141.898 357.298 141.916 357.064 141.95 356.859C142.735 352.158 144.264 347.868 146.115 343.818C147.05 341.796 148.059 339.828 149.146 337.914C150.238 335.997 151.377 334.144 152.643 332.319C152.932 331.9 153.506 331.797 153.924 332.087C154.291 332.341 154.417 332.815 154.245 333.209L154.232 333.239H154.23Z" fill="#000072"/>
<path d="M114.824 364.516C119.447 361.715 124.353 359.445 129.487 357.623C134.619 355.816 140.018 354.554 145.48 353.93C148.21 353.608 150.95 353.463 153.677 353.421C156.401 353.369 159.113 353.432 161.894 353.582C167.413 353.922 172.932 354.702 178.306 356.213C183.681 357.696 188.922 359.869 193.743 362.902C198.546 365.929 202.971 369.867 206.17 374.888C207.757 377.391 209.038 380.151 209.797 383.085C210.563 386.014 210.835 389.088 210.604 392.098C210.184 398.154 207.679 403.84 204.228 408.479L204.22 408.49C203.082 410.021 200.917 410.34 199.386 409.201C197.855 408.063 197.535 405.902 198.674 404.371C201.515 400.54 203.406 396.121 203.715 391.576C204.083 387.044 202.867 382.502 200.338 378.59C197.839 374.658 194.195 371.348 190.063 368.748C185.919 366.14 181.284 364.198 176.459 362.87C171.638 361.522 166.615 360.758 161.566 360.584C159.061 360.506 156.475 360.552 153.909 360.686C151.347 360.815 148.799 360.984 146.268 361.252C141.199 361.733 136.178 362.533 131.104 363.529C126.02 364.485 120.925 365.723 115.648 366.669H115.639C115.002 366.784 114.395 366.362 114.28 365.725C114.193 365.236 114.424 364.76 114.826 364.518L114.824 364.516Z" fill="#000072"/>
<g opacity="0.3">
<path opacity="0.3" d="M313.674 324.913C313.674 324.913 339.426 379.641 204.873 379.641V403.037H328.912C333.768 360.811 313.674 324.913 313.674 324.913Z" fill="#000072"/>
</g>
<g opacity="0.3">
<path opacity="0.3" d="M152.922 333.711C148.712 340.295 145.841 348.215 144.082 357.246C160.748 356.028 171.283 357.483 177.176 358.909C153.687 349.874 152.922 333.711 152.922 333.711Z" fill="#000072"/>
<path opacity="0.3" d="M177.174 358.908C179.051 359.63 181.056 360.314 183.235 360.932C183.235 360.932 181.388 359.929 177.174 358.908Z" fill="#000072"/>
</g>
<path d="M286.677 261.094C286.677 286.863 249.226 307.753 203.026 307.753C156.827 307.753 119.373 286.863 119.373 261.094C119.373 235.325 156.825 214.435 203.026 214.435C249.228 214.435 286.677 235.325 286.677 261.094Z" fill="#F04643"/>
<g opacity="0.3">
<path opacity="0.3" d="M203.03 214.435C156.831 214.435 119.377 235.324 119.377 261.093C119.377 270.656 124.537 279.543 133.385 286.944C150.236 295.081 173.156 300.087 198.413 300.087C237.01 300.087 270.154 288.4 284.506 271.706C285.928 268.297 286.681 264.744 286.681 261.093C286.681 235.324 249.23 214.435 203.03 214.435Z" fill="#000072"/>
</g>
<path d="M203.026 311.207C180.102 311.207 158.498 306.197 142.191 297.103C125.249 287.653 115.918 274.864 115.918 261.093C115.918 247.323 125.249 234.533 142.191 225.084C158.496 215.988 180.102 210.98 203.026 210.98C225.95 210.98 247.553 215.99 263.859 225.084C280.801 234.533 290.132 247.323 290.132 261.093C290.132 274.864 280.801 287.653 263.859 297.103C247.553 306.197 225.948 311.207 203.026 311.207ZM203.026 217.889C181.261 217.889 160.851 222.588 145.557 231.118C130.899 239.293 122.827 249.939 122.827 261.093C122.827 272.248 130.899 282.893 145.557 291.067C160.851 299.599 181.259 304.295 203.026 304.295C224.793 304.295 245.2 299.599 260.493 291.067C275.15 282.892 283.222 272.246 283.222 261.093C283.222 249.941 275.15 239.293 260.493 231.118C245.199 222.588 224.791 217.889 203.026 217.889Z" fill="#000072"/>
<path d="M172.844 39.0906C180.951 31.5407 185.061 21.6765 183.404 10.9421C183.295 10.2331 183.163 9.52953 183.008 8.83156C182.223 5.31578 186.011 2.59424 189.138 4.38082C202.375 11.9474 211.684 23.0521 213.609 35.523C214.444 40.9439 213.809 46.1444 211.932 50.9358" fill="#FBD67B"/>
<g opacity="0.6">
<path opacity="0.6" d="M213.612 35.5228C211.687 23.0518 202.378 11.9453 189.141 4.38058C186.014 2.59399 182.226 5.31553 183.011 8.83132C183.107 9.26269 183.178 9.69777 183.255 10.1328C183.285 10.1495 183.315 10.1588 183.344 10.1754C196.582 17.742 205.89 28.8467 207.816 41.3176C208.258 44.191 208.277 46.9995 207.927 49.7211L211.933 50.9356C213.811 46.1442 214.446 40.9436 213.611 35.5228H213.612Z" fill="white"/>
</g>
<path d="M94.9346 88.5238C83.8189 80.3351 76.4189 68.775 75.5432 56.0578C74.9841 48.0191 77.1076 40.5303 81.2733 34.1282C83.4616 30.7642 88.1271 30.1347 91.0653 32.8692C101.79 42.8445 118.199 49.6817 135.984 50.3408C138.057 50.4167 140.094 50.4074 142.088 50.3167" fill="#FBD67B"/>
<g opacity="0.6">
<path opacity="0.6" d="M83.0271 38.7574C93.7522 48.7327 110.161 55.5699 127.945 56.229C128.512 56.2493 129.067 56.2493 129.628 56.2568L139.411 48.331C137.417 48.4217 135.381 48.4309 133.307 48.355C115.523 47.6941 99.1138 40.8588 88.3887 30.8835C85.4506 28.1508 80.7851 28.7803 78.5967 32.1424C77.4118 33.9642 76.3973 35.8767 75.5586 37.8632C77.8969 36.5728 80.911 36.7857 83.0289 38.7574H83.0271Z" fill="white"/>
</g>
<path d="M92.2485 89.9923C91.5357 89.9923 90.8192 89.7738 90.2027 89.3183C77.9002 80.2558 70.3225 67.4942 69.4153 54.3086C68.8247 45.7978 70.9964 37.4814 75.6971 30.2572C77.3096 27.7782 79.9108 26.149 82.8342 25.7898C85.7205 25.4325 88.6049 26.3675 90.7377 28.3522C101.23 38.1108 117.19 44.2982 133.431 44.9017C135.382 44.9739 137.341 44.9665 139.251 44.8795C141.138 44.8054 142.773 46.268 142.86 48.175C142.947 50.08 141.471 51.6963 139.564 51.7833C137.467 51.8777 135.317 51.887 133.175 51.8074C115.326 51.1446 97.7027 44.2667 86.0315 33.412C85.1614 32.6029 84.1838 32.5881 83.6784 32.6492C82.786 32.7603 81.9881 33.262 81.4901 34.0267C77.6151 39.9826 75.823 46.8309 76.3099 53.8328C77.0782 64.993 83.6377 75.8976 94.3035 83.7568C95.8402 84.888 96.1679 87.0504 95.0367 88.5871C94.359 89.5072 93.313 89.9923 92.2522 89.9923H92.2485Z" fill="#000072"/>
<path d="M211.934 54.742C211.471 54.742 211.002 54.6587 210.547 54.4791C208.59 53.7126 207.626 51.5058 208.392 49.5489C210.073 45.2573 210.564 40.7325 209.853 36.1022C208.185 25.2994 199.948 14.9409 187.253 7.68528C187.175 7.6427 187.033 7.55938 186.836 7.70379C186.683 7.81673 186.705 7.91115 186.725 8.00372C186.899 8.785 187.049 9.5811 187.17 10.3661C188.96 21.9724 184.796 33.1622 175.441 41.8749C173.904 43.3078 171.496 43.2227 170.063 41.6842C168.632 40.1457 168.717 37.7389 170.255 36.3059C177.707 29.365 181.043 20.5635 179.647 11.5214C179.551 10.8993 179.434 10.2735 179.297 9.65886C178.605 6.55778 179.764 3.46041 182.319 1.5757C184.9 -0.327527 188.238 -0.521922 191.03 1.07583C205.746 9.48668 215.35 21.8299 217.373 34.9396C218.293 40.9158 217.655 46.7625 215.477 52.3204C214.889 53.8219 213.454 54.7383 211.934 54.7383V54.742Z" fill="#000072"/>
<path d="M129.977 76.7052C141.103 95.9763 119.448 108.195 85.4896 127.8C51.5315 147.406 18.1324 166.973 7.0056 147.702C-4.12124 128.431 11.4397 93.975 45.396 74.3688C79.3541 54.7626 118.85 57.4341 129.975 76.7052H129.977Z" fill="#5E5D72"/>
<path d="M129.977 76.7052C141.103 95.9763 119.448 108.195 85.4896 127.8C51.5315 147.406 18.1324 166.973 7.0056 147.702C-4.12124 128.431 11.4397 93.975 45.396 74.3688C79.3541 54.7626 118.85 57.4341 129.975 76.7052H129.977Z" fill="#5E5D72"/>
<g opacity="0.6">
<path opacity="0.6" d="M54.5166 76.6884C66.6876 69.6606 79.4122 64.8636 91.7461 62.1328C77.5219 62.5994 61.4667 66.9075 46.4871 75.5554C21.0546 90.2406 5.94359 113.255 4.63281 131.982C12.0124 112.142 29.3229 91.2348 54.5166 76.6903V76.6884Z" fill="white"/>
</g>
<g opacity="0.3">
<path opacity="0.3" d="M129.975 76.7052C120.92 61.0202 93.0699 56.3362 64.7085 65.7061C69.5758 68.2832 73.4267 71.7287 75.8872 75.9887C87.014 95.2598 65.3583 107.479 31.4002 127.083C22.2987 132.338 13.2381 137.59 4.63281 142.092C5.20859 144.072 5.99358 145.953 7.00444 147.704C18.1313 166.975 51.5303 147.408 85.4884 127.802C119.447 108.195 141.102 95.9781 129.975 76.707V76.7052Z" fill="#000072"/>
</g>
<path d="M54.205 97.4815C35.269 108.414 21.7465 123.419 15.2388 137.592C11.0621 146.69 18.936 156.815 28.754 154.852C44.139 151.777 64.7079 139.797 85.4897 127.798C110.322 113.461 128.573 103.075 132.239 90.9905C117.939 78.8621 84.3011 80.1044 54.205 97.4796V97.4815Z" fill="#FF6C6C"/>
<g opacity="0.3">
<path opacity="0.3" d="M54.2064 97.4813C40.6931 105.283 29.9569 115.16 22.5403 125.326C23.9325 124.371 25.3803 123.451 26.8929 122.577C37.9975 116.166 49.9223 113.496 59.3348 114.166C67.0458 114.714 69.7673 124.645 63.5022 129.172C58.7497 132.604 52.4772 136.205 45.2568 140.372C36.5497 145.399 27.913 150.411 20.3945 153.53C22.781 154.893 25.6728 155.47 28.7572 154.854C44.1423 151.779 64.7112 139.799 85.493 127.8C110.326 113.463 128.577 103.076 132.242 90.9922C117.942 78.8638 84.3044 80.1061 54.2083 97.4813H54.2064Z" fill="#000072"/>
</g>
<path d="M21.9051 159.11C15.266 159.11 8.35849 156.948 4.01699 149.429C-2.02039 138.973 -1.22244 124.459 6.20903 109.613C13.7479 94.5503 27.052 80.9722 43.6719 71.3765C60.3732 61.7345 79.0871 56.8061 96.3901 57.5059C113.628 58.2002 126.962 64.569 132.97 74.9775C138.913 85.2712 137.063 94.878 127.316 104.348C118.951 112.475 105.432 120.279 88.3181 130.158L86.1149 131.43C68.8026 141.427 52.4493 150.87 38.3658 155.753C35.1703 156.861 28.6775 159.112 21.9051 159.112V159.11ZM93.2594 64.3523C78.2095 64.3523 61.5655 69.0234 47.1265 77.3602C31.6638 86.2857 19.328 98.84 12.3871 112.705C6.01464 125.437 5.14448 137.564 10.0007 145.973C12.5408 150.371 18.0079 155.496 36.1034 149.222C49.5648 144.554 66.3902 134.838 82.6602 125.444L84.8634 124.171C101.563 114.53 114.752 106.918 122.5 99.3899C130.048 92.0565 131.348 85.984 126.986 78.4303C122.186 70.1176 110.933 65.0077 96.1106 64.4079C95.1682 64.3709 94.2166 64.3505 93.2594 64.3505V64.3523Z" fill="#000072"/>
<path d="M26.3515 158.548C21.6249 158.548 17.1112 156.398 14.086 152.571C10.3703 147.869 9.60937 141.578 12.1013 136.15C19.3865 120.283 34.1032 105.1 52.4801 94.4897C82.2486 77.3032 118.265 74.6113 134.476 88.3579C135.526 89.2484 135.948 90.6777 135.548 91.9958C131.54 105.207 113.407 115.675 88.3118 130.16L86.1494 131.408C65.0455 143.596 45.1134 155.106 29.4359 158.24C28.4065 158.446 27.3753 158.546 26.3533 158.546L26.3515 158.548ZM55.9348 100.473C38.7706 110.384 25.0814 124.438 18.3812 139.034C16.9575 142.135 17.3796 145.594 19.5069 148.287C21.599 150.933 24.8019 152.125 28.0788 151.466C42.6418 148.554 63.0015 136.798 82.6929 125.426L84.8553 124.179C106.115 111.906 123.214 102.034 128.063 92.1754C114.744 83.3647 84.6257 83.909 55.9348 100.473Z" fill="#000072"/>
<path d="M197.886 54.7135C190.983 71.0576 211.877 74.4882 244.708 80.1831C277.539 85.8779 309.871 91.682 316.775 75.3361C323.679 58.9921 304.815 38.3288 271.985 32.632C239.154 26.9372 204.79 38.3676 197.886 54.7117V54.7135Z" fill="#5E5D72"/>
<path d="M197.886 54.7135C190.983 71.0576 211.877 74.4882 244.708 80.1831C277.539 85.8779 309.871 91.682 316.775 75.3361C323.679 58.9921 304.815 38.3288 271.985 32.632C239.154 26.9372 204.79 38.3676 197.886 54.7117V54.7135Z" fill="#5E5D72"/>
<g opacity="0.6">
<path opacity="0.6" d="M265.085 38.0571C253.318 36.0151 241.399 35.6892 230.133 36.7315C242.724 33.6268 257.5 32.8029 271.983 35.3152C296.574 39.5808 313.325 52.2443 317.287 65.1985C307.815 52.9201 289.444 42.282 265.087 38.0571H265.085Z" fill="white"/>
</g>
<g opacity="0.3">
<path opacity="0.3" d="M197.882 54.7138C203.501 41.4097 227.312 31.3641 253.681 31.1567C249.784 34.1578 246.911 37.5292 245.385 41.1431C238.481 57.4872 259.376 60.9178 292.207 66.6127C301.006 68.1401 309.769 69.673 318.019 70.7857C317.808 72.3279 317.4 73.8497 316.773 75.3345C309.869 91.6786 277.536 85.8763 244.705 80.1815C211.875 74.4866 190.982 71.056 197.884 54.7119L197.882 54.7138Z" fill="#000072"/>
</g>
<path d="M267.698 51.1424C286.006 54.3175 300.158 61.6879 308.011 70.1617C313.053 75.6011 307.639 84.6784 298.705 85.6597C284.701 87.1945 264.798 83.6713 244.709 80.187C220.7 76.0213 203.079 73.0684 198.039 65.3888C208.807 53.34 238.601 46.0974 267.699 51.1443L267.698 51.1424Z" fill="#FF6C6C"/>
<g opacity="0.3">
<path opacity="0.3" d="M267.701 51.1423C280.765 53.4084 291.697 57.8165 299.751 63.23C298.383 62.8893 296.97 62.5876 295.507 62.3339C284.771 60.4714 273.874 61.4601 265.691 64.2075C258.987 66.4588 258.078 74.1532 264.273 75.8491C268.971 77.1339 275.033 78.1707 282.013 79.3815C290.431 80.8423 298.784 82.3067 305.87 82.7029C303.972 84.2451 301.515 85.3522 298.708 85.6596C284.705 87.1944 264.802 83.6712 244.713 80.185C220.704 76.0194 203.082 73.0664 198.043 65.3869C208.811 53.338 238.605 46.0954 267.703 51.1423H267.701Z" fill="#000072"/>
</g>
<path d="M291.292 89.4866C278.097 89.4866 261.864 86.6706 245.183 83.775L243.052 83.4066C217.009 78.8911 199.804 75.9085 194.611 66.3961C192.587 62.6896 192.617 58.3055 194.702 53.3716C202.594 34.6855 238.981 23.4032 272.571 29.2332C293.719 32.9008 311.257 43.2389 318.339 56.2116C322.123 63.145 322.682 70.2229 319.953 76.6842C315.888 86.3133 305.3 89.4884 291.292 89.4884V89.4866ZM254.496 34.6003C228.508 34.6003 205.902 44.6108 201.067 56.0598C199.413 59.9718 200.052 61.9435 200.676 63.0839C204.269 69.6675 222.789 72.8796 244.234 76.5972L246.364 76.9675C276.583 82.2106 307.829 87.6333 313.59 73.996C315.469 69.5453 315.016 64.541 312.276 59.5237C306.179 48.3561 290.513 39.3584 271.392 36.0407C265.7 35.0539 260.02 34.6022 254.498 34.6022L254.496 34.6003Z" fill="#000072"/>
<path d="M291.217 89.4882C278.098 89.4882 262.01 86.6963 245.147 83.7693L243.055 83.4064C217.689 79.0075 200.93 76.1008 195.143 67.2827C194.284 65.9737 194.412 64.2519 195.456 63.0837C207.595 49.5001 239.587 42.7592 268.282 47.7376C286.192 50.8442 301.596 58.1609 310.54 67.8103C313.36 70.854 314.141 75.0863 312.632 79.1334C310.629 84.4987 305.308 88.4089 299.074 89.0902C296.601 89.3605 293.974 89.4845 291.217 89.4845V89.4882ZM202.848 65.5368C209.082 70.5022 224.856 73.2367 244.236 76.5989L246.328 76.9617C265.362 80.2646 285.043 83.6804 298.321 82.2252C302.485 81.7679 305.256 79.1315 306.156 76.721C306.576 75.5917 306.8 73.9458 305.471 72.511C297.536 63.9483 283.55 57.4018 267.101 54.547C239.908 49.8315 213.786 56.3502 202.848 65.5368Z" fill="#000072"/>
<path d="M173.256 290.686C159.038 291.053 144.756 289.409 130.935 285.432C78.3097 270.325 53.4345 230.109 56.4819 174.621C61.962 74.8016 132.9 33.6193 193.188 35.6762C200.936 35.941 208.444 36.8926 215.677 38.4588C215.677 38.4588 250.983 43.2299 269.691 75.9698C288.4 108.71 314.904 133.655 322.06 146.495C329.621 159.256 335.39 171.392 337.611 189.345C348.649 278.547 217.952 289.524 173.254 290.684L173.256 290.686Z" fill="white"/>
<path d="M245.411 83.5124C256.403 82.6367 266.072 93.8413 267.009 108.538C267.946 123.234 259.796 135.857 248.804 136.732C237.813 137.608 228.143 126.403 227.206 111.707C226.269 97.0108 234.419 84.3881 245.411 83.5124Z" fill="#000072"/>
<path d="M245.935 89.6701C249.371 91.0642 250.675 96.0796 248.845 100.875C247.018 105.67 242.751 108.425 239.314 107.032C235.878 105.638 234.575 100.623 236.404 95.8296C238.231 91.0345 242.499 88.2778 245.935 89.6719V89.6701Z" fill="white"/>
<path d="M256.419 121.384C258.026 122.536 258.117 125.292 256.623 127.542C255.129 129.791 252.615 130.68 251.008 129.528C249.401 128.377 249.31 125.62 250.804 123.373C252.298 121.123 254.812 120.234 256.419 121.386V121.384Z" fill="#B199C5"/>
<path d="M197.252 133.92C197.137 92.216 166.924 57.0026 120.589 54.9661C86.6182 75.9664 59.7657 114.738 56.4776 174.619C55.1409 198.969 59.1844 220.376 68.5876 238.015C70.3112 237.744 72.0404 237.459 73.7826 237.152C142.097 225.072 197.405 189.171 197.252 133.92Z" fill="#5E5D72"/>
<path d="M197.252 133.92C197.137 92.216 166.924 57.0026 120.589 54.9661C86.6182 75.9664 59.7657 114.738 56.4776 174.619C55.1409 198.969 59.1844 220.376 68.5876 238.015C70.3112 237.744 72.0404 237.459 73.7826 237.152C142.097 225.072 197.405 189.171 197.252 133.92Z" fill="#5E5D72"/>
<path d="M145.689 99.7049C158.208 99.9159 167.917 113.637 167.37 130.353C166.826 147.067 156.234 160.447 143.713 160.236C131.194 160.025 121.486 146.304 122.032 129.588C122.578 112.874 133.168 99.4938 145.689 99.7049Z" fill="#000072"/>
<path d="M145.609 106.723C149.342 108.673 150.266 114.486 147.677 119.705C145.087 124.924 139.963 127.576 136.232 125.624C132.502 123.675 131.576 117.861 134.166 112.642C136.756 107.423 141.881 104.772 145.611 106.723H145.609Z" fill="white"/>
<path d="M154.002 143.718C155.692 145.195 155.494 148.321 153.559 150.7C151.625 153.079 148.687 153.81 146.994 152.332C145.304 150.855 145.502 147.73 147.437 145.351C149.372 142.972 152.31 142.241 154 143.718H154.002Z" fill="#B199C5"/>
<g opacity="0.6">
<path opacity="0.6" d="M56.4846 184.698C61.9647 84.8788 132.902 43.6965 193.191 45.7534C200.939 46.0182 208.446 46.9698 215.68 48.5361C215.68 48.5361 250.986 53.3071 269.694 86.047C288.402 118.787 314.907 143.733 322.062 156.572C329.623 169.334 335.392 181.469 337.614 199.422C337.836 201.222 337.995 202.988 338.105 204.725C338.427 199.876 338.282 194.755 337.614 189.345C335.392 171.392 329.623 159.255 322.062 146.495C314.907 133.655 288.402 108.712 269.694 75.9699C250.986 43.23 215.68 38.459 215.68 38.459C208.446 36.8927 200.939 35.9411 193.191 35.6763C132.902 33.6176 61.9647 74.8017 56.4846 174.621C56.2236 179.383 56.1829 184.022 56.3328 188.553C56.3735 187.273 56.4143 185.994 56.4846 184.698Z" fill="white"/>
</g>
<path d="M65.4023 231.383C76.7402 257.361 98.5866 276.148 130.934 285.436C144.758 289.405 159.034 291.051 173.257 290.683C217.955 289.526 348.655 278.547 337.617 189.347C335.409 171.498 329.688 159.395 322.188 146.711C298.977 138.265 274.037 133.659 248.062 133.659C172.796 133.659 106.181 172.211 65.4042 231.385L65.4023 231.383Z" fill="#F5AFB0"/>
<path d="M169.385 293.51C155.847 293.51 142.676 291.695 130.168 288.104C97.5192 278.73 74.873 260.02 62.8594 232.494C62.4743 231.612 62.5724 230.598 63.1186 229.807C83.7579 199.857 111.197 174.989 142.469 157.894C174.794 140.222 211.307 130.88 248.063 130.88C273.773 130.88 299.032 135.327 323.139 144.101C323.742 144.321 324.251 144.743 324.579 145.297C332.464 158.632 338.166 171.168 340.373 189.006C343.072 210.816 337.687 229.716 324.368 245.185C289.099 286.143 206.992 292.59 173.328 293.46C172.012 293.495 170.695 293.512 169.385 293.512V293.51ZM68.5765 231.681C80.0514 256.85 101.281 274.031 131.7 282.764C144.874 286.547 158.833 288.272 173.184 287.906C206.109 287.054 286.339 280.833 320.16 241.558C332.412 227.328 337.359 209.877 334.86 189.686C332.81 173.116 327.769 161.728 320.3 148.981C297.086 140.654 272.788 136.434 248.059 136.434C177.271 136.434 110.292 172.011 68.5746 231.681H68.5765Z" fill="#000072"/>
<path d="M169.397 294.191C155.782 294.191 142.541 292.366 129.981 288.752C77.1446 273.583 49.8181 232.982 53.034 174.43C55.5833 127.994 72.5217 89.9239 102.02 64.3358C126.851 42.7949 160.12 31.0868 193.308 32.2254C201.067 32.4901 208.797 33.4436 216.286 35.0561C219.179 35.4764 253.774 41.1509 272.692 74.2574C283.93 93.9228 297.86 110.55 309.055 123.91C316.355 132.624 322.12 139.506 325.079 144.814C333.03 158.231 338.812 170.909 341.041 188.923C343.765 210.931 338.327 230.005 324.881 245.624C289.445 286.778 207.103 293.262 173.345 294.139C172.026 294.174 170.708 294.191 169.396 294.191H169.397ZM188.789 39.057C129.506 39.057 65.0884 80.9113 59.9323 174.81C56.9108 229.817 82.4655 267.924 131.888 282.113C144.983 285.88 158.872 287.591 173.167 287.234C206.005 286.38 286.013 280.178 319.647 241.116C331.768 227.038 336.659 209.764 334.186 189.773C332.097 172.892 326.86 161.373 319.089 148.259C316.405 143.444 310.543 136.449 303.758 128.351C292.387 114.779 278.237 97.8885 266.693 77.688C249.096 46.8939 215.549 41.9322 215.212 41.8859C215.125 41.8729 215.034 41.8581 214.949 41.8396C207.825 40.2974 200.464 39.3865 193.073 39.1329C191.649 39.0848 190.22 39.0607 188.791 39.0607L188.789 39.057Z" fill="#000072"/>
<path d="M184.983 207.981C183.565 207.677 182.123 207.35 180.656 207.007L184.983 207.981Z" fill="#000072"/>
<path d="M263.678 193.692V217.008C263.678 230.307 254.16 241.806 241.041 244.035C238.156 244.525 234.905 244.729 231.258 244.542C205.339 243.209 184.984 207.983 184.984 207.983C232.013 218.047 253.895 204.935 263.678 193.694V193.692Z" fill="#000072"/>
<path d="M225.872 223.865C217.628 223.865 210.03 226.612 203.932 231.237C211.545 238.131 220.961 244.011 231.26 244.539C234.909 244.726 238.156 244.526 241.045 244.034C246.147 243.165 250.701 240.892 254.365 237.659C247.708 229.259 237.423 223.865 225.872 223.865Z" fill="#F04643"/>
<path d="M272.176 181.251C272.996 184.165 272.206 186.542 271.084 188.647C269.98 190.78 268.406 192.598 266.735 194.261L265.466 195.49C265.05 195.905 264.635 196.319 264.195 196.706L262.912 197.908L261.575 199.044C260.699 199.824 259.738 200.487 258.816 201.203C257.876 201.892 256.893 202.516 255.932 203.173C251.996 205.652 247.789 207.652 243.452 209.164C239.11 210.679 234.656 211.738 230.175 212.495C221.198 213.889 212.134 214.056 203.23 213.28C201.01 213.041 198.774 212.898 196.571 212.576C194.369 212.249 192.146 212.01 189.961 211.604L186.679 211.017C185.588 210.81 184.453 210.806 183.359 210.623C182.258 210.468 181.191 210.129 180.175 209.592C179.166 209.022 178.207 208.229 177.431 206.737C177.029 205.963 177.257 205.028 177.931 204.519L177.961 204.497C179.318 203.467 180.491 203.142 181.613 203.036C182.728 202.964 183.794 203.09 184.826 203.399C185.855 203.719 186.884 204.019 187.936 204.223L191.096 204.791C193.201 205.184 195.325 205.406 197.437 205.724C199.552 206.035 201.677 206.165 203.795 206.396C212.276 207.139 220.791 206.959 229.068 205.678C233.189 204.978 237.251 204.012 241.156 202.651C245.06 201.292 248.784 199.511 252.235 197.341C253.071 196.764 253.936 196.221 254.754 195.619C255.552 194.994 256.397 194.422 257.148 193.746C258.726 192.474 260.17 191.048 261.434 189.484C262.676 187.897 263.778 186.253 265.061 184.733C266.303 183.176 267.653 181.717 269.991 180.536L270.249 180.407C270.923 180.066 271.745 180.336 272.083 181.01C272.122 181.088 272.156 181.175 272.18 181.256L272.176 181.251Z" fill="#000072"/>
<path d="M233.891 248.062C232.967 248.062 232.03 248.037 231.081 247.989C203.6 246.579 182.865 211.212 181.995 209.708C181.041 208.057 181.606 205.944 183.257 204.991C184.909 204.036 187.021 204.6 187.978 206.252C188.173 206.587 207.712 239.873 231.436 241.089C234.657 241.256 237.696 241.1 240.463 240.628C251.912 238.681 260.223 228.746 260.223 217.005V193.694C260.223 191.785 261.769 190.239 263.678 190.239C265.587 190.239 267.133 191.785 267.133 193.694V217.005C267.133 232.125 256.404 244.925 241.622 247.439C239.188 247.854 236.598 248.062 233.891 248.062Z" fill="#000072"/>
<path d="M204.207 173.038C206.316 171.611 206.403 168.056 204.402 165.097C202.4 162.137 199.068 160.895 196.959 162.321C194.85 163.747 194.763 167.302 196.764 170.262C198.766 173.221 202.098 174.464 204.207 173.038Z" fill="#000072"/>
<path d="M252.547 158.071C253.852 154.745 252.988 151.296 250.618 150.366C248.248 149.436 245.269 151.378 243.964 154.704C242.659 158.03 243.523 161.48 245.893 162.41C248.263 163.339 251.242 161.397 252.547 158.071Z" fill="#000072"/>
<path d="M225.088 290.267C213.632 296.406 207.487 309.416 211.762 320.341L224.856 353.807L278.123 325.262L257.509 295.825C250.78 286.214 236.544 284.126 225.088 290.267Z" fill="#FFBF0D"/>
<g opacity="0.6">
<path opacity="0.6" d="M246.72 299.672L257.084 317.025C258.588 316.712 260.065 316.538 261.463 316.557C262.468 316.57 263.442 316.62 264.392 316.701L253.787 298.946C250.006 292.616 241.007 290.295 231.855 292.359C238.295 292.513 243.93 294.999 246.72 299.672Z" fill="#EBEBEB"/>
</g>
<g opacity="0.3">
<path opacity="0.3" d="M270.416 327.574C253.566 336.603 232.612 328.885 225.645 311.082C223.024 304.382 224.325 296.9 228.363 290.698C218.394 297.256 213.332 309.236 217.314 319.413L230.409 352.879L283.675 324.334L281.705 321.522L270.416 327.572V327.574Z" fill="#000072"/>
</g>
<path d="M224.857 357.261C224.454 357.261 224.05 357.191 223.663 357.048C222.736 356.706 222.001 355.986 221.64 355.066L208.545 321.6C203.679 309.164 210.089 294.385 223.456 287.222C236.823 280.06 252.68 282.904 260.339 293.844L280.953 323.281C281.519 324.09 281.712 325.103 281.484 326.064C281.254 327.025 280.625 327.841 279.755 328.308L226.488 356.852C225.981 357.122 225.42 357.261 224.857 357.261ZM238.719 290.256C234.731 290.256 230.571 291.248 226.72 293.311C216.604 298.732 211.446 310.051 214.978 319.08L226.655 348.923L273.06 324.055L254.68 297.806C251.234 292.887 245.21 290.256 238.719 290.256Z" fill="#000072"/>
<path d="M249.172 352.675C238.93 355.482 231.454 353.814 227.868 351.318C226.005 350.017 225.015 348.434 224.843 346.469C224.219 339.392 234.018 328.641 249.07 324.525C252.843 323.496 256.242 323.068 259.212 323.068C264.294 323.068 268.106 324.316 270.366 325.889C272.229 327.191 273.219 328.774 273.392 330.738C274.015 337.816 264.216 348.565 249.172 352.673V352.675Z" fill="#FFBF0D"/>
<g opacity="0.3">
<path opacity="0.3" d="M246.613 346.122C236.371 348.929 228.895 347.261 225.309 344.765C223.447 343.463 222.456 341.881 222.284 339.916C221.66 332.838 231.459 322.087 246.511 317.972C250.284 316.942 253.684 316.515 256.653 316.515C261.735 316.515 265.547 317.762 267.808 319.336C269.67 320.638 270.661 322.221 270.833 324.185C271.457 331.263 261.657 342.012 246.613 346.12V346.122Z" fill="#000072"/>
</g>
<path d="M238.917 357.596C233.716 357.596 229.166 356.433 225.891 354.154C223.169 352.253 221.658 349.77 221.397 346.771C220.546 337.107 232.798 325.393 248.155 321.194C252.001 320.146 255.718 319.613 259.208 319.613C264.487 319.613 269.15 320.835 272.336 323.053C275.058 324.956 276.567 327.439 276.83 330.438C277.681 340.102 265.431 351.814 250.077 356.008C246.193 357.072 242.407 357.596 238.917 357.596ZM259.208 326.522C256.333 326.522 253.226 326.972 249.973 327.857C236.081 331.656 227.844 341.239 228.279 346.166C228.338 346.845 228.568 347.595 229.842 348.484C232.646 350.435 239.156 351.833 248.254 349.341C248.254 349.341 248.254 349.341 248.255 349.341C262.146 345.547 270.379 335.968 269.944 331.04C269.885 330.359 269.656 329.609 268.382 328.72C266.406 327.344 262.974 326.521 259.206 326.521L259.208 326.522Z" fill="#000072"/>
<path d="M256.208 341.695C261.536 336.368 261.536 327.731 256.208 322.404C250.881 317.077 242.244 317.076 236.917 322.404C231.59 327.731 231.59 336.368 236.917 341.695C242.244 347.022 250.881 347.022 256.208 341.695Z" fill="#F7C72B"/>
<g opacity="0.3">
<path opacity="0.3" d="M253.626 330.364C256.01 330.364 258.251 330.979 260.2 332.055C260.2 332.053 260.2 332.051 260.2 332.049C260.2 324.516 254.092 318.408 246.559 318.408C239.026 318.408 232.918 324.516 232.918 332.049C232.918 337.198 235.773 341.678 239.985 344C239.988 336.468 246.094 330.364 253.626 330.364Z" fill="#000072"/>
</g>
<path d="M246.561 348.467C237.507 348.467 230.143 341.102 230.143 332.049C230.143 322.996 237.507 315.629 246.561 315.629C255.614 315.629 262.979 322.996 262.979 332.049C262.979 341.102 255.614 348.467 246.561 348.467ZM246.561 321.183C240.57 321.183 235.697 326.058 235.697 332.049C235.697 338.04 240.571 342.913 246.561 342.913C252.55 342.913 257.425 338.04 257.425 332.049C257.425 326.058 252.55 321.183 246.561 321.183Z" fill="#000072"/>
<path d="M286.597 329.578C286.083 323.716 283.004 318.54 277.937 315.016C270.111 309.568 258.012 308.344 245.571 311.741C225.263 317.299 210.359 333.062 211.646 347.623C212.16 353.492 215.232 358.661 220.299 362.192C225.202 365.606 231.772 367.361 239.061 367.361C243.412 367.361 248.018 366.729 252.663 365.457C272.969 359.907 287.875 344.144 286.595 329.576L286.597 329.578ZM249.172 352.675C238.93 355.482 231.454 353.814 227.868 351.318C226.005 350.017 225.015 348.434 224.842 346.47C224.219 339.392 234.018 328.641 249.07 324.525C252.843 323.496 256.242 323.068 259.212 323.068C264.294 323.068 268.106 324.316 270.366 325.89C272.229 327.191 273.219 328.774 273.391 330.738C274.015 337.816 264.216 348.565 249.172 352.674V352.675Z" fill="#FFBF0D"/>
<g opacity="0.6">
<path opacity="0.6" d="M230.827 356.904C234.413 359.398 241.889 361.068 252.131 358.261C267.177 354.153 276.974 343.404 276.351 336.326C276.182 334.395 275.217 332.834 273.414 331.544C273.277 338.609 263.659 348.719 249.172 352.675C238.93 355.482 231.454 353.814 227.868 351.318C227.837 351.296 227.811 351.272 227.779 351.252C227.774 351.524 227.779 351.792 227.802 352.055C227.974 354.02 228.962 355.602 230.827 356.904Z" fill="#EBEBEB"/>
<path opacity="0.6" d="M214.604 353.211C213.32 338.648 228.223 322.887 248.529 317.329C260.971 313.93 273.069 315.154 280.895 320.604C282.772 321.909 284.376 323.444 285.679 325.155C284.339 321.134 281.684 317.623 277.938 315.019C270.113 309.57 258.014 308.346 245.573 311.743C225.265 317.301 210.361 333.064 211.648 347.625C211.972 351.322 213.312 354.742 215.526 357.649C215.052 356.227 214.74 354.744 214.604 353.209V353.211Z" fill="#EBEBEB"/>
</g>
<path d="M239.06 370.603C230.975 370.603 223.847 368.614 218.445 364.852C212.578 360.764 209.016 354.747 208.416 347.908C206.996 331.836 222.94 314.578 244.714 308.618C258.07 304.967 271.182 306.367 279.787 312.36C285.66 316.444 289.224 322.459 289.823 329.296C291.234 345.379 275.286 362.636 253.518 368.586C248.624 369.925 243.759 370.605 239.06 370.605V370.603ZM259.203 313.078C255.139 313.078 250.815 313.669 246.425 314.867C227.894 319.939 213.739 334.506 214.874 347.34C215.303 352.235 217.888 356.564 222.151 359.535C226.461 362.536 232.308 364.123 239.062 364.123C243.185 364.123 247.473 363.521 251.811 362.334C270.339 357.271 284.497 342.702 283.369 329.861C282.942 324.972 280.355 320.643 276.086 317.675C271.722 314.637 265.807 313.078 259.203 313.078Z" fill="#000072"/>
<path d="M239.062 355.978C233.522 355.978 229.32 354.588 226.807 352.838C224.495 351.222 223.214 349.135 222.995 346.631C222.294 338.664 232.406 327.161 248.58 322.74C252.286 321.729 255.863 321.217 259.21 321.217C264.165 321.217 268.502 322.337 271.422 324.369C273.734 325.986 275.016 328.072 275.234 330.579C275.936 338.547 265.825 350.046 249.657 354.462C245.741 355.534 242.187 355.978 239.06 355.978H239.062ZM259.21 324.921C256.192 324.921 252.943 325.39 249.555 326.313C234.653 330.388 226.191 340.706 226.685 346.308C226.807 347.71 227.52 348.819 228.925 349.802C232.165 352.055 239.058 353.525 248.68 350.891C263.578 346.821 272.037 336.505 271.544 330.903C271.422 329.502 270.711 328.393 269.304 327.409C267.034 325.828 263.354 324.921 259.21 324.921Z" fill="#000072"/>
<path d="M405.966 199.761L336.607 383.252H536.041C544.602 383.252 552.279 377.87 555.364 369.709L614.591 213.021C618.142 203.629 611.361 193.52 601.509 193.52H414.869C410.926 193.52 407.388 195.999 405.966 199.759V199.761Z" fill="#8E95BF"/>
<g opacity="0.6">
<path opacity="0.6" d="M601.503 193.521H414.863C410.92 193.521 407.382 196 405.96 199.761L402.455 209.031C402.468 209.034 402.483 209.04 402.496 209.044C404.082 205.707 407.402 203.554 411.077 203.554H597.717C607.496 203.554 614.245 213.515 610.869 222.847L614.583 213.022C618.134 203.63 611.353 193.521 601.501 193.521H601.503Z" fill="white"/>
</g>
<path d="M615.392 205.763C614.721 205.663 614.035 205.605 613.329 205.605H426.693C422.747 205.605 419.209 208.083 417.791 211.845L366.311 348.029C361.257 361.402 352.224 372.815 340.486 380.662L336.615 383.25H536.041C544.6 383.25 552.28 377.868 555.364 369.707L614.592 213.018C615.512 210.584 615.732 208.103 615.392 205.761V205.763Z" fill="#8E95BF"/>
<path d="M536.042 386.706H336.608C335.473 386.706 334.411 386.149 333.767 385.216C333.122 384.283 332.976 383.092 333.378 382.03L402.736 198.539C404.651 193.471 409.527 190.065 414.87 190.065H601.51C607.279 190.065 612.489 192.818 615.807 197.619C619.167 202.48 619.923 208.695 617.825 214.242L558.597 370.931C555.031 380.367 545.967 386.706 536.042 386.706ZM341.607 379.797H536.042C543.11 379.797 549.577 375.252 552.132 368.489L611.36 211.8C612.654 208.375 612.191 204.543 610.121 201.547C608.114 198.642 604.974 196.976 601.51 196.976H414.87C412.345 196.976 410.118 198.548 409.199 200.983L341.607 379.797Z" fill="#000072"/>
<path d="M536.042 386.706H336.614C335.092 386.706 333.75 385.71 333.308 384.255C332.865 382.798 333.428 381.224 334.694 380.38L338.567 377.792C349.774 370.299 358.251 359.585 363.08 346.809L414.559 210.622C416.47 205.555 421.349 202.15 426.693 202.15H613.33C614.163 202.15 615.028 202.217 615.9 202.345C617.409 202.569 618.592 203.754 618.812 205.263C619.251 208.269 618.91 211.374 617.827 214.242L558.599 370.93C555.034 380.367 545.969 386.706 536.044 386.706H536.042ZM347.5 379.797H536.042C543.111 379.797 549.578 375.251 552.132 368.488L611.36 211.8C611.701 210.9 611.921 209.985 612.023 209.062H426.692C424.164 209.062 421.939 210.633 421.023 213.064L369.543 349.252C364.959 361.381 357.396 371.832 347.499 379.798L347.5 379.797Z" fill="#000072"/>
<path d="M521.099 406.623H153.355C142.413 406.623 133.541 397.557 133.541 386.373C133.541 384.649 134.907 383.253 136.594 383.253H535.325C537.012 383.253 538.378 384.649 538.378 386.373V388.963C538.378 398.716 530.641 406.623 521.097 406.623H521.099Z" fill="#8E95BF"/>
<path d="M521.099 410.078H153.354C140.524 410.078 130.088 399.444 130.088 386.371C130.088 382.746 133.008 379.797 136.596 379.797H535.325C538.913 379.797 541.833 382.746 541.833 386.371V388.961C541.833 400.605 532.531 410.078 521.099 410.078ZM136.999 386.706C137.173 395.813 144.444 403.167 153.354 403.167H521.099C528.723 403.167 534.925 396.794 534.925 388.961V386.706H136.999Z" fill="#000072"/>
<path d="M338.96 388.962V386.371C338.96 384.648 337.594 383.25 335.907 383.25H136.594C134.907 383.25 133.541 384.648 133.541 386.371C133.541 397.556 142.411 406.622 153.355 406.622H321.681C331.225 406.622 338.96 398.715 338.96 388.962Z" fill="#8E95BF"/>
<path d="M321.681 410.078H153.354C140.524 410.078 130.088 399.444 130.088 386.371C130.088 382.746 133.008 379.795 136.596 379.795H335.907C339.495 379.795 342.414 382.744 342.414 386.371V388.961C342.414 400.605 333.113 410.078 321.681 410.078ZM136.999 386.706C137.173 395.813 144.444 403.169 153.354 403.169H321.681C329.305 403.169 335.507 396.796 335.507 388.963V386.708H136.999V386.706Z" fill="#000072"/>
<path d="M521.099 406.623H153.355C142.413 406.623 133.541 397.557 133.541 386.373C133.541 384.649 134.907 383.253 136.594 383.253H535.325C537.012 383.253 538.378 384.649 538.378 386.373V388.963C538.378 398.716 530.641 406.623 521.097 406.623H521.099Z" fill="#8E95BF"/>
<path d="M521.099 410.078H153.354C140.524 410.078 130.088 399.444 130.088 386.371C130.088 382.746 133.008 379.797 136.596 379.797H535.325C538.913 379.797 541.833 382.746 541.833 386.371V388.961C541.833 400.605 532.531 410.078 521.099 410.078ZM136.999 386.706C137.173 395.813 144.444 403.167 153.354 403.167H521.099C528.723 403.167 534.925 396.794 534.925 388.961V386.706H136.999Z" fill="#000072"/>
<g opacity="0.3">
<path opacity="0.3" d="M535.327 383.251H338.279C336.196 390.614 329.555 395.998 321.681 395.998H153.357C145.16 395.998 138.129 390.912 135.113 383.659C134.18 384.194 133.543 385.201 133.543 386.371C133.543 397.555 142.413 406.621 153.357 406.621H521.101C530.645 406.621 538.382 398.714 538.382 388.961V386.371C538.382 384.647 537.016 383.251 535.329 383.251H535.327Z" fill="#000072"/>
</g>
<path d="M321.681 410.078H153.354C140.524 410.078 130.088 399.444 130.088 386.371C130.088 382.746 133.008 379.795 136.596 379.795H335.907C339.495 379.795 342.414 382.744 342.414 386.371V388.961C342.414 400.605 333.113 410.078 321.681 410.078ZM136.999 386.706C137.173 395.813 144.444 403.169 153.354 403.169H321.681C329.305 403.169 335.507 396.796 335.507 388.963V386.708H136.999V386.706Z" fill="#000072"/>
<g opacity="0.3">
<path opacity="0.3" d="M536.042 375.846C544.601 375.846 552.281 370.464 555.365 362.303L559.47 351.445C555.604 356.196 549.817 359.089 543.548 359.089H365.744C357.713 359.089 351.618 352.737 350.963 345.276L339.408 375.846H536.042Z" fill="#000072"/>
</g>
<path d="M480.135 249.526L479.605 252.035C479.34 253.291 480.143 254.523 481.398 254.789L503.794 259.516C505.049 259.781 506.282 258.978 506.547 257.723L507.076 255.214C507.342 253.958 506.539 252.725 505.283 252.46L482.888 247.733C481.632 247.468 480.4 248.271 480.135 249.526Z" fill="white"/>
<path d="M476.147 258.835L471.961 263.341C470.732 264.665 471.417 266.822 473.183 267.196L493.541 271.495C494.339 271.663 495.168 271.4 495.723 270.802L499.872 266.335C501.094 265.019 500.426 262.873 498.673 262.486C492.774 261.184 481.982 258.822 478.269 258.129C477.485 257.983 476.689 258.25 476.147 258.835Z" fill="white"/>
<path d="M466.459 272.841L457.855 313.244C457.59 314.499 458.392 315.732 459.649 315.997L481.403 320.592C482.658 320.857 483.891 320.055 484.156 318.798L492.759 278.395C493.024 277.14 492.222 275.907 490.965 275.642L469.212 271.047C467.956 270.782 466.723 271.584 466.459 272.841Z" fill="white"/>
<path d="M496.607 279.207L488.004 319.61C487.739 320.865 488.541 322.098 489.798 322.363L498.723 324.248C499.978 324.513 501.211 323.711 501.476 322.454L510.08 282.051C510.344 280.796 509.543 279.563 508.286 279.298L499.36 277.413C498.105 277.149 496.872 277.95 496.607 279.207Z" fill="white"/>
<path d="M501.307 270.217L504.155 267.124C505.349 265.826 507.497 266.279 508.063 267.949L509.416 271.932C509.996 273.637 508.498 275.325 506.738 274.953L502.537 274.066C500.774 273.694 500.087 271.545 501.307 270.219V270.217Z" fill="white"/>
<g opacity="0.3">
<path opacity="0.3" d="M339.466 181.016C339.445 180.853 339.419 180.699 339.399 180.538C337.194 258.223 216.924 268.205 174.418 269.311C160.199 269.677 145.918 268.033 132.097 264.056C87.077 251.132 62.3851 219.821 58.0898 176.306C58.4379 226.606 83.3816 262.92 132.786 277.103C146.607 281.078 160.888 282.724 175.107 282.357C219.805 281.197 350.502 270.22 339.464 181.018L339.466 181.016Z" fill="#000072"/>
</g>
<path d="M380.733 126.129C379.8 126.129 378.878 125.768 378.184 125.074C377.027 123.917 376.795 122.123 377.621 120.708L384.525 108.882C385.848 106.614 385.571 103.796 383.832 101.87C376.751 94.026 372.805 83.8878 372.724 73.3257C372.541 49.8019 391.516 30.2957 415.023 29.8421C415.308 29.8366 415.587 29.8347 415.871 29.8347C427.525 29.8347 438.446 34.4095 446.624 42.7167C454.8 51.022 459.2 62.0192 459.015 73.683C458.645 97.0901 439.289 116.133 415.871 116.133H415.495C411.831 116.102 408.189 115.608 404.672 114.663C404.201 114.538 403.712 114.473 403.224 114.473C402.211 114.473 401.208 114.747 400.321 115.263L382.547 125.64C381.981 125.97 381.353 126.131 380.731 126.131L380.733 126.129Z" fill="#FF1542"/>
<path d="M415.876 33.4381C437.929 33.4381 455.767 51.491 455.416 73.6262C455.075 95.1189 437.328 112.531 415.87 112.531C415.757 112.531 415.642 112.531 415.529 112.531C412.101 112.502 408.777 112.033 405.61 111.183C404.825 110.972 404.025 110.871 403.227 110.871C401.583 110.871 399.952 111.309 398.508 112.152L380.734 122.529L387.638 110.704C389.738 107.107 389.301 102.552 386.509 99.4605C380.247 92.5252 376.408 83.3626 376.328 73.3003C376.16 51.7558 393.551 33.8639 415.092 33.4492C415.353 33.4437 415.613 33.4418 415.872 33.4418L415.876 33.4381ZM415.872 26.2344C415.564 26.2344 415.261 26.2362 414.954 26.2436C389.482 26.7343 368.922 47.8697 369.121 73.3577C369.209 84.8049 373.484 95.791 381.158 104.291C381.83 105.035 381.934 106.177 381.412 107.072L374.506 118.896C372.855 121.725 373.318 125.311 375.634 127.627C377.022 129.016 378.868 129.738 380.732 129.738C381.978 129.738 383.232 129.416 384.365 128.755L402.138 118.378C402.473 118.184 402.849 118.08 403.223 118.08C403.397 118.08 403.571 118.102 403.738 118.147C407.55 119.17 411.495 119.707 415.463 119.741H415.864C441.241 119.741 462.214 99.1068 462.616 73.7447C462.816 61.109 458.048 49.1934 449.191 40.1938C440.332 31.1924 428.498 26.2362 415.87 26.2362L415.872 26.2344Z" fill="#000072"/>
<g opacity="0.3">
<path opacity="0.3" d="M454.556 68.6995C454.536 68.2662 454.51 67.833 454.476 67.4035C454.46 67.1832 454.441 66.9629 454.421 66.7426C454.38 66.3075 454.328 65.8743 454.273 65.4429C454.249 65.2559 454.228 65.067 454.202 64.8819C454.121 64.308 454.025 63.7396 453.919 63.1749C453.873 62.9287 453.817 62.6862 453.767 62.4418C453.697 62.1067 453.627 61.7734 453.547 61.442C453.479 61.1495 453.405 60.8588 453.329 60.5682C453.258 60.2979 453.184 60.0294 453.108 59.761C453.019 59.4462 452.931 59.1296 452.834 58.8186C452.777 58.6316 452.712 58.4465 452.651 58.2613C452.414 57.5356 452.157 56.8173 451.879 56.1119C451.84 56.0119 451.803 55.9101 451.762 55.8101C451.605 55.4195 451.438 55.0307 451.268 54.6456C451.216 54.5289 451.164 54.4123 451.113 54.2975C450.931 53.8958 450.744 53.4959 450.55 53.1015C450.535 53.0701 450.518 53.0404 450.503 53.0108C449.615 51.2205 448.595 49.5061 447.456 47.8806C449.396 52.6572 450.435 57.8966 450.348 63.3915C450.055 81.8536 436.916 97.2923 419.619 101.284C401.279 105.346 390.605 101.915 384.111 95.5094C384.077 95.4724 379.347 86.7449 378.414 85.4156C378.562 85.7822 378.718 86.1414 378.877 86.4987C378.873 86.495 378.871 86.4932 378.868 86.4895C380.58 90.3663 382.893 93.9172 385.694 97.022C388.484 100.114 388.923 104.668 386.823 108.265L379.919 120.092L397.693 109.715C399.838 108.462 402.395 108.103 404.796 108.747C407.964 109.597 411.287 110.065 414.714 110.095C415.336 110.1 415.953 110.087 416.567 110.063C417.14 110.041 417.706 110.002 418.271 109.956C418.356 109.948 418.441 109.947 418.526 109.939C419.045 109.893 419.559 109.832 420.072 109.765C420.202 109.748 420.333 109.737 420.461 109.719C420.942 109.652 421.42 109.569 421.898 109.486C422.055 109.458 422.212 109.436 422.37 109.406C422.823 109.319 423.273 109.219 423.723 109.117C423.897 109.078 424.075 109.043 424.249 109C424.68 108.897 425.106 108.78 425.532 108.662C425.719 108.61 425.908 108.562 426.093 108.506C426.504 108.386 426.911 108.253 427.317 108.119C427.511 108.054 427.709 107.993 427.902 107.927C428.294 107.79 428.683 107.643 429.072 107.495C429.274 107.418 429.475 107.343 429.675 107.264C430.051 107.112 430.423 106.951 430.794 106.79C430.999 106.699 431.206 106.612 431.41 106.518C431.769 106.353 432.123 106.179 432.476 106.005C432.686 105.901 432.895 105.799 433.102 105.692C433.445 105.514 433.784 105.329 434.122 105.142C434.332 105.026 434.543 104.909 434.75 104.79C435.078 104.6 435.402 104.403 435.724 104.205C435.933 104.076 436.144 103.946 436.351 103.813C436.664 103.611 436.972 103.406 437.277 103.196C437.486 103.054 437.696 102.909 437.903 102.761C438.199 102.55 438.492 102.334 438.782 102.113C438.99 101.958 439.195 101.799 439.401 101.639C439.682 101.419 439.96 101.193 440.236 100.964C440.441 100.793 440.643 100.621 440.845 100.449C441.111 100.219 441.374 99.9861 441.633 99.7491C441.835 99.5658 442.033 99.3807 442.23 99.1937C442.481 98.9548 442.729 98.7142 442.976 98.4679C443.172 98.2717 443.364 98.0736 443.557 97.8736C443.794 97.6274 444.027 97.3793 444.257 97.1275C444.448 96.9183 444.634 96.7073 444.821 96.4944C445.044 96.2407 445.262 95.9852 445.479 95.7279C445.662 95.5057 445.843 95.2817 446.021 95.0558C446.227 94.7966 446.432 94.5356 446.632 94.2708C446.81 94.0357 446.982 93.7969 447.154 93.558C447.345 93.2933 447.536 93.0267 447.721 92.7564C447.889 92.5083 448.054 92.2584 448.217 92.0066C448.393 91.7363 448.569 91.466 448.737 91.192C448.898 90.9309 449.052 90.668 449.207 90.4033C449.369 90.1293 449.53 89.8553 449.683 89.5776C449.835 89.3054 449.978 89.0277 450.122 88.7518C450.266 88.4741 450.415 88.1983 450.553 87.9169C450.694 87.6318 450.827 87.3411 450.961 87.0523C451.09 86.7709 451.224 86.4913 451.348 86.208C451.477 85.9118 451.598 85.61 451.72 85.3083C451.835 85.025 451.953 84.7436 452.06 84.4566C452.177 84.1474 452.284 83.8346 452.394 83.5217C452.494 83.2366 452.597 82.9533 452.69 82.6645C452.794 82.3423 452.888 82.0165 452.984 81.6925C453.069 81.4074 453.158 81.1241 453.236 80.8353C453.327 80.4984 453.406 80.1577 453.488 79.8189C453.556 79.5356 453.63 79.2561 453.693 78.971C453.771 78.6174 453.836 78.2582 453.903 77.899C453.954 77.6232 454.014 77.3492 454.06 77.0714C454.123 76.6938 454.171 76.3105 454.225 75.9291C454.262 75.6662 454.304 75.4052 454.336 75.1404C454.386 74.7128 454.419 74.2795 454.456 73.8463C454.475 73.6242 454.501 73.4057 454.515 73.1817C454.56 72.5244 454.588 71.8616 454.597 71.197C454.606 70.5638 454.597 69.9343 454.578 69.3067C454.573 69.1086 454.562 68.9124 454.552 68.7143L454.556 68.6995Z" fill="#000072"/>
</g>
<g opacity="0.5">
<path opacity="0.5" d="M378.459 76.1327C378.29 54.5881 395.682 36.6963 417.223 36.2815C429.822 36.039 441.11 41.6894 448.517 50.6631C441.256 40.0658 428.974 33.1786 415.098 33.4452C393.557 33.8599 376.165 51.7536 376.333 73.2963C376.407 82.7014 379.768 91.3177 385.32 98.0679C381.047 91.8102 378.523 84.2658 378.46 76.1327H378.459Z" fill="white"/>
</g>
<path d="M399.983 60.0683C404.189 55.862 411.012 56.6155 415.218 60.8219L415.873 61.4772L416.529 60.8219C420.735 56.6155 427.557 55.8601 431.764 60.0683C435.97 64.2747 435.97 71.0971 431.764 75.3034L431.108 75.9588L417.88 89.187C416.771 90.2959 414.973 90.2959 413.864 89.187L400.636 75.9588L399.981 75.3034C395.775 71.0971 395.775 64.2747 399.981 60.0683H399.983Z" fill="white"/>
</svg>
