<svg width="24" height="25" viewBox="0 0 24 25" fill="none" xmlns="http://www.w3.org/2000/svg">
<path d="M24 12.4998C24 14.8731 23.2962 17.1932 21.9776 19.1666C20.6591 21.14 18.7849 22.6781 16.5922 23.5863C14.3995 24.4946 11.9867 24.7322 9.65892 24.2692C7.33115 23.8062 5.19295 22.6633 3.51472 20.985C1.83649 19.3068 0.693605 17.1686 0.230582 14.8408C-0.232441 12.5131 0.00519943 10.1003 0.913451 7.90755C1.8217 5.71484 3.35977 3.8407 5.33316 2.52212C7.30655 1.20354 9.62663 0.499756 12 0.499756C15.1826 0.499756 18.2348 1.76404 20.4853 4.01447C22.7357 6.26491 24 9.31716 24 12.4998ZM19.23 10.3398C19.4952 10.0745 19.6442 9.71483 19.6442 9.33976C19.6442 8.96468 19.4952 8.60497 19.23 8.33976C18.9648 8.07454 18.6051 7.92554 18.23 7.92554C17.8549 7.92554 17.4952 8.07454 17.23 8.33976L10.46 15.1098L7.00001 11.6598C6.73479 11.3945 6.37508 11.2455 6.00001 11.2455C5.62493 11.2455 5.26522 11.3945 5.00001 11.6598C4.73479 11.925 4.58579 12.2847 4.58579 12.6598C4.58579 13.0348 4.73479 13.3945 5.00001 13.6598L10.45 19.1098L19.23 10.3398Z" fill="#000072"/>
</svg>
