<?xml version="1.0" encoding="UTF-8" standalone="no"?><!DOCTYPE svg PUBLIC "-//W3C//DTD SVG 1.1//EN" "http://www.w3.org/Graphics/SVG/1.1/DTD/svg11.dtd"><svg width="100%" height="100%" viewBox="0 0 123 123" version="1.1" xmlns="http://www.w3.org/2000/svg" xmlns:xlink="http://www.w3.org/1999/xlink" xml:space="preserve" xmlns:serif="http://www.serif.com/" style="fill-rule:evenodd;clip-rule:evenodd;stroke-linejoin:round;stroke-miterlimit:2;"><rect id="Artboard2" x="0" y="0" width="122.88" height="122.88" style="fill:none;"/><g id="Artboard21" serif:id="Artboard2"><g><path d="M66.127,11.364l-8.919,-1.596l-16.129,9.566l-14.991,9.108l-2.277,11.765l6.641,16.319l23.91,41.747l29.792,14.839l2.467,-30.968l-9.298,-18.027l22.201,-15.371l-16.509,-31.023l-16.888,-6.359Z" style="fill:#fff;"/><path d="M48.407,94.929c-6.611,-11.797 -20.355,-36.34 -26.594,-47.588c-2.315,-4.172 -3.405,-8.475 -2.492,-12.694c0.896,-4.139 3.727,-8.339 9.795,-12.194c3.155,-2.006 26.49,-15.247 26.727,-15.381c0.001,-0.001 0.002,-0.001 0.002,-0.001c0.475,-0.27 0.991,-0.4 1.5,-0.404c0.261,-0.003 0.525,0.028 0.786,0.093l24.896,6.255c0.806,0.202 1.479,0.713 1.894,1.396c0.158,0.173 0.299,0.365 0.418,0.577l18.144,32.268c0.83,1.477 0.322,3.346 -1.142,4.199c-0,0 -10.928,6.368 -21.595,12.593l9.1,15.668c0.333,0.573 0.461,1.209 0.408,1.824l-2.743,31.838c-0.086,0.999 -0.65,1.895 -1.513,2.405c-0.864,0.509 -1.92,0.57 -2.837,0.163l-29.067,-12.927c-0.816,-0.192 -1.552,-0.713 -1.994,-1.501c0,0 -1.265,-2.257 -3.305,-5.896c-0.132,-0.179 -0.247,-0.375 -0.341,-0.587c-0.016,-0.035 -0.032,-0.071 -0.047,-0.106Zm7.819,-80.942c-6.222,3.535 -21.303,12.124 -23.784,13.7c-4.218,2.681 -6.437,5.394 -7.06,8.272c-0.605,2.797 0.32,5.608 1.854,8.374c0.802,1.446 1.729,3.113 2.749,4.944c1.687,-4.532 5.186,-8.52 9.865,-11.304c4.171,-2.482 10.77,-6.29 10.77,-6.29c1.482,-0.855 3.38,-0.346 4.235,1.137c0.856,1.482 0.346,3.38 -1.136,4.235c-0,0 -6.554,3.782 -10.697,6.247c-6.218,3.7 -9.831,10.316 -6.892,16.927c0.032,0.072 0.061,0.145 0.087,0.219c0.971,1.738 1.965,3.515 2.965,5.306c1.687,-4.534 5.187,-8.522 9.867,-11.307c4.161,-2.476 27.989,-16.345 27.989,-16.345c1.479,-0.861 3.379,-0.359 4.24,1.12c0.86,1.479 0.359,3.379 -1.121,4.24c0,0 -23.784,13.843 -27.937,16.314c-6.217,3.7 -9.83,10.316 -6.892,16.927c0.021,0.047 0.04,0.093 0.058,0.14c0.894,1.596 1.768,3.157 2.612,4.664c1.695,-4.508 5.184,-8.474 9.844,-11.247c3.484,-2.074 30.171,-17.632 38.738,-22.626l-15.365,-27.326l-13.061,8.013c-0.714,0.437 -1.575,0.568 -2.386,0.361c-0.812,-0.206 -1.506,-0.732 -1.923,-1.458l-7.619,-13.237Zm19.163,53.187c-6.919,4.04 -12.856,7.511 -14.376,8.416c-6.115,3.638 -9.71,10.098 -7.032,16.6c0.765,1.365 1.429,2.549 1.968,3.511l26.972,-15.56l-7.532,-12.967Zm-1.023,-49.94l-10.657,-2.677l3.92,6.809l6.737,-4.132Zm-12.735,82.35c0,-0 20.074,8.927 20.074,8.927l1.86,-21.581l-21.934,12.654Z" style="fill:#38a6f5;"/></g></g></svg>