<svg version="1.1" id="Layer_1" xmlns="http://www.w3.org/2000/svg" xmlns:xlink="http://www.w3.org/1999/xlink" x="0px" y="0px"
	 width="100%" viewBox="0 0 128 128" enable-background="new 0 0 128 128" xml:space="preserve">
<path fill="#FEFFFF" opacity="1.000000" stroke="none" 
	d="
M79.000000,129.000000 
	C53.666668,129.000000 28.833149,128.957443 4.000284,129.065399 
	C1.499360,129.076263 0.930376,128.499771 0.935936,125.999855 
	C1.026385,85.333397 1.026381,44.666611 0.935937,4.000143 
	C0.930377,1.500242 1.500242,0.930377 4.000143,0.935937 
	C44.666611,1.026383 85.333397,1.026383 125.999855,0.935936 
	C128.499771,0.930377 129.069626,1.500242 129.064072,4.000143 
	C128.973618,44.666611 128.973618,85.333397 129.064072,125.999855 
	C129.069626,128.499771 128.502335,129.088531 125.999420,129.067001 
	C110.500572,128.933731 95.000000,129.000000 79.000000,129.000000 
z"/>
<path fill="#49ACF3" opacity="1.000000" stroke="none" 
	d="
M85.597198,67.665077 
	C83.341858,69.057243 83.523941,70.607170 84.744415,72.076180 
	C94.455231,83.764435 88.871315,96.830940 88.141602,109.449097 
	C87.957375,112.634811 86.096230,113.464378 83.310524,112.248428 
	C75.834755,108.985260 68.373863,105.687202 60.934299,102.342422 
	C59.016094,101.480011 58.046425,99.676140 57.037434,97.922142 
	C49.813156,85.363678 42.502029,72.854904 35.326725,60.268642 
	C28.761259,48.752094 31.270689,39.110600 42.470177,32.215893 
	C43.605026,31.517248 44.751064,30.836447 45.899540,30.160322 
	C63.370255,19.875072 63.368210,19.882774 82.395874,26.076670 
	C84.517487,26.767296 86.213875,27.746319 87.391403,29.849934 
	C91.701614,37.549957 96.076866,45.219391 100.668686,52.753422 
	C102.851768,56.335316 102.059700,58.500435 98.528320,60.350044 
	C94.253792,62.588890 90.099236,65.056786 85.597198,67.665077 
z"/>
<path fill="#F6FBFC" opacity="1.000000" stroke="none" 
	d="
M93.767395,52.274258 
	C95.858711,55.203358 94.237663,56.300591 92.082909,57.499531 
	C84.526978,61.703770 77.057266,66.062592 69.532516,70.323341 
	C64.016747,73.446548 58.495907,76.541573 56.051426,83.163193 
	C51.425808,77.188499 51.997662,70.191879 57.659092,66.371063 
	C64.404526,61.818676 71.566322,57.883587 78.542122,53.671741 
	C79.533363,53.073254 80.626717,52.558018 81.434181,51.762142 
	C82.509926,50.701843 82.481491,49.311298 81.580139,48.126904 
	C80.788712,47.086956 79.598228,46.799801 78.454239,47.480137 
	C69.749062,52.657154 60.426487,56.823643 52.465031,63.208553 
	C51.337360,64.112915 50.627018,65.541740 49.738670,66.739067 
	C49.092007,67.610664 48.934868,69.412689 47.505894,68.877602 
	C46.687000,68.570969 46.166340,67.069191 45.805286,66.005699 
	C43.978321,60.624363 46.265648,54.734428 51.524231,51.365536 
	C53.902267,49.842060 56.401115,48.503651 58.872864,47.131187 
	C60.482388,46.237488 61.738113,45.016232 60.823185,43.156197 
	C59.721317,40.916122 57.790462,41.638763 56.095982,42.486900 
	C49.812664,45.631882 43.604439,48.884346 40.565750,55.872303 
	C36.163128,51.284279 36.517529,43.492672 41.737404,39.765461 
	C47.404518,35.718906 53.604103,32.421528 59.536160,28.740513 
	C61.404659,27.581053 62.237358,28.654037 63.052101,30.072067 
	C64.460533,32.523384 65.932884,34.938877 67.300934,37.412258 
	C68.690369,39.924305 70.489113,40.677982 73.005112,38.991745 
	C73.142250,38.899830 73.300064,38.838696 73.448524,38.763760 
	C83.240913,33.821278 83.240959,33.821255 88.647163,43.279015 
	C90.298424,46.167793 91.949364,49.056763 93.767395,52.274258 
z"/>
<path fill="#F5FBFC" opacity="1.000000" stroke="none" 
	d="
M74.454582,88.450951 
	C71.113609,90.393768 68.033714,92.061996 65.070572,93.916748 
	C62.593266,95.467400 61.397629,94.678253 61.008488,92.033287 
	C60.246815,86.856232 61.661366,82.445747 65.862877,79.171585 
	C67.299065,78.052391 68.918755,77.145157 70.526360,76.273407 
	C78.670135,71.857353 76.910492,70.251373 82.497551,79.575912 
	C83.954575,82.007614 83.906067,83.330276 81.292862,84.579826 
	C79.045128,85.654633 76.936417,87.020164 74.454582,88.450951 
z"/>
<path fill="#F1F9FC" opacity="1.000000" stroke="none" 
	d="
M83.662476,90.009369 
	C84.050804,91.708694 84.110382,93.357758 84.005432,94.996292 
	C83.799225,98.215828 84.597977,102.154007 80.336411,103.306068 
	C76.289383,104.400124 73.119987,101.440460 69.829391,99.787193 
	C67.658981,98.696724 69.788475,97.667542 70.763969,97.092796 
	C74.896477,94.657959 79.088844,92.324722 83.662476,90.009369 
z"/>
<path fill="#D8F3FB" opacity="1.000000" stroke="none" 
	d="
M72.604919,32.823532 
	C70.317749,32.483910 69.131699,30.871084 70.271950,29.542170 
	C71.546921,28.056253 74.069077,29.276682 74.974686,30.367016 
	C76.008942,31.612242 73.887199,32.084850 72.604919,32.823532 
z"/>
<path fill="#F1F9FC" opacity="1.000000" stroke="none" 
	d="
M84.000061,89.997078 
	C84.153748,89.756760 84.384354,89.247414 84.215172,90.056000 
	C84.065598,90.064384 84.021141,90.020241 84.000061,89.997078 
z"/>
</svg>