<?xml version="1.0" encoding="UTF-8" standalone="no"?><!DOCTYPE svg PUBLIC "-//W3C//DTD SVG 1.1//EN" "http://www.w3.org/Graphics/SVG/1.1/DTD/svg11.dtd"><svg width="100%" height="100%" viewBox="0 0 210 49" version="1.1" xmlns="http://www.w3.org/2000/svg" xmlns:xlink="http://www.w3.org/1999/xlink" xml:space="preserve" xmlns:serif="http://www.serif.com/" style="fill-rule:evenodd;clip-rule:evenodd;stroke-linejoin:round;stroke-miterlimit:2;"><g id="EasyApplier-logo"><path d="M69.981,31.557l0,2.629l-12.285,0l-0,-20.477l12.285,-0l0,2.629l-9.246,0l0,6.06l7.929,0l0,2.63l-7.929,0l0,6.529l9.246,-0Zm14.22,1.637c-1.227,0.701 -3.244,1.343 -5.996,1.343c-3.834,0 -5.762,-1.869 -5.762,-4.445c-0,-3.044 2.425,-4.534 5.762,-4.534c0.995,0 2.195,0.117 3.103,0.322l-0,-1.229c-0,-2.05 -1.113,-3.163 -3.425,-3.163c-1.376,-0 -2.781,0.263 -3.921,0.732l-0.584,-2.368c1.198,-0.497 3.07,-0.848 4.797,-0.848c4.01,0 6.026,2.075 6.026,5.793l-0,8.397Zm-5.733,-0.877c1.347,0 2.284,-0.293 2.84,-0.615l-0,-3.836c-0.82,-0.204 -1.727,-0.351 -2.752,-0.351c-1.815,0 -3.162,0.644 -3.162,2.46c0,1.552 1.113,2.342 3.074,2.342Zm18.901,-12.524l-0.351,2.426c-1.257,-0.38 -2.427,-0.731 -3.92,-0.731c-1.552,-0 -2.636,0.527 -2.636,1.814c0,1.318 1.142,1.727 2.87,2.254c3.248,0.907 4.943,1.961 4.943,4.566c-0,2.984 -2.455,4.415 -5.763,4.415c-1.874,0 -3.949,-0.438 -5.06,-0.905l0.439,-2.485c1.286,0.497 2.835,0.907 4.592,0.907c1.727,-0 2.869,-0.673 2.869,-1.873c0,-1.288 -1.083,-1.698 -3.543,-2.4c-2.516,-0.732 -4.269,-1.844 -4.269,-4.42c0,-2.808 1.987,-4.357 5.353,-4.357c1.639,0 3.365,0.322 4.476,0.789Zm11.265,13.595c-2.224,3.897 -4.798,5.654 -7.693,6.24l-0.498,-2.548c1.902,-0.381 3.861,-1.582 5.002,-3.487c-3.13,-4.453 -4.826,-8.613 -5.441,-14.237l2.984,-0c0.468,5.009 1.989,8.554 4.007,11.952c1.843,-3.691 2.955,-6.943 3.394,-11.952l2.954,-0c-0.585,5.302 -2.369,9.843 -4.709,14.032Z"/><path d="M129.465,34.186c-0.497,-1.785 -1.024,-3.569 -1.579,-5.325l-8.484,0c-0.556,1.756 -1.082,3.54 -1.579,5.325l-3.16,0c2.106,-7.137 4.622,-14.599 7.401,-20.477l3.16,-0c2.749,5.878 5.324,13.311 7.401,20.477l-3.16,0Zm-5.821,-17.292c-0.965,2.166 -2.194,5.532 -3.423,9.337l6.846,0c-1.229,-3.805 -2.458,-7.171 -3.423,-9.337Zm24.897,9.569c0,4.742 -2.454,8.045 -7.137,8.045c-1.318,0 -2.196,-0.263 -2.957,-0.584l0,5.704l-2.951,0l-0,-19.309c1.782,-0.876 3.946,-1.315 5.791,-1.315c4.683,0 7.254,2.981 7.254,7.459Zm-10.094,4.947c0.673,0.322 1.405,0.644 2.547,0.644c3.044,-0 4.479,-1.961 4.479,-5.503c-0,-2.897 -1.259,-5.063 -4.333,-5.063c-1.054,-0 -1.932,0.263 -2.693,0.614l0,9.308Zm26.801,-4.947c0,4.742 -2.454,8.045 -7.137,8.045c-1.318,0 -2.196,-0.263 -2.957,-0.584l0,5.704l-2.951,0l-0,-19.309c1.782,-0.876 3.946,-1.315 5.791,-1.315c4.683,0 7.254,2.981 7.254,7.459Zm-10.094,4.947c0.673,0.322 1.405,0.644 2.547,0.644c3.044,-0 4.479,-1.961 4.479,-5.503c-0,-2.897 -1.259,-5.063 -4.333,-5.063c-1.054,-0 -1.932,0.263 -2.693,0.614l0,9.308Zm16.648,-18.404l0,16.444c0,1.726 0.439,2.604 1.785,2.604c0.293,-0 0.615,-0.029 0.849,-0.088l0.234,2.367c-0.468,0.117 -1.171,0.204 -1.668,0.204c-2.895,0 -4.151,-1.84 -4.151,-5.058l-0,-16.297l2.951,-0.176Zm8.866,6.35l-0,14.83l-2.952,0l0,-14.83l2.952,-0Zm-1.491,-2.608c-1.169,-0 -1.841,-0.731 -1.841,-1.812c-0,-1.023 0.672,-1.754 1.841,-1.754c1.14,-0 1.813,0.731 1.813,1.754c-0,1.081 -0.673,1.812 -1.813,1.812Zm17.497,14.369l0.496,2.398c-1.373,0.642 -3.128,1.022 -5.03,1.022c-4.655,0 -7.723,-2.834 -7.723,-7.781c-0,-4.565 2.717,-7.752 6.991,-7.752c3.863,0 6.142,2.777 6.142,6.496c0,0.759 -0.058,1.402 -0.117,1.957l-9.977,-0c0.293,3.133 2.078,4.568 4.947,4.568c1.464,-0 2.956,-0.352 4.271,-0.908Zm-5.266,-9.688c-2.283,0 -3.659,1.611 -3.923,4.129l7.172,0c0.03,-0.175 0.03,-0.292 0.03,-0.468c-0,-1.962 -1.025,-3.661 -3.279,-3.661Zm9.891,-1.022c1.52,-0.848 3.888,-1.403 6.141,-1.403c0.819,0 1.551,0.088 2.077,0.202l-0.409,2.487c-0.439,-0.147 -0.995,-0.205 -1.463,-0.205c-1.463,-0 -2.575,0.322 -3.394,0.76l-0,11.938l-2.952,0l0,-13.779Zm-188.399,18.309c-2.9,-5.174 -8.929,-15.94 -11.666,-20.874c-1.015,-1.83 -1.493,-3.718 -1.093,-5.569c0.393,-1.815 1.635,-3.657 4.297,-5.348c1.384,-0.88 11.62,-6.688 11.724,-6.747l0.001,-0.001c0.208,-0.118 0.434,-0.175 0.658,-0.177c0.114,-0.001 0.23,0.012 0.344,0.041l10.921,2.744c0.354,0.088 0.649,0.313 0.831,0.612c0.069,0.076 0.131,0.16 0.183,0.253l7.959,14.155c0.364,0.647 0.141,1.467 -0.501,1.842c0,-0 -4.793,2.793 -9.473,5.523l3.992,6.873c0.146,0.252 0.203,0.531 0.179,0.8l-1.203,13.966c-0.038,0.439 -0.285,0.831 -0.664,1.055c-0.379,0.224 -0.842,0.25 -1.244,0.071l-12.751,-5.67c-0.357,-0.084 -0.68,-0.312 -0.874,-0.658c-0,-0 -0.555,-0.99 -1.45,-2.587c-0.058,-0.078 -0.108,-0.164 -0.149,-0.257c-0.007,-0.016 -0.014,-0.031 -0.021,-0.047Zm11.387,-34.081l-4.675,-1.174l1.72,2.987l2.955,-1.813Zm0.449,21.907c-3.035,1.772 -5.64,3.295 -6.306,3.691c-2.683,1.596 -4.26,4.43 -3.085,7.282c0.336,0.599 0.627,1.118 0.863,1.54l11.832,-6.825l-3.304,-5.688Zm-6.035,14.216l8.805,3.916l0.816,-9.466l-9.621,5.55Zm-2.371,-37.547c-2.729,1.551 -9.345,5.318 -10.433,6.01c-1.851,1.176 -2.824,2.366 -3.097,3.628c-0.265,1.227 0.14,2.46 0.813,3.673c0.352,0.635 0.759,1.366 1.206,2.169c0.74,-1.988 2.275,-3.737 4.327,-4.959c1.83,-1.088 4.724,-2.758 4.724,-2.758c0.651,-0.376 1.483,-0.152 1.858,0.498c0.376,0.65 0.152,1.483 -0.498,1.858c0,0 -2.875,1.659 -4.692,2.74c-2.728,1.623 -4.313,4.525 -3.024,7.425c0.015,0.032 0.027,0.064 0.039,0.096c0.426,0.763 0.862,1.542 1.301,2.328c0.739,-1.989 2.275,-3.739 4.328,-4.96c1.825,-1.086 12.277,-7.17 12.277,-7.17c0.649,-0.378 1.482,-0.157 1.86,0.491c0.377,0.649 0.157,1.483 -0.492,1.86c0,0 -10.433,6.073 -12.254,7.157c-2.728,1.623 -4.312,4.525 -3.024,7.425c0.009,0.02 0.018,0.04 0.026,0.061c0.392,0.7 0.775,1.385 1.145,2.046c0.744,-1.978 2.275,-3.717 4.319,-4.934c1.528,-0.909 13.234,-7.734 16.992,-9.924l-6.74,-11.987l-5.729,3.514c-0.313,0.193 -0.691,0.25 -1.047,0.159c-0.356,-0.09 -0.66,-0.321 -0.843,-0.639l-3.342,-5.807Z" style="fill:#38a6f5;"/></g></svg>